<?xml version="1.0" encoding="utf-8"?>
<!-- Generator: Adobe Illustrator 24.0.3, SVG Export Plug-In . SVG Version: 6.00 Build 0)  -->
<svg version="1.1" id="Layer_1" xmlns="http://www.w3.org/2000/svg" xmlns:xlink="http://www.w3.org/1999/xlink" x="0px" y="0px"
	 viewBox="0 0 50 50" style="enable-background:new 0 0 50 50;" xml:space="preserve">
<g>
	<path d="M29.3,50L25,39.8L20.7,50C23.5,49.1,26.5,49.1,29.3,50L29.3,50z"/>
	<path d="M6,19.2c-5.1,5.1-5.1,13.5,0,18.6c5.1,5.1,13.5,5.1,18.6,0c0.1-0.1,0.3-0.2,0.4-0.2l0.1,0c0.1,0,0.3,0.1,0.4,0.2
		c5.2,5.1,13.5,5,18.6-0.1c5.1-5.2,5-13.5-0.1-18.6l-19-19L6,19.2z"/>
</g>
</svg>
