<?xml version="1.0" encoding="utf-8"?>
<!-- Generator: Adobe Illustrator 24.0.3, SVG Export Plug-In . SVG Version: 6.00 Build 0)  -->
<svg version="1.1" id="Layer_1" xmlns="http://www.w3.org/2000/svg" xmlns:xlink="http://www.w3.org/1999/xlink" x="0px" y="0px"
	 viewBox="0 0 52.5 52.5" style="enable-background:new 0 0 52.5 52.5;" xml:space="preserve">
<style type="text/css">
	.st0{fill:#019200;stroke:#EEEEEE;stroke-width:0.9921;stroke-miterlimit:10;}
</style>
<g>
	<path class="st0" d="M26.4,40.9L21,51.3c3.5-1.1,7.3-1.1,10.9,0L26.4,40.9z"/>
	<path class="st0" d="M39.8,16.8c-0.3-0.1-0.5-0.3-0.4-0.6c1-7.2-4.1-13.8-11.2-14.7s-13.8,4-14.8,11.2c-0.2,1.2-0.2,2.4,0,3.5
		c0,0.3-0.1,0.5-0.4,0.6c-7,1.8-11.2,9-9.3,16s9,11.2,16,9.3c2.4-0.6,4.6-2,6.3-3.8c0.2-0.2,0.6-0.2,0.8,0l0,0
		c4.9,5.3,13.2,5.7,18.5,0.8s5.7-13.2,0.8-18.5C44.4,18.8,42.2,17.5,39.8,16.8L39.8,16.8z"/>
</g>
</svg>
