<?xml version="1.0" encoding="utf-8"?>
<!-- Generator: Adobe Illustrator 24.0.3, SVG Export Plug-In . SVG Version: 6.00 Build 0)  -->
<svg version="1.1" id="Layer_1" xmlns="http://www.w3.org/2000/svg" xmlns:xlink="http://www.w3.org/1999/xlink" x="0px" y="0px"
	 viewBox="0 0 600 800" style="enable-background:new 0 0 600 800;" xml:space="preserve">
<style type="text/css">
	.st0{fill:#DADADA;}
</style>
<g>
	<path class="st0" d="M453.3,376.8l-0.2,0.2c-1.8,1.8-4.7,1.8-6.5,0c-16.5-16.3-43.2-16.1-59.4,0.5c-16.2,16.5-16.1,42.9,0.2,59.2
		l62.7,62.7l62.6-63.2c16.4-16.4,16.4-43,0-59.4C496.3,360.4,469.7,360.4,453.3,376.8L453.3,376.8z"/>
	<g>
		<path class="st0" d="M289.9,351.2c6.7-1.3,13.5-1.3,20.2,0L300,327L289.9,351.2z"/>
		<path class="st0" d="M296.8,311.7c0.2-0.2,0.5-0.4,0.7-0.6c0.1,0,0.1-0.1,0.2-0.1c0.1-0.1,0.3-0.2,0.5-0.2
			c0.1-0.1,0.3-0.1,0.5-0.2c0.1,0,0.1,0,0.2,0c0.5-0.1,1-0.2,1.5-0.2h0.4c1.1,0,2.2,0.5,3,1.3c16.7,16.1,43.3,15.7,59.4-1
			c15.9-16.5,15.7-42.7-0.4-58.9L300,189l-62.7,63.2c-16.4,16.4-16.4,43,0,59.5S280.4,328.1,296.8,311.7z"/>
	</g>
	<g>
		<path class="st0" d="M116.3,486.6c11.5,0,22.5-4.8,30.3-13.3c1.7-1.9,4.7-2,6.6-0.3c0.1,0.1,0.2,0.2,0.3,0.3
			c15.4,16.8,41.5,17.8,58.3,2.4s17.8-41.5,2.4-58.3c-5.3-5.8-12.2-9.9-19.8-11.9c-2.3-0.6-3.7-2.8-3.4-5.1
			c3.1-22.6-12.8-43.3-35.3-46.4s-43.3,12.8-46.4,35.3c-0.5,3.7-0.5,7.4,0,11.1c0.3,2.3-1.2,4.5-3.4,5.1
			c-22,5.8-35.2,28.4-29.3,50.4C81.2,474,97.5,486.6,116.3,486.6L116.3,486.6z"/>
		<path class="st0" d="M137.1,504.9c8.5-1.8,17.3-1.8,25.9,0l-13-24.8L137.1,504.9z"/>
	</g>
	<path class="st0" d="M378.9,580.4c-17.3-7.3-32.9-17.9-46-31.3c-13.1-13.1-24-28.8-31.3-46c-0.3-1-1.3-1.3-2.2-1
		c-0.3,0.3-0.6,0.6-1,1c-7.3,17.3-17.9,32.9-31.3,46c-13.1,13.1-28.8,24-46,31.3c-1,0.3-1.3,1.3-1,2.2c0.3,0.3,0.6,0.6,1,1
		c17.3,7.3,32.9,17.9,46,31.3c13.1,13.1,24,28.8,31.3,46c0.3,1,1.3,1.3,2.2,1c0.3-0.3,0.6-0.6,1-1c15-34.8,42.5-62.3,77.3-77.3
		c1-0.3,1.3-1.3,1-2.2C379.6,581,379.3,580.7,378.9,580.4L378.9,580.4z"/>
	<path class="st0" d="M470,255.2L300.3,424.9L130.7,255.3c-2-2-5.1-2-7.1,0c-2,2-2,5.1,0,7.1L293.2,432L123.5,601.7
		c-2,2-2,5.1,0,7.1s5.1,2,7.1,0l169.7-169.7l169.6,169.6c2,2,5.1,2,7.1,0s2-5.1,0-7.1L307.4,432l169.7-169.7c2-2,2-5.1,0-7.1
		C475.1,253.3,471.9,253.3,470,255.2z"/>
</g>
</svg>
