<?xml version="1.0" encoding="utf-8"?>
<!-- Generator: Adobe Illustrator 24.0.3, SVG Export Plug-In . SVG Version: 6.00 Build 0)  -->
<svg version="1.1" id="Layer_1" xmlns="http://www.w3.org/2000/svg" xmlns:xlink="http://www.w3.org/1999/xlink" x="0px" y="0px"
	 viewBox="0 0 52.3 52.3" style="enable-background:new 0 0 52.3 52.3;" xml:space="preserve">
<style type="text/css">
	.st0{fill:#0065FF;stroke:#EEEEEE;stroke-miterlimit:10;}
</style>
<path class="st0" d="M50.8,25.6c-5.4-2.3-10.3-5.6-14.4-9.8c-4.1-4.1-7.5-9-9.8-14.4c-0.1-0.3-0.4-0.4-0.7-0.3
	c-0.1,0.1-0.2,0.2-0.3,0.3c-2.3,5.4-5.6,10.3-9.8,14.4c-4.1,4.1-9,7.5-14.4,9.8C1.1,25.7,1,26,1.1,26.3c0.1,0.1,0.2,0.2,0.3,0.3
	c5.4,2.3,10.3,5.6,14.4,9.8c4.1,4.1,7.5,9,9.8,14.4c0.1,0.3,0.4,0.4,0.7,0.3c0.1-0.1,0.2-0.2,0.3-0.3c4.7-10.9,13.3-19.5,24.2-24.2
	c0.3-0.1,0.4-0.4,0.3-0.7C51,25.8,50.9,25.7,50.8,25.6L50.8,25.6z"/>
</svg>
