<?xml version="1.0" encoding="utf-8"?>
<!-- Generator: Adobe Illustrator 24.0.3, SVG Export Plug-In . SVG Version: 6.00 Build 0)  -->
<svg version="1.1" id="Layer_1" xmlns="http://www.w3.org/2000/svg" xmlns:xlink="http://www.w3.org/1999/xlink" x="0px" y="0px"
	 viewBox="0 0 600 800" style="enable-background:new 0 0 600 800;" xml:space="preserve">
<style type="text/css">
	.st0{fill:#FFCD00;}
	.st1{fill:#C8102E;}
	.st2{fill:#004C97;}
</style>
<g id="CLUB-13-KING" transform="matrix(1.07145 0 0 1.07009 -1853.18 1167.5)">
	<g id="g5429-3-1-8" transform="matrix(1.01465 0 0 1.02416 3367.12 -1472.46)">
		<g id="layer1-6-4-4-1">
			<g id="KC-7-1-9" transform="translate(-735.7, -760.445)">
				<g id="g4858-5-1-5-4" transform="translate(-1318.2, 540.769)">
				</g>
				<g id="g3440-6-4-8" transform="matrix(0.150867 -0.00311503 0.00311532 0.150835 965.017 1197.84)">
					<g id="g3454-7-1-1" transform="translate(346.104, 401.331)">
						<path id="path3450-5-0-3" class="st0" d="M-9987.2-552.8l-1237-19.5l150.9,300.9c322.1-22.3,603.2,9.2,896.5,24.9
							L-9987.2-552.8z M-10853.5,476.2c-1.3,1.7-51.8,13.6-46.9,25.1c125.2,283.1,179,512.6,227.7,801.9
							c28.1-21.9,72.8-20.1,72.8-20.1c-19.9-107.5,115.3-118.1,113.9-6.1c25.8,6.5,52.4,7.2,75.2,33.8
							c17-314.8,143.6-646.5,294.2-869.3c-167.7,62.4-421.9,229.7-421.9,229.7S-10739.8,583.2-10853.5,476.2z M-9843.2,530.6
							c-225.7,205.6-317.6,768.3-308.7,795.5c-285.1-15.4-378.1,297.4-134.3,472.1c-10.5,32.7-35.2,59-54.5,87.6
							c25.2,15.1,53,18.8,80.8,22.5c20.6,25.5,40.8,54.8,63.7,57.6c25.2-15.2,43.4-37.7,64.5-57.1c26-6,51.8-12.8,76.5-23.5
							c-21.1-30.8-46.2-62-46.3-90.4c218.2-147.2,192.9-353.9,1.2-463.4c36.2-361.6,147.5-569.4,254.8-721.7L-9843.2,530.6z
							 M-11373.3,767.3c-28.4,13.1-44.3,41.8-65.2,64.1c-28,0.7-55.2,9.7-82.2,21.1c0,0,62.3,89.9,58.2,94.6
							c-210.8,131.9-213.2,331-16.2,466.3c28,284-222.1,727.5-234,714.2l-2.3,92.7c175.2-183.7,280.1-520,295.5-792.9
							c342.7-15.7,361.7-346.1,128.6-475.3c-17.8-17,61.2-92.2,61.2-92.2c-19.2-19.7-52-22.6-80.8-25.6
							C-11328.1,812.2-11343.5,790.2-11373.3,767.3z M-9686.6,1048.5c21,38.9,80,71.2,87.8-0.8c-9.1-54.4-44.5-67.1-186.5-46.5
							c-84.2,35.3-72.4-62-114.3-24.6C-10035.2,1097.8-9690.2,1091.3-9686.6,1048.5z M-9769.6,1186.4c-39.7-0.9-49.6,154.2-50,200.8
							c-118.6,179.1,232.4,165.7,84.8-35.1c7-20.2-15.9-59.3-16.9-86.9C-9764,1263.3-9768,1193.1-9769.6,1186.4z M-11826.5,1378.1
							c-4.6,46.8,26.8,190,39.7,185.4c46.4-71.4,42.4-133.4,39.2-204.2C-11636.4,1155.6-12003.6,1232.6-11826.5,1378.1z
							 M-11160.1,1424.9c-22.2,302.7-102.6,598.5-276.2,852.9c146.2-64.5,288.6-148.7,426.1-220.4l313.8,203.3
							c18.6-7.6,31.4-11.3,43.8-23.1c-142.1-217.2-181-526.5-239.1-806.7c-24.6,16.7-70.5,24.4-70.5,24.4
							c-5.3,96.7-107.4,125.9-125.5-0.7L-11160.1,1424.9z M-11932.2,1645.5c-34,1.4-61.2,84.8,34.6,99.3
							c67.6,11,155.1-20.6,197.8-4.3c48.4,80.9,95.8-35.7,29.3-56.3c-71.4-22.1-218.9,28.6-234.2-17.4
							C-11912.6,1651.1-11922.6,1645.1-11932.2,1645.5z M-11382.8,2970l-198.7,334.7l1226.1,17.9l-153.6-326.4
							C-10506.2,2992.8-11045.7,3049.2-11382.8,2970z"/>
						<path class="st1" d="M-10611.6,1402.2l-66.5-14.7c7,172.1,31.6,335.5,118.3,467.9l13.6-365.2
							C-10577.8,1481.9-10603.5,1460.8-10611.6,1402.2z"/>
						<path class="st1" d="M-10220.9-174.6l28.1-45.3c-152-30.7-305.8-52.3-467.5-54.3c-125.8-1.6-256.3,8.6-394.3,35.6l23.4,44.6
							C-10743.1-235.5-10516.8-238.2-10220.9-174.6z"/>
						<path class="st1" d="M-11161.9,2301.1c99.3-212.9,322.7-30.3,356.8,80.2c7.8,5,9.2,3.7,17.6,7.7c1-7.7,18.3-83.6,18.3-83.6
							l-246.2-173.4l-187.6,109.5L-11161.9,2301.1z"/>
						<path class="st1" d="M-11786.6,1235.7l8.1-542.1c0,0-127.6,91.5-186.9,135.8l-14.5,837.9c17.7-6,44.1-28,59.2-35.9
							c-34.3-31.6-24.8-55.1-31.2-78.1c-15.2-24.4-0.5-42.1-2.8-57.2c-1.6-107,18.1-120.6,104.9-128.5
							C-11868.2,1373.7-11911.4,1232.4-11786.6,1235.7z M-11942.4,868.6c6.5-6,16.8-6.1,31.1-0.2c10.4,4.3,11.7,1.5,4.1-8.5
							c-16.6-21.8-0.2-50,24-49.9c3.5,0,7.1,0.6,10.8,1.9c21.1,7.2,28.1,26,16.3,43.5c-9.3,13.7-8.3,14.9,7.6,9.4
							c12.5-4.4,18.8-2.8,28.4,7.1c28.8,29.7-16,77.7-44.1,47.5c-13.9-15-15.4-10.7-6,14.7c3,8.2,8,21,8,21l-42.2-1.5
							c0,0,6.9-16.7,10.1-24.5c7.7-19,8-21.8-7.5-10.1C-11936.7,945.4-11974.6,898.3-11942.4,868.6z M-11876,1143.2
							c3.2,14,11.9,38,11.9,38l-44.1-0.1c0,0,10-24.8,12.4-37.4c1.8-10-2.2-8.6-13,3c-10.5,11.3-19.8,12.3-32.6,3.4
							c-31.7-22-4.8-76.1,28.3-57.1c11.4,6.6,13.1,2.9,4.3-9.2c-15.7-21.6,1.3-45.7,23.8-46.4c0.7,0,1.4,0,2.2,0
							c5.5,0.2,11.2,1.9,16.8,5.2c15.6,9.2,19.6,26.9,9.4,41.9c-5.9,8.7-4.3,14.2,2.4,8.6c9-7.5,28.5-2,35.9,10.2
							c19,31.2-20.2,70.6-44.1,44.5C-11873,1136.3-11877.1,1135.8-11876,1143.2z"/>
						<path class="st1" d="M-10969.2,1336.8c22.4-7.3,70.3,26.5,77,23.8c7.5-108.5-46.6-403.2-121.2-468l0,0
							c-19.5,111.9-5.3,280.4-7.4,364.6C-10975.3,1266.8-10975.4,1297.9-10969.2,1336.8z"/>
						<path class="st1" d="M-10406.7,434.7c-110.8,231.5-293.3,42.8-360.9-68.5c0,0-19.8,42.2-29.9,64.6l247.2,167.3
							c0,0,121.8-82.3,173.7-117.2L-10406.7,434.7z"/>
						<path class="st1" d="M-10192.1,845.7c-6.7-0.1-12.1,5.1-12.3,11.7c-0.1,6.6,5.1,12,11.8,12.2c6.6,0.1,12.1-5.1,12.3-11.7
							C-10180.1,851.3-10185.4,845.9-10192.1,845.7z"/>
						<path class="st1" d="M-10101.9,441.4c-176.8,251.6-300.6,570.5-299.9,990.9c64.9-71.2,144.5-116.1,253.8-107.4
							c20.2-303.6,131.1-571.6,304.9-811.5l-183.3-115.4L-10101.9,441.4z M-10241.8,1187.7c-9.4-15-15.3-11.8-13.3,3.8
							c1.2,15,15.1,46.3,15.1,46.3l-63.5-7c0,0,20.1-32,23.7-40.6c7.5-17.9,3.8-22.8-10.1-8.5c-40.6,35.6-94.8-12.2-68.1-60
							c13.2-23.6,36.7-30.8,61.6-11.3c16.8,11.5,20.5,6.7,5.6-7.1c-27.9-25.8-2.1-75.8,36-71.9c64.8,6.5,51.3,56.4,31.6,76.6
							c-9.4,10.4-7.8,15.2,2.4,9.3c27.8-16,49.2-3.6,57.5,25.1C-10149.2,1191.4-10214.1,1232.1-10241.8,1187.7z M-10195.2,943.3
							c-47-0.3-85-38.6-84.7-85.7c0.3-47,38.7-84.9,85.7-84.6c47,0.3,84.9,38.6,84.6,85.7
							C-10109.8,905.7-10148.2,943.6-10195.2,943.3z M-10017,574.1c-25.2,6.3-26,12.9-3.9,12.3c39.5-1.1,48.9,51.7,20.3,76.9
							c-32.9,28.9-73.6,7.1-76.6-30.1c-1.5-10.5-3.7-10.4-7.3-4.6c-10.3,16.9-11.7,39.2-10.2,59.3l-57.5-37.4
							c21-9.8,33.7-15.8,49.1-31c2-2,3.5-3.5,3.5-4.3c0-1.6-6.5,0.4-18.4,1.4c-35.3,2.9-61.9-20.4-54-53.4
							c6.7-28.1,21.6-40.1,46-40.1c17.4,0,26.8,6.9,35.2,24.7c9.4,20.2,13.3,15.3,7.5-9.7c-6.3-27.1,11.7-47.3,36.1-48.4
							c11.1-0.5,23.5,2.9,35.7,11.3C-9983.6,520.5-9985.8,566.3-10017,574.1z"/>
						<path class="st1" d="M-11382.3,1867.2c-6.6-0.1-12.1,5.1-12.3,11.7c-0.1,6.6,5.1,12,11.8,12.2c6.6,0.1,12.1-5.1,12.3-11.7
							C-11370.4,1872.7-11375.7,1867.3-11382.3,1867.2z"/>
						<path class="st1" d="M-9570,1065.7l-24.9-0.5c-72.9,72.3-49.6,29.2-17.7,86.1c15.8,97-6.3,98.1-4.5,144.3
							c4.2,62.1-54.2,71.2-105.9,80.4c8.3-0.4,77,133.1-56.4,140.7l-9.5,536.5l212.1-149.7l16.1-823.8
							C-9564.1,1075-9567.2,1070.4-9570,1065.7z M-9712.1,1594.1c10.7,9.4,13.4,8.4,8.8-5.1c-4.3-9.8-5.6-20.2-11.4-29.8l42.8,0.9
							c-4.4,10.5-10.1,21.2-13.7,31.6c-3.9,11.3-1.3,12.8,10.3,2c29.9-19.2,61,1.3,53.9,32.5c-4.9,21.6-23.2,31.8-44,22
							c-18.3-8.7-12.4-5-2.2,7.8c12.2,15.3,8.6,32.8-8.1,44c-29.6,19.9-67.5-15-47.6-44.4c11.8-17.5,6.5-15.7-4.1-7.3
							c-15.8,11.1-39-5.5-39-27.9C-9767.4,1588.3-9734.5,1570.8-9712.1,1594.1z M-9659.9,1883c-15.1-7.3-16.2-5.8-6.3,9
							c9.6,14.5,4.8,31.9-11.4,41.8c-31.9,19.5-68.9-21.5-42.1-46.6c7.2-6.7,5-10.1-3.6-5.7c-35.2,18.2-59.9-29.3-29.2-56.2
							c13-11.5,22.8-10.4,43.6,4.6c6.5,4.7,7.8,0,3.3-11.6c-7.6-19.8-11.5-25.1-11.5-25.1l44.9,0.4c0,0-0.7,3.4-7.9,16.3
							c-8.4,15.1-7.5,30.9,1.2,20.4c14.7-17.8,45-12.1,54.5,10.2C-9613.5,1866.4-9636.7,1894.3-9659.9,1883z"/>
						<path class="st1" d="M-10193.7,788.3c-37.7-0.2-68.3,30.1-68.6,67.8c-0.2,37.7,30.1,68.4,67.7,68.7
							c37.7,0.2,68.4-30.2,68.7-67.8C-10125.7,819.2-10156,788.5-10193.7,788.3z M-10193,902.4c-25.5-0.2-46.1-21-45.9-46.6
							c0.2-25.5,20.9-46.1,46.5-46c25.5,0.2,46.1,21,46,46.5C-10146.5,882-10167.4,902.6-10193,902.4z"/>
						<path class="st1" d="M-11382.4,1803.1c-41-0.2-74.5,32.8-74.8,73.8c-0.2,41,32.8,74.5,73.8,74.8c41,0.2,74.5-32.9,74.8-73.9
							C-11308.3,1836.7-11341.4,1803.3-11382.4,1803.1z M-11382.7,1923.1c-25.3-0.2-45.7-20.8-45.5-46.1c0.1-25.3,20.8-45.6,46-45.4
							c25.3,0.1,45.6,20.7,45.4,46C-11336.9,1902.8-11357.4,1923.3-11382.7,1923.1z"/>
						<path class="st1" d="M-11345,2919l-31.7,43.2c-10.7,4.3,474.7,96.9,860.6,21l-25.5-51
							C-10856.2,3005.6-11350,2924.6-11345,2919z"/>
						<path class="st1" d="M-11168.6,1316.1c-53.6,40.7-141.2,132.9-249.4,107.8c-19.6,334.5-134.7,591.3-296,810.8
							c53.4,33.1,112.2,72.7,167,98.5c47.3-23.2,73.7-32.7,120.4-69.5C-11232.3,1976.5-11166,1659.6-11168.6,1316.1z
							 M-11492.6,2189.7c-7.3-10.2-16.3-14.6-12.9-6.3c8.2,20.2,2.4,45.3-12.8,55.4c-12.2,8.1-34.2,10-45.2,4.1
							c-37.7-20.5-38.8-64.5-2-81.1c18.5-8.3,19.3-16.5,1.2-12.4c-37.7,8.6-58.6-37.3-30.9-67.9c29.4-32.5,76.1-24.7,80.3,24.4
							c0.7,8.7,6.8,2.6,9.7-10.7c3.4-9.9,4.9-46.9,4.9-46.9l51.7,26.6c0,0-25.1,19.6-35.1,29.7c-12.8,13.1-12.1,19.3,5,13.3
							c32.6-11.5,64.6,7.4,64.5,41C-11414.4,2203.7-11467.8,2224.2-11492.6,2189.7z M-11384.2,1967.8c-49.9-0.3-90.2-41.1-89.9-91
							c0.3-50,41.1-90.2,91-89.9c49.9,0.3,90.1,41,89.8,91C-11293.6,1927.8-11334.3,1968.1-11384.2,1967.8z M-11266.3,1602.1
							c-19.7-12.5-23.2-8.5-7.7,8.9c30.3,29.3-2.8,69.9-38.9,69.3c-26.1-0.7-42.6-21.8-44.1-44.8c-0.7-14.5,6.8-28.8,19.5-35.6
							c13.2-7.1,4-12-10.4-4.7c-46.9,24-76.6-40.7-40.8-76.5c20.6-20.6,41.9-18.2,62,2.3c14,14.3,19.2,13.2,15.5-3.5
							c-3.7-18.8-15.1-42-15.1-42l59.7,2.6c0,0-14.1,26.7-20.3,41.7c-7.5,18.3-4.2,22.1,9.7,9.6c18.1-16.3,46.4-17.3,60.9-2.1
							C-11177.6,1567.8-11220.2,1631.4-11266.3,1602.1z"/>
						<path class="st2" d="M-9529.2,1114.7c-14.5-13.4-28.4-29.4-39.2-46.4l-2.1,833.6l-217.6,151.8l8-538.4
							c0,0-30.4-15.3-38.4-16.5c-3-0.3-7.1,6.4-1.7,10c7.8,5.2,27,12.6,27,12.6l-6.5,533.6c-177,121.6-396.6,204.3-563.8,269.8
							c-12.7-45.1-144.6-152.5-296.8-81.6c-13.9,4.8-31.1,8.9-42.8,16.7c-57.7,9.3-77.8,70.3-87.8,129.9c-0.3,2.3,4.5,1.9,4.7,2.2
							c0.6,0.9,14.8-57,20.3-67.9c11.5-23.3,25.8-37.1,33.2-39.1c3.4-0.5,6.2,4.8,1.5,13c-9.4,16.3-17.5,51.1-20.1,66.8
							c-2.3,14.5-2.9,26.2-0.2,26.8c0.5,0.5,14.2-43.8,20.4-59.4c15.9-40.7,25.8-57.4,40.5-65.9c15.1-8.7,18.6-7.3,15.5,2.2
							c-23.1,42.8-32.9,75.3-38.2,121.3c-0.9,9.2,3.8,9.5,7.8-5.6c13.2-48.1,31.2-113.2,71-131.9c17-7.2,24.4-6.7,22.5-1.3
							c-48.1,58.3-61.2,123.9-61.1,145.1c0,7.1,2.9,5.8,9.3-9.4c17.1-58.1,41.7-107.3,70.2-131.1c11-9.2,24.2-11.5,35.2-12.7
							c33.2-3.4,34.1,8.8,4.9,25.1c-33.2,18.4-72.7,87.3-78,139.4c-1.8,18.1,4.5,20.1,9.5-3.9c21.6-103.5,112.1-170.3,182.8-137
							c31.8,15,37.2,35,9.5,25.6c-56.2-19.1-119.8,19.7-146.9,75.1c-24.5,50.1-24.5,76.7-9.5,144.8c9.9,62.8,30.2,143.2,21.7,204.3
							c-8,11.8-32.2-5.6-61.2-9.7c-17.4-3.6-38.8-4.9-57.2,1.7c-16.1,5.8-25.1,7.1-27.9-1.5c-0.9-2.8,12.6-16,18.7-23.4
							c4.2-5.1,6.4-11,6.4-11s-8,2.8-15.7,10c-6.6,6.2-20.9,20.8-24.8,21.4c-8.4,1.5-8.5-7.9-1.3-31.9c25.7-93,19.3-94.7-21-114.5
							c-40.1-16.2-27.1-23.7-44.7-39.4c-12.8,9.6,15.3,55.4,48,65.9c26.7,8.6,23.2,22.3,10.6,59.1c-13,51.5-34.8,119.7-24,165.9
							c22.8,97.1,120.9,97.2,196.9,59.7l8.6,24.8c-64,24.4-399.3,39.5-511.9,24.2c-8.1-30.7-8.8-38.5-11.6-74.5
							c0,0,69,32.9,103.7,39.1c43.3,7.7,110.2,9.4,128.2-30.2c5.5-11.6,0.3-21.6-14.8-15.1c-27.8,11.9-75.1,20.2-113.1,17
							c-31.9-2.6-77.1-16.4-96.6-28.6c-9.2-5.8-16.9-17-9.3-30.7c6.5-1.3,14.9,6,19.9,8.7c57,30.3,89.2,38.8,126.3,26.2
							c24.7-8.4,52.3-20,58.4-46.8c-21.5,10.3-41.6,29-64.4,34.7c-45.5,11.4-93.5-8.3-140-39.8c-14.3-12.9-7.5-22,10.1-11.5
							c69.8,37,98.8,61.1,167.3,12.7c15.3-10.9,23.7-9.2,32.4-2.3c34.4,32.1,34.7,14.5,9.7-18.7c-5.7-7.5-10.8-18-14-29.1
							c-2.4-8.2-2.8-16.4-7.4-21.9c-7.8-9.3-22-14-38.3-21.6c-15-7-25.9-5.2-25.9-5.2s5.5,4.8,11.8,8c30.3,15.5,44.8,31.8,7,22.4
							c-34.2-16.1-91.9-8.7-124.9,13.2c-25.8,11.9-37.3,25.1-42.8-3.3c-11.4-59.1,2.5-138.7-12.3-241.8c-2.8-19.6-6.5-32.2-2.4-34.7
							c5.3-3.3,18.2,9.6,34,32.8c7.2,10.6,21.5,30.9,21.5,26.7c1-21.7-32-63.3-59.6-79.9c-15.2-9.1-24.7-50.2-7.4-40.9
							c13.4,6.9,82.6,70.3,95.6,92.7c6,10.4,11.4,3.9,5.1-8.3c-3.8-7.3-19.9-28.9-35.7-45c-28-28.5-31.3-27.2-25.7-32.9
							c11.1-11.1,34,4,74.6,42.3c10.3,13.6,24.2,26,22.6,19.3c4.5-10.4-36.1-55.8-60.4-68.2c-4.5-3-5.1-6-4.6-11.6
							c2.8-21,49.7,10.9,88.4,47.8c14.5,13.8,2.8-11.9-14-29.5c-13.2-13.9-34.5-31.2-49.1-37.3c-14.5-6.3-15.1-19.1-3.5-24.2
							c39.6-0.9,79.6,40.4,103.3,72.7c6.5,8.9,12.6,15.7,5.9-1c-21.5-50.3-67.9-79.3-100.2-85.6c-26.3-5.2-25.2-29-0.5-25.8
							c27.2,3.5,71.4,29.1,108.5,68c10.8,11.3,28.8,36.9,25.3,22c-0.1-4-11.3-20-24.4-35.5c-30.4-31.4-65.8-59.4-103.8-68.3
							c-17.8-5.4-71,3.7-71.1-5.5c0-6.8,5.8-10.8,22.8-16c66-20.5,160.7,37.8,211.3,125.5c3.6,6.3,10.7,9.1,11.2,7.7
							c-23.9-71.3-101.2-137-163.6-149.3c-42.4-7.7-85.6,2.3-106.6,30.5c-23.6,31.8-15.5,75.2,19,72.4c18.1-1.3,16.9-11.6,16.6-11.9
							c-1.2-1.2-11.8,3.5-18.3,2.1c-23.5-5.1-20.2-47.7,14.3-42.8c39.6,5.7,43.9,68.4-0.7,80.6c-41.2,11.3-55.8-7.7-66.5-30.1
							c-15.7-32.8,3-84.8,32.3-104.3c82.1-54.5,183.5-5.3,240.2,51.6c28,28.2,48.3,61.4,60.7,97c3.2,8.3,10.5,7.6,7.3-0.9
							c-77.1-209.7-319.8-238.9-358.7-78.2c-57-93.5-108.4-101-188-62.4c-81.1,31.6-121.3,57.9-196.4,91.3l-166.8-94.1
							c-6.5-167.9,2.7-335.9,6.8-503.7c0.6-3.9-36.6,1.9-98.5,10.3c-164.7,29.4-148.8-58.3-170.2-63.1c-11.4-2.5-10.7,2.4-7.4-307.1
							c1-89.9,2.4-247.9,3.3-351.2s2.2-189.3,3.2-191.1c1-1.8,10.3-9.5,21.1-16.8c40.5-27.5,63.4-44.2,152.2-109.1
							c20.1-14.7,25.1-17.2,25.1-17.2c6.2,186.1-6.8,381.2-5.2,541.1l7.4,0.2l8.2-536.7c-15-4.3,349.3-207.5,548-271.8
							c3.7-1.2,12.9,3.1,12.9,3.1c110.3,141.1,409.1,105.3,436.6-63.2c47.2,104,259.9,308.6,364,69.4c0,0,34.5,70.1,65.2,75.3
							c69,10.6,77-0.1,230.9-70.9c-179.7,260.8-281.6,538.8-300.9,877.6c-23.1-34.9-73.2-34.4-77.5-32c1-32.3-3.9-76.3-52.6-82
							c-49.5-4.8-76.3,60.1-58,88.1c-30.3-13.3-76.8,17.5-76.9,20.5c-3.9,0-40.8,92,65.1,98.9c8.8,43.9,24.8,65.4,58.3,84.1
							l-6.5,356.9l11.6,16.5l8.8-374c54.3-1.3,62.3-63.2,58.6-77.6c24.1,1.5,46.1-2.8,64.8-16.5l5.1,61.1c0,0,13.2-21.2,10.6-32.7
							c-16.4-351,118.2-727.6,289.7-969.9c9.1-10.1,12.1-22.4,16.5-22.4c41-21,67-35.2,67-35.2c66.3,33.6,184.2,113.6,184.2,113.6
							l-8.4,499.5c-1.6-4.6,196.3-18.6,217.8-15.3c-4.9-2.4-17.6-9.8-17.7-20.4l18.3-1168.9l-96.9-66.2c0,0-81.9,51.1-104.8,68.7
							l-11.7,688.1l-171.9-105.5c0,0,3.3-24.3,3.7-32.2c9-79.4-46-125.9-134.6-100.4c-11.8,3.5-20.1,6.6-25.7,1.7
							c-34.7-108.8-45.5-393-45.4-393l256.3-414.5l7.4,0.1c-2.4-11.3-3.9-22.8-4.5-34.6l-1284.1-26.5c3.4,21.8,3.3,43.4,0,64.3
							l205.9,387.3c0,0,12.8,25.7,4.3,52.2c-9.3,28.9-17.1,41.6-25.2,56.3c1-8.4-65.2-18.2-60.8,38.7c3,38.5,51.2,61.3,88,32.1
							c5.8-0.4,5.7,5,4.2,14.4c-3.8,22-28.6,91.4-44.8,95.7c-80.3-68.7-112,53.1-57.4,78.6c31.6,14.8,80.9,4.1,104.6-33.7
							c18.1-29,16.1-24.2,20.9,11.5c1.8,13.3,4.4,28.7,5.7,35.6c4.2,21.7-0.5,25.7-37,34.8c-29.5,10.8-59.2,16.4-89.5,22.3
							c-55.2,7.9-84.2,48.9-86.6,99.4c-0.5,10.9-0.2,16-2.6,19.2c-234.8,83.6-482.3,202.3-746.3,408.2l0.3-14.2
							c-10.6,13.9-22.5,26.3-35.7,37.1l-17.2,833.7c13.7,13.4,25.1,28.8,34,45.5l0.1-5.8c19.9,24.5,30.5,40.5,64.4,53.7
							c0.6,353.1-17.4,1161.7-17.4,1161.7l99,70.4l107.3-73.8c4.2-254.6,6.8-430.2,10.6-665.8l153.2,88.3c0,0,4.6,7,3.2,38.8
							c-12.5,87.7,71.3,146.6,128.5,113c22-8.7,23.8-10.3,28.2-3.3c12.3,19.2,24.9,100.5,26.3,152.2c2,78,19.2,237.1,24.1,238.3
							l-253.5,408c-0.4,15.4-3.3,31.3-8.2,46.9l1308.8,27c-4.5-11.2-8.1-23-10.7-35.2l-3.7-0.1l-217.4-439.5c0,0,3.1-40,9.2-60.3
							c7.3-24.5,9.2-29.9,18.7-30.9c25.1,13.7,53.8-3.2,62.8-22.3c11.2-23.5-9.7-59.8-42.7-68.3c-14.6-3.8-30.7,2.4-47.1,14.4
							c-9.5,7.6-11.6,8.5-13.4,1.6c-3.9-15.4,10.6-56.9,35.7-92.2c14-19.6,17.8-25.3,22-17.6c17.1,31,55.2,25.5,70,8.4
							c17.9-20.6,15.2-68.4-24-81.9c-76.9-26.4-114,50.6-113,50.4l-14.7-93.5c93.6-20.9,147.6-27.9,177.8-55.5
							c23.8-21.8,35.6-60,33.5-94.2c0,0,261-99.8,383.4-162.6c210.9-108.1,398.6-253.6,398.6-253.6l-0.1,8
							c10.1-12.3,21.6-23.4,34.3-33.1L-9529.2,1114.7z M-10603,2727.3c1.9,0.1,4.1,0.4,6.6,1c19.8,5.3,28.8,15,18.7,26.9
							c-6.2,7.4-12.2,10.3-16.1,5.1C-10606.8,2738-10614,2726.4-10603,2727.3z M-10647.3,2723c17.5,1.1,35,17.1,48.4,50.8l-19.4,0.8
							c-16.5-42.1-40.9-48.8-62.6-8.1l-14.9-4.6C-10682.3,2735.8-10664.8,2721.9-10647.3,2723z M-10694.6,2724.2
							c9.9-0.4,8.5,4.1-2.1,18c-9.2,12.1-11.4,13.9-20.3,7.1C-10731.5,2738-10706.6,2724.8-10694.6,2724.2z M-10742.9,2771.7
							c4.8,0.1,16,6.5,24.5,12.6c46.5,33.3,101.9,34.1,137.2,6.4c7.9-6.2,14.6-6.3,14.6-0.2c-5.4,22.6-66.2,50.4-112.9,33
							c-25.7-9.6-46.7-19-63.2-43.5C-10746.4,2773.9-10745.8,2771.7-10742.9,2771.7z M-10605.9,2858.3
							c-58.2,16.1-125.6-4.2-137-43.2c-1.1-6.7-3.4-15.2,1.6-15.7c0.7-0.1,1.6,0,2.6,0.3c67.8,61,123,45.5,165.2,16.4
							c6.2-1.4,6.1,4.1,7.3,14.4C-10564.8,2843.7-10575.9,2850-10605.9,2858.3z M-10916.8,2728.3c5.1-0.5,11.4,2.5,12.4,5.9
							c1.9,8.3-4.7,14-11.9,7c-2.9-2.9-5.4-7.7-5-11.2C-10920.1,2729-10918.5,2728.5-10916.8,2728.3z M-10959.6,2718.9
							c16.2-0.2,31.4,11,39,39.4l-11.5,1.4c-16.5-38.8-52.5-30.8-64.3,4.7l-15.7-2.1C-11002.7,2737.9-10980.4,2719.1-10959.6,2718.9
							z M-11044.8,2738.1c5.7-6.7,29.3-18.5,39.6-19.3c1.5,0.1,2.7,0.3,3.5,0.9c4.2,4.9-9.2,23.8-20.4,34.9
							C-11030.3,2759.7-11049.7,2745-11044.8,2738.1z M-10660,1375c-14.4-19.5-5.3-55.8,15.9-67.9c8.1-4.6,17.5-5.9,25.8-5.6
							c13.9,0.6,24.8,5.8,22.3,8.1c0,0-24.4,23.8-35.1,33.8l35.2,38.3C-10594.2,1386.3-10637.9,1405-10660,1375z M-10586.8,1244
							c11.2-19.9,29-28.2,45.8-27.3c16.8,0.9,32.5,11,39.3,28c3.6,11.8,4.4,25.2,0,36.7c-3.7,9.6-10.2,10.9-10.2,10.9l-33.1-29.5
							l-33.7,29.9C-10578.7,1292.8-10598.5,1272-10586.8,1244z M-10506.1,1345.1c-0.1,21.3-17.4,38.4-38.7,38.3
							s-38.4-17.5-38.3-38.8c0.1-21.3,17.5-38.4,38.8-38.2S-10505.9,1323.9-10506.1,1345.1z M-10545.1,1470.9
							c-31.2,0.9-56.2-33-43.8-66c6.6-8.9,9.4-7.5,9.4-7.5l34.8,32.5l34.8-34.9C-10482.5,1429.3-10507.4,1469.1-10545.1,1470.9z
							 M-10441,1382.7c-15.8,8.3-40.4,12.6-51.5-5.1l33.9-35.4l-37.4-32.8c-1.1-1.2,16-10.2,33.3-10.6c5.8-0.1,11.5,0.7,16.6,3.2
							C-10412.7,1317.9-10407.8,1365.2-10441,1382.7z M-9670.3,986.2l-61.7-2.5l1.9-63.7l61,45.2L-9670.3,986.2z M-9667.8,948.3
							l-61.4-43l0.5-50.3l62.3,44.6L-9667.8,948.3z M-9732.7,831.8l-6.3-52.8l73.5,55.3l-0.1,47.4L-9732.7,831.8z M-9663.5,816.8
							l-77.4-54.2l-2-58.4l79.8,58.5L-9663.5,816.8z M-9726.5,174.9l69.3,51.1l-1.4,46.2l-67.1-50.6L-9726.5,174.9z M-9725.9,306.8
							l67.7,50.7l-1,52.7l-71-49.9C-9728.1,341.9-9726.9,324.3-9725.9,306.8z M-9659.4,428.2l-0.8,48l-75.7-53
							c-1-11.5,0.6-28.9,3.5-46.9L-9659.4,428.2z M-9741.3,688.5l8.8-48.5l68,51.3l0.3,51L-9741.3,688.5z M-9731.1,627.2l2.6-45.8
							l66.3,47.6l0,47.9L-9731.1,627.2z M-9729.5,564.2l-0.5-54.7l68.8,49.7l-0.1,51.9L-9729.5,564.2z M-9730.8,494.4l-2.9-51.7
							l72.1,49.7l0.9,47.6L-9730.8,494.4z M-9725.8,292.5c1.7-17.3,2.4-33.5,3.2-49.9l65.6,49.3l0.1,48L-9725.8,292.5z M-9715-89.1
							l63.8,45.6l-1.4,47.8l-68-47.5L-9715-89.1z M-9714.3-164.1l63.4,44.9l-0.5,55.2l-63.9-44.4L-9714.3-164.1z M-9648.6-186.7
							l-0.7,50.8l-68.2-46.5l-1-53.1C-9718.5-235.5-9671.4-203-9648.6-186.7z M-9720.7-26.6l68.1,49.7l-1,47.5L-9726,18
							L-9720.7-26.6z M-9726.6,36.5l73.7,54.1l-1.7,48.3l-73.7-52.5C-9731.3,65.6-9727.7,51.8-9726.6,36.5z M-9730,102.3l73.6,56.1
							l-0.7,48l-73.1-52.5C-9732.6,132.4-9731,117.1-9730,102.3z M-9743.8-228.4c13.9,47,11.7,147.1,5.2,191.6
							c-9.9,28.8-16.7,158-7.5,224c7.3,52.6,4,139.3-4.8,180.6c-3.4,16.1-2.6,92.2,1.8,162.6c3.3,53.8,1,102.7-6,130.5
							c-5.6,21.9-5.4,100.9-0.2,131.3c7.7,44.7,6.2,187.9,2.2,195.6c-10.4,11.3-90.2,11.3-84.8,7.5l22-1178.1
							C-9816-182.7-9767.8-213.3-9743.8-228.4z M-10269.2,494.7c-67.8,23.2-112.6-26.8-133.6-77.4c-8.5-14.4-35.2-90-42.3-121.4
							c-17.1-152-17.2-332-35.9-473.5l28.4,3.8c0,0,9.9,41.1,19.1,151.7c4.6,54.8,8.2,168.7,11.8,221.1
							c5.6,77.8,38.1,202.8,59.2,234.6c34.4,51.9,106.4,20.3,83.8-40.9c-11.7-31.8-59.7-27.6-53.7,5.2c0,5.8,4.6-4.1,11.7-10.1
							c20.9-7.4,43.7,14.6,31,40.3c-15.8,32.8-60.1,16.7-74.1-25.3c-16.7-50.2,43.7-86.4,87.7-55
							C-10227,382.5-10228.7,468.4-10269.2,494.7z M-10654.3-20.4l10.9-0.6c28.8,45.9,46.6,19.5,64,0.1l8,2.7
							C-10574.2,14.3-10629.7,47.9-10654.3-20.4z M-10652.8,11.7c0.5,6.8-21.9-1.5-21.7-12.3c0.7-5.1,3-9.5,6-9.9
							c1-0.1,2.1,0.2,3.2,1.1C-10658.1-3.9-10653.4,2.1-10652.8,11.7z M-10569.8,6.2c5.1-8.2,8.7-19.1,17.8-20.2
							c3.2,0.1,9.5,2.5,15.4,5c16.2,6.9,15.2,11.7-3,19.4C-10568.7,22.7-10578.8,24.1-10569.8,6.2z M-10672.2-41.7
							c-2.3,1.5-9.5,3-12.3,2.8c-7.9-0.8-8.2-4-4.8-8.2c19.6-21.3,48.5-31.1,73.6-31.5c29.9-0.3,65.5,8,95.3,23.8
							c13.2,7,25.1,11.4,33.6,19.3c6.9,3.8,7.1,19.6,2,20.7c-4.6,0.5-11.9-3.2-22.9-11.2C-10578.5-74.1-10630.2-69.5-10672.2-41.7z
							 M-10272.6,304.4l-27.1,4.9c-30.5-142.5-29.2-310.3-52.5-469.1l30.9,6.2C-10311.4,31.1-10293.3,204.7-10272.6,304.4z
							 M-10307.5-152.3l28.4,5.5c25.6,422.3,46.9,417.3,53.1,434l-31.1,11.9C-10287.9,177.3-10291.2,6.3-10307.5-152.3z
							 M-10345.1,43c3.8,103.9,20,189.5,29.5,270.8l-19.6,6.1c-13.2,5.7-32.8-90.5-38.3-284.9c-1.7-58.8-10.3-125.1-18-198.3
							l25.9,3.3C-10359.1-87-10348-37.3-10345.1,43z M-10387.1,35.6c-0.7,107.8,10.2,221.8,34,296.8l-22.2,22.3
							c-35.3-86.2-35.4-220.9-41.8-312.3c-1.5-102.6-16.2-210.1-17-210.8l29.5,2.5C-10394-104.2-10390.3-34.4-10387.1,35.6z
							 M-10204.4,465.6c-11,6.7-28.2,20.4-33.2,18.3c-2.7-1.7,0.3-6.8,3.8-19.2c13.4-46.1,6.3-82.4-23-117.2
							c-16.3-19.3-22.5-22.8-13.7-26.1c2.3-0.9,5-1.1,7.9-0.9c20.4,1.6,52.5,28.3,61.8,54.1
							C-10190.2,403.7-10188.1,433.4-10204.4,465.6z M-10158.9,440.1c-6.7,6.8-26.8,20.5-27.3,13.9c0.1-5.4,4.1-22.5,5.1-30.8
							c3.9-32.3-10.5-65.4-36.8-91.7c-22-22-24-24.2-2.8-24.2C-10165.9,307.6-10132.7,397-10158.9,440.1z M-10096.3,262.5
							c58.5,2.2,89.7,89.3,58.1,124.7c-9.4,10.5-16.8,13.2-20.9,9.2c-0.9-0.9,0.8-10.5,1.6-21.4c2.6-34.8-4.3-58.8-29.3-85.8
							C-10105.4,268.8-10112.5,262.5-10096.3,262.5z M-10139.2,271.8c9.9-0.1,19.2,3.6,26.8,10.1c38.9,33.9,48.5,63.5,44.1,87.5
							c-2.3,17.5-4,36.8-21.4,47c-3.2,1.4-7.9,2.3-12.3,2.9c14.3-49.5-0.5-94.4-55.5-143.1
							C-10151.4,273.2-10145.2,271.9-10139.2,271.8z M-10152.5,300.5c36.4,25.6,56.3,90.8,32.9,127.2c-2.6,4.5-5.6,7-9.7,9.4
							c-7.7,4.6-12.3,8.4-13.8,5c-1.1-2.6,3.3-13.5,3.8-17.1c17.7-75.2-54.3-127.1-55.8-124.8c1.5-6.3,6.5-8.8,12.6-9.1
							C-10172.1,290.7-10158.6,296.3-10152.5,300.5z M-10186.7,264.5c-5.2,14.1-16.7,12.5-29.3,13.7c-13.3-39-20.6-85.4-25.6-130.7
							c-11-99.6-13.7-192.8-25.3-291.1l33.9,4.2C-10234-138.8-10215.9,206.7-10186.7,264.5z M-11034-193l-191.5-385.3l1241,20.8
							l-237.5,388C-10219.4-190.2-10666.2-262.9-11034-193z M-11052.2,17.8c-29.7,12.3-66.8-16.1-47.8-46.8
							c14.3-23.2,38-15.6,42,9.1l39.1-82.4c0,0,3.3,26.4,3.2,38.1C-11015.8-17.8-11027.6,7.6-11052.2,17.8z M-11074.5,194.3
							c-35.7,15.7-73-8.2-66-42.2c6.5-31.4,51.3-31.8,52.4-2.6c-4.5,7.6,1.5,14.1,4,13.5c11.6-2.9,39.3-26.8,50.9-53.9
							c4.5-10.6,7.4-21.5,10.5-23.9c0.6-0.5,1.2-0.7,1.7-0.7c3.5,0.2,4.7,11.9,5.2,29.1C-11015.1,142.1-11044.9,181.2-11074.5,194.3
							z M-11006.9,12.1c50,18.2,100.3,30.7,149.7,12.6c-5.3,19.9-13.6,22.2-26.8,37c-3.4,3.8-4.5,7.6-4.5,7.6
							c18.3-5.6,54.5-31.2,54.5-31.2s-4.9,24.7-16.4,65.5c-17.2,61-13.2,65.5,45.3,89.8c10.9,4.5,14.9,8.8,18.7,13.5
							c1.8,2.2,11.1,19.8,12,20.4c2.1,1.5,1.9-17.7,0.8-22.6c-2.9-12.9-9.7-22.8-15.7-26.7c-11.3-10.9-28-12.2-38.6-17.3
							c-15.8-7.7-21.9-7.7-18.5-25c2.2-11.4,20.2-88.2,28.5-117.8c25.1-88.7,4.3-138.6-61.1-159.9c-44.3-14.4-82.9-8.4-128.8,14.9
							l-7.7-25.4c119.7-28.7,291.6-32.5,403.3-30.9l0,0l0-0.1c67,1,112.5,3.9,112,4.6c5.9,25.8,7.8,51.5,9.8,77.2
							c0,0-60.3-31.2-91.9-41.8c-48.7-16-126.4-1.1-140.7,26.7c-8.1,15.8-4.3,26.5,29,9.5c54.4-27.9,164-3.5,202.1,28
							c8.8,7.3,8.3,8.8,8.3,17.1c0,12.7,0.7,13.4-16.7,3.6c-91.4-49.2-170.5-45.3-199,16.2c-6.2-2-30.1-6.6-30.1-6.6l25,38.6
							l4.1,39.9c25.3,13.7,32.9,18.1,75.8,39.1c0,0-14-14-29.1-25c-20.3-14.7-3.8-19,9.7-13.2c27.8,7,68.4,15.9,116.2-13
							c14.8-9,48.3-0.2,48.7,4c0,0,3.7,34.9,6.7,107.7c1.4,34.4,4.7,79.4,6.7,97.9c6.1,55.8,8.1,59.1-20.6,31.7
							c-9.7-9.2-25.7-24.4-25.9-23.5c-4.1,17.2,38.5,48.4,48.4,59c14.9,16.1,26.4,56.8,20.2,59.1c-3.9,1.4-44.3-34.3-75.9-66.3
							c-11.9-12-29.6-28.1-30.1-27.6c-6.8,4.3,19.8,35.5,44.7,59c29.1,27.4,32.5,29.8,22.4,33.7c-18.6,7.1-34.9-2.5-78.9-40.4
							c-4.3-3.7-21-16-21.8-15.2c-4.2,5.4,36.2,45.3,45.5,48.8c17.3,6.6,21.9,23.5,8.1,29.8c-9.2,4.2-43-15.2-69.9-39.5
							c-4.8-4.4-18.3-11.9-19.2-10.9c-5.5,3.4,24.6,30.5,53.4,48.6c28.2,17.8,32.7,22.1,25.1,36.3c-7.1,14.6-69.1-20.8-99.7-56.6
							c-6.5-7.6-11.8-11-10.5-8.4c12.9,38.2,57.3,66.2,90.5,77.7c5.9,2.1,14.6,4.7,18.4,7.8c9.4,7.8,7.1,15.6-3.3,19.8
							c-35.9,9.3-91.2-35.1-130.5-81.2c-4.6-2-2,4-0.8,6c32.5,54.3,95.9,96.3,134.8,89.5c22.7-4,40.8,3.2,40.8,10.8
							c0,6.2-12.7,15.9-37,17.1c-55.1,2.8-139.9-59.2-188.7-137c-1.5-2.4-3.4-3.4-3.5-1.9c-1.7,16.2,28.8,56.8,52.3,80.1
							c69.9,69.2,136.8,93.6,190.2,56.5c30.1-22.4,59.8-72,16-89.7c-23.2-9.4-38.7,22.5-18.5,13.7c26.3-2.6,32,11.5,28.3,24.5
							c-7.2,22.4-29.5,25.5-47.5,15.6c-31.2-17.7-23.3-76.2,17.8-85.6c37-8.1,68.5,23.7,72,53.4c5.6,46.1-47.3,94.8-89.1,106.3
							c-142.7,39.3-249.5-160.1-250-164.6c-6.8-13.8-15.2-21.3-21-5.4c-6.3,23-39.7,90.2-56.8,89.4c5.8-23.8,29.1-63.5,24.4-98.9
							c-10.1,28.7-31.3,90-70.2,122.1c-10.1,8.8-39.4,18.9-18.9-3.9c24.8-33.4,57.4-79.2,51.8-122.9c-6.6,9.7-10.6,34.4-18.3,50.6
							c-19.2,40.6-60.2,88.4-86.9,95.7c-19.7,5.4-17.7-1.1,2.8-21.8c21.9-22.1,61.2-87.6,59.3-116.3
							c-0.8-12.6-41.6,108.3-114.3,140.2c-19.6,6.7-30.4-2.5-30.4-2.5c28.6-15.7,108.4-91.2,102.8-178.9c0,0-4.5,12.9-11,32.2
							c-28.2,83-86.3,136.8-130.7,140.4c-35.5,2.9-59.9-11.9-51-18c45.9,1.3,84-13.8,114.4-58c30.9-44.9,43.6-117.8,27-195.5
							C-11000.3,142.1-11002.6,79.3-11006.9,12.1z M-10876.9-0.2c5.7-7.4,6.9-10.7,12-10.7c14.7,5.8,12.8,12.8,2.3,19
							C-10881.3,18-10889.2,15.8-10876.9-0.2z M-10968.1-33.1l10.1,0.5c22.3,57.5,52.4,28.7,65.2,6.1l12.2,2.3
							C-10901.4,51.8-10978.8,10.2-10968.1-33.1z M-10856.9-49.1c-37.7-24.2-87.4-29.1-131.8-0.2c-10.9,1.9-11.9-4.3-0.8-15.8
							c18.5-13.9,40.7-20,62.8-20.3c3.2,0,6.3,0.1,9.5,0.3c15.1,1,29.9,4.5,43.3,10.2c33.7,14.1,45.8,30.8,46.9,38.2
							C-10829-31.4-10832.4-35.2-10856.9-49.1z M-10998.7-4.3c-8.6-9.4,4.1-20.8,13.4-21.5c11.4,1.6,10.7,14.5,14.1,24
							C-10963.7,19.3-10993.7,1-10998.7-4.3z M-10836.6-69.2c-37.9-30.3-81.6-40.5-135-22.5c-11.6,3.9-21.2,10.3-26.3,9.3
							c-4.6-3.1-5.9-10.3-2.2-16.1c12.8-20.4,67.3-24.2,89.5-22.7c44.8,3.1,81.5,24,84.5,53.5
							C-10825.4-61.1-10830.6-64.4-10836.6-69.2z M-11006.1,263.4c11.1-0.1,10.1,17.7,7.7,27c-2,7.5-9.8,0.8-15.8-13.6
							C-11018.7,268.9-11013.7,263.3-11006.1,263.4z M-11042.9,276.7c14.5,0,19.7,13.4,22,24c1.9,9-1.3,35.8-8.8,26.3
							c-1.7-5.7-9.2-24.2-15.4-29.1C-11058.9,286.9-11057.4,276.7-11042.9,276.7z M-11083.9,289.1c2.1,0,4.8,0.3,8.1,0.9
							c22.5,4.3,39,40.6,33.4,60.8c-12.4,21.7-16.5,6.8-20-13.2c-2.9-8.3-11.9-21.4-17.4-28.2
							C-11091.4,295.4-11093.1,289.2-11083.9,289.1z M-11161.9,311.9c10.9-7.9,21.4-12.8,33.1-12.7c33.7,0.1,61.6,40.5,50.2,78
							c-14,39.1-79.4,29.3-67.7-9.7c3.4-11.2,15.6-19.2,27-11.9c16.4,10.6,14.9-6.1,4.5-12.2c-16.1-9.4-38.6-4.4-44,13.9
							c-18.7,63.9,63.4,87.5,109.7,22c16.9-23.9,35.3-49.5,45.4-60.4c9.1-9.8,10.9-8.7,9.2,4.1c-7,59.6-50.1,133.3-128,127.6
							C-11198.2,441.9-11220.2,361-11161.9,311.9z M-11898.1,1759.3l76.2,0.7c-6.4,23.8-8,41.9-9,59.1l-66.8-45.9L-11898.1,1759.3z
							 M-11831.5,1835c-0.2,18.5-2.1,36.1,0.2,54.6l-67-46.5l0.6-53.2L-11831.5,1835z M-11828.2,1909.8c2.4,19.2,7.9,38.6,9.8,55.8
							l-80.2-56.7l-0.3-49.6L-11828.2,1909.8z M-11897,1929.7l81,58.4c1.4,18.4,3.4,34.9,0.5,55.7l-85.3-59L-11897,1929.7z
							 M-11832.3,2161.6l-69.3-44.7l0.4-49.2l72.6,55.7C-11827.5,2124.2-11833.2,2148-11832.3,2161.6z M-11829.6,2233.5l-73.6-50
							l2.7-48.7l67.8,48.7C-11833,2201.3-11832.1,2218.2-11829.6,2233.5z M-11903.2,2203l78.3,58.2l3.2,45.6l-83.1-54.7
							L-11903.2,2203z M-11822,2106.2l-79.2-53.2l1.2-50.9l83.9,58.1C-11816.1,2077.6-11815.6,2094-11822,2106.2z M-11905.3,2265.8
							l83.8,57.2c3.6,17.4,1.5,35.8-1.6,54.4l-83.8-61L-11905.3,2265.8z M-11831.9,2510.8l-75.8-56l0.5-49.5l77.4,52.9
							C-11831.3,2475.7-11831.8,2493.3-11831.9,2510.8z M-11827.3,2532l0.7,49.8l-81.8-60.7l1-49.2L-11827.3,2532z M-11905.3,2335.3
							l80.4,58.2l-3.3,47.7l-80-56.6L-11905.3,2335.3z M-11833.1,2780.6l-79.6-53.7l1.7-48.9l78.6,58.5
							C-11834.1,2758.1-11833.7,2766.7-11833.1,2780.6z M-11909.8,2658.4l-1.6-51l83.6,59.8l-3.7,51.3L-11909.8,2658.4z
							 M-11838.6,2968.7l-75.2-56l-1.2-34.9l77.4,54.8L-11838.6,2968.7z M-11836.5,2913.3l-79.8-56.4l1.4-45.9l82,58.7
							L-11836.5,2913.3z M-11830.3,2853.1l-83.2-57.7l0.4-53.6l80.8,60.6C-11830.1,2823.2-11829.9,2838.9-11830.3,2853.1z
							 M-11825.6,2646.7l-85.4-57.2l0.4-52.6l84.9,61C-11825.6,2597.9-11823.4,2629.7-11825.6,2646.7z M-11803.4,2949.6
							c-8.3,2.9-12.3,3.4-14.1-4.5c-2.2-9.7,2-28,6.1-58.2c3.7-27.9,3.8-29.5-0.1-69.6c-4-41.8-4.5-43.6,0.5-98.5
							c5.7-61.3,7.7-120.9,3.6-157.9c-3.9-35.2-2.2-115.2,2.3-159.8c5.5-54.6,5-102.6-1.3-142.5c-11.3-71-12.9-95.4,1.5-148.4
							c5.4-19.8,8.1-30.4,7.7-63.7c-0.4-37.1-0.8-49.2-12.4-131.6c-6.7-47.4-7.1-53.9,1.6-128.6c1.8-15.1,2.5-25.2,8.3-29.8
							c6.8-5.4,76.9-8.1,76.9-8.1l-15,1157.1C-11737.7,2905.5-11787.5,2939.8-11803.4,2949.6z M-10480.2,2546.4
							c4.1-0.4,7.9-0.4,11.6-0.2c25.8,1.8,41.9,18.3,42.2,36.7c0.8,41.2-48.4,40.6-54.4,8.2c-2.2-15.5-27.6-0.2-44.8,26.8
							c-16.9,26.6-18.7,30.4-21.4,2.4C-10551,2578.5-10507.1,2546.9-10480.2,2546.4z M-11325.7,2272.7
							c10.5-23.2,29.9-39.2,52.8-40.7c7.6-0.5,15.6,0.5,23.8,3.5c75.7,30,144.2,176.6,138.1,364.4c-4.2,130.4,31.3,317.4,30.7,315.2
							c0,0-22.2,2.5-28.3-2.5c-26.8-96.4-34.2-197.7-37.1-281.3c-2.3-69.7-4.9-138-8.9-154.1c-11.4-56.4-23.6-122.1-58.6-165.5
							c-27.3-32.7-59-39-78.8-3.3c-16.2,29.3,15.6,78.9,43.2,63.2c6.7-3.6,10.7-9.8,2.1-9.8c-28.4,3.6-46.6-35.9-28.3-54.2
							c32.2-32.2,85.9,42.1,59.5,81.9c-11.6,17.2-41.2,19.7-64.7,12.8C-11332.2,2375.7-11344.1,2313.3-11325.7,2272.7z
							 M-11272.6,2653.2c-4.4-104.9-5.5-130.8-19.3-183.4c-7.8-29.8-10.8-29.2-4.3-34.8c4.9-4.2,14.2-6.2,18.4-6.1
							c31.9,75.2,35.8,149.4,35.4,239.2c-0.3,85,16.5,184.9,22.7,229c-11.3,0.9-23.2,1.6-27.8-3.5
							C-11265.3,2831.1-11268.8,2727.6-11272.6,2653.2z M-11270.5,2886.5c-10.5-0.4-14.2,3.4-20.8-5.9
							c-22.3-67.2-19.5-135.7-21.8-205.4c-3.5-92.3-11.6-142.4-23.7-188.4c-8-30.6-7.9-31.1,7.8-39.1c2.8-1.4,8.9-2.1,11.4-2
							c27,28.4,30.8,184.7,33.3,218.3C-11278,2846.5-11261.3,2873-11270.5,2886.5z M-11225,2759.8c-2.3-24.1-6.3-100.7-6.3-162.3
							c0-54.4-27.9-172.6-27.9-172.6s12-8.1,22.5-8.1c35.6,53,38.4,175.6,37.4,262.7c-0.9,78.4,22.6,222.7,24.8,222.1
							c-7.6,4.3-17.8,2.5-27.2-1.4C-11210.9,2887.8-11216,2853.2-11225,2759.8z M-11185.5,2648c2.3-94.9-14.4-178.8-25-216.6
							c-11.2-33.5-12.2-11.5,16.5-48.3c35.5,95,32.7,198.1,36.9,295.6c5.6,129.6,26.7,217.2,33.8,232c0,0-36.6-0.3-38.3-5.7
							C-11161.5,2905.1-11192.4,2732.7-11185.5,2648z M-11362.5,2265.5c5.5-7.1,13.3-11.7,20.7-13.3c6.1-1.3,1.7,11.8-4.3,29.5
							c-14.4,42.5,9.6,109.4,44.3,123.3c10.4,7.4,9.8,10.1,2.7,13.9c-23.2,12.4-63.9-27.1-74-70.2
							C-11380.5,2317.4-11377.8,2280.7-11362.5,2265.5z M-11406.6,2283.4c5.8-5.1,10.3-7.8,13.6-7.8c6.3-0.1,3.7,10.4,1.6,29.6
							c-5,44.5,8.2,77.2,39.1,104.8c13,11.6,16.6,15.3,10.8,21.1c-8.3,8.3-31.3-3.5-49.2-22.9
							C-11423.4,2372.7-11433.1,2306.7-11406.6,2283.4z M-11455.6,2481.8c-11,9.9-40.2,0.6-62-18.5c-32.5-28.6-40.4-97.8-13-120.8
							c4.9-4.1,8.4-6.4,10.9-6.3c4.8,0.1,2,8.8,2.3,29.6c0.8,50.5,11.8,75.6,43.2,99.6
							C-11454.3,2480.4-11449.4,2476.1-11455.6,2481.8z M-11418.1,2464.2c-12.5,13.9-53.7-7-70.8-36.2
							c-20.4-34.7-22.4-86.6-2.4-105.7c5.6-5.4,9.7-8.4,12.8-8.5c5.8-0.2,2.3,11.8,2.4,34.7c0.2,48.2,14.6,71.6,49.8,101.7
							C-11414.8,2460-11413.4,2459-11418.1,2464.2z M-11402.8,2448.2c-41.8-13.8-83-105.2-46.5-143.4c5.1-5.4,9.1-8.1,12.1-8.2
							c5.8-0.1,3.3,8.2,3.3,29.5c1.2,54.9,23.6,89.5,52.5,109.2C-11371.7,2446.4-11384.4,2453.9-11402.8,2448.2z M-11384.2,2476.3
							c1.6-4.8,8.4-11.9,18.2-12c3.3,0,6.9,0.8,10.8,2.6c9.3,22.3,26.8,123.3,27.6,210.1c0.7,69,14.3,204.1,17.4,204.9
							c-10.1,0.7-22.1-1.6-26.8-9.3C-11364.4,2739.2-11352.1,2610.6-11384.2,2476.3z M-10342.6,3330.8l-1243-24
							c83.9-129.8,154.4-272.2,240.3-400.2c333.2,82.7,571.2,51.6,804.8,15.4L-10342.6,3330.8z M-10552,2791.1
							c2.7-46.6,24.6-73.3,50.9-73.1c63.8,7.6,41.1,80.6-3.1,59.9c-11.7-9.2-15.3-8.6-29.2,23.4
							C-10551.3,2842.1-10555.3,2838.7-10552,2791.1z M-10548.7,2472.2c-18.9,2.3-23.5,0.3-22.6-11.4c0.7-9.3,2.8-12.9,8.9-15.9
							c0.9-0.4,1.7-0.5,2.4-0.1c2.2,1,4,5,7.8,10C-10543.9,2466.1-10541.6,2471.4-10548.7,2472.2z M-10513.1,2461.9
							c-10.8,10.8-32.7-5.6-34.7-26.1c-1.1-9.3,1.5-16.5,5.5-16.7c2.4-0.1,5.3,2.2,8.3,8.1c1.8,3.6,7.7,11.6,12.9,17.9
							C-10511.3,2457.1-10508.4,2457.2-10513.1,2461.9z M-10480.9,2454.3c-33.1-7.5-45.1-31.7-40.5-58.8c1-5.6,3.4-9.7,6.5-9.1
							c1.8,0.4,3.9,2.5,5.9,7c4.5,18.9,16.5,45.3,33.6,50.7C-10468.6,2446.2-10474.6,2455.7-10480.9,2454.3z M-10479,2422.4
							c-37-38.2,2.5-96,45.8-67.6c21.8,14.4-5.2,45.5-22.7,28.7c-7.9-7.6-11.5-3-6,5.6c16.7,26.1,51.2,5.4,49.2-17.3
							c-3.9-44.7-58.7-45.3-79.7-28.2c-28.7,23.3-54.3,58-73.4,83.2c-15.7,21.9-18.9,21.3-16.1-6.2c7.4-72.5,76.2-116.8,132.9-117.8
							c36.3-0.7,66.6,14,69.1,58.4C-10376.4,2426.3-10437.6,2460.6-10479,2422.4z"/>
						<path class="st2" d="M-10752.3,165c45.6,18.3,83-13.9,72.9-48.8c-3.7-12.6-20.6-26.6-31.2-27.9c-2.2-0.3-4.1-0.4-5.7-0.3
							c-11.4,0.4-9.8,8.2,6.4,14.6c22.8,9.1,24.6,33.5,4.1,44c-24,15.5-62-26-90.6-23.1c-13.7,3.8-22.7,16.4-15.2,32.1
							c5.8,11,26.2,18.1,34.7,11.1C-10769.2,159.3-10766.9,159.1-10752.3,165z"/>
						<path class="st2" d="M-10727.1,310.7c-28,12.9-53.3,17.4-80.3,5c-20-9.2-19.9,0.4-11.3,8.4c24.9,22.1,71.2,13.3,91.2,1.6
							C-10721,321.8-10718.6,310.5-10727.1,310.7z"/>
						<path class="st2" d="M-10849.1,270.7c-8.9-2.1-13.3,2.2-16.9,9.2c-13.9,26.6-10,35.3,16.9,20.6c12.8-7,17.1-4.3,50.7,2.8
							c24,5,40.4,4.9,61.7-0.1c26.5-6.3,42.2-6.5,55.4,1.1c13.2,7.6,22.1,17.8,22.6,9.6c-1.3-9.6-9.1-34.3-10.9-42.5
							c-0.8-3.9-7.5-0.6-13.7-0.3c-21.9,1.1-47.5-19.1-64.6-9c-13.7,8-15.5,10.2-33.8-1.1c-5.1-3.1-9.7-4.4-14-4.6
							c-7.2-0.3-13.8,2.6-21.3,5.1C-10828.2,265.1-10840.1,272.8-10849.1,270.7z"/>
						<path class="st2" d="M-10628.3,171.8c30.5-34.1,72.7,10.2,49.1,37.3c-21.5,24.6-47.1,16-101.1-5.9
							c-39.3-16-45.7-10.9-55.7-0.2c-8.2,8.8-4.5,27,5.9,27c32,8,59.7,15.6,92.8,23.2c70,15.9,114.8-73.8,51.2-108.4
							c-3.8-2.1-8.7-3-13.9-3.1c-15.7-0.1-34.7,7.8-38.7,17.8C-10644.5,168.9-10640.2,186-10628.3,171.8z"/>
						<path class="st2" d="M-11594,901.5c-0.7-3.6-53.3,140.2-53.3,140.2l46.8,34.3l51.1-31.5l-50.5-69.9
							C-11599.9,974.5-11593.4,905.1-11594,901.5z"/>
						<path class="st2" d="M-11123.8,1121.1c-0.3-1.8-26.9,68.6-26.9,68.6l-5.8,86.7l26.1,19.1l51.1-31.5l-50.4-69.9
							C-11129.7,1194.2-11123.1,1124.8-11123.8,1121.1z"/>
						<path class="st2" d="M-11065.7,955.1l-50.5-69.9c0,0,6.6-69.4,5.9-73.1c-0.7-3.6-53.3,140.2-53.3,140.2l46.8,34.3
							L-11065.7,955.1z"/>
						<path class="st2" d="M-10812.8,2579.1c-20.1-4.6-44.2-9.7-63.4-0.8c-38,24.6-16.9,71.5,9.2,77.3c27.5,6.1,29.9-13.2,2.5-19.4
							c-14.6-6.1-18-20.2-12.1-30.8c13.6-21.2,37.5-6.8,51.5,0.2c31,15.5,47.1,21.3,57.1,11.2c15.7-15.7,6.2-42.9-12.1-42
							c-2.6,0.1-5.4,0.8-8.3,2.2C-10794.8,2579.8-10799.5,2582.6-10812.8,2579.1z"/>
						<path class="st2" d="M-10835.6,2528.8c2.4-9.6-0.1-18.7-20.4-19.9c-38.8-2.2-68.3-19.5-95-21c-12.2-0.7-23.8,1.9-35.4,10.7
							c-38.5,29-26.1,82.9,5.3,91.6c8.7,4.6,21.8,2.8,27-0.5c4.8-3,4.9-8.1-4.8-10c-29.2-5.5-45.4-27.3-30.8-48.8
							c14.2-20.9,39.5-16.3,88,5.8C-10859.7,2555.8-10841,2550.5-10835.6,2528.8z"/>
						<path class="st2" d="M-10969.1,1337.7c1.7-53.4-26.1-67.7-49.2-79.1c0,0,3.1-338.9,3.8-349c0,1.5-5.2-36.8-5.8-39.1
							c0,0-5.5-1.6-5.5-1.5l0,0c0.3,34.4-4.8,386.5-5.4,388.8c-43.7,4.1-56.5,33.4-61.2,72.9c-34-3.2-56.5,16.8-57.2,20.1
							c-12.2-17.5-2.3-42.7-11.9-60.9c-32.3,104.7,25,169,76.2,164.1c6.1,101.3,117.1,121.9,115.9-0.8
							C-10834.4,1448.1-10877.5,1323.2-10969.1,1337.7z M-11068.2,1302.7c9.7-18.3,26.4-26.5,42.8-26.6c24-0.1,44.4,17.4,44.6,47.7
							c0.1,12.3-6.5,24.5-6.5,24.5l-39.5-30.4l-31.3,32C-11063.3,1351.6-11081.6,1327.9-11068.2,1302.7z M-10984.9,1398.7
							c-0.1,20.5-16.9,37-37.4,36.9s-37.1-16.9-36.9-37.4c0.1-20.5,16.9-37.1,37.4-36.9
							C-11001.4,1361.4-10984.8,1378.2-10984.9,1398.7z M-11110.6,1439.2c-50.6-10.6-44.4-70-4.8-85c6.3-2.1,11.9-3,17.3-2.9
							c9,0.1,17.2,3.2,26.3,9.1l-35.3,35.4l36.5,41.4C-11070.5,1437.2-11100.1,1441.4-11110.6,1439.2z M-11022.8,1522.8
							c-31.7-1.3-64.9-32.1-34.5-74.1l36.2,30.7l32.2-31.6C-10966.6,1500.6-10994.1,1524-11022.8,1522.8z M-10917.5,1432.2
							c-22,17.9-54.8,2-55.4-0.2l34.7-36.5l-35.3-35.4c-0.3-2.1,16.6-10.4,32.8-10.4c5.4,0,10.7,0.9,15.3,3.3
							C-10901.4,1365.7-10889.8,1409.7-10917.5,1432.2z"/>
						<path class="st2" d="M-11549.9,786.3l-50.5-69.8c0,0,6.6-69.4,5.9-73.1c-0.7-3.6-53.3,140.2-53.3,140.2l46.8,34.3
							L-11549.9,786.3z"/>
						<path class="st2" d="M-11716.8,1354.4c-9.8,0.2-20.7,1.6-32.8,4.2c0,0,5.2,76.7,10.9,103c-4.7,29.8-24.4,49.7-33.7,80.1
							c-4.9,13.5-22.7,31.5-25.7,12.2c-12.1-24,0.6-53.1-9.5-70.2c-7.6-16.1-3.2-25-6.3-41.6c-9.5-13.9-14-20.1-12.1-32.2
							c-0.9-54.2-14.7-43.7-38.8-39.8c-93.4,6.1-94.4,59.8-90.1,128c-14.5,63.6,10.2,49,9.1,60.5c-1.6,18.2,0.8,43.8,6.2,46.7
							c32.5,38.8,33.5,65.3,76.9,59.6c73,7.2,189.5-1.2,216.5-89.9C-11629.6,1461.3-11622,1352.6-11716.8,1354.4z M-11815.6,1515.1
							c-10.8,9.7-29.3,2-28.9-11.9c0.2-8.8,7.5-14.6,15.5-14.8C-11816.2,1487.4-11807.5,1501.8-11815.6,1515.1z M-11818.6,1566.7
							c-32.9,7.8-29.3-29.5-7.6-29C-11807.5,1537.8-11804.5,1562.7-11818.6,1566.7z M-11824.3,1466.4c-3.3,4.6-13.5,6.6-22,4.1
							c-13.9-4.1-15.6-24.2-3.2-30.8c2.7-0.8,5.3-1.3,7.7-1.3C-11824.9,1438-11816.3,1455.2-11824.3,1466.4z M-11853.1,1387.1
							c4.5-0.3,9.1,1,12.4,4c7.4,6.8,7.1,16.2-0.9,22.9c-9.2,7.8-27,3-27.2-11.9C-11867.8,1392.6-11860.6,1387.6-11853.1,1387.1z
							 M-11940.2,1419.4c4-15.6,27.3-25.4,44.2-29.9c2.6-0.6,6-1,9.2-0.7c3.2,0.2,6.3,1.1,8.1,2.9c-2.8,9.7,0.4,19.5,0.8,24.2
							c-6.3,4.3-32.8,11.4-47,18.1C-11934.9,1437.1-11941.8,1427.8-11940.2,1419.4z M-11873.8,1436.6c9.5-1,6.3,19.7,2.5,30.2
							c-3.7,7.5-14.2,7-23.5,7.3c-16.6,0.6-37.9,19.3-46.9,16.1c-3-1.4-4.9-9.3-5.1-14.4
							C-11944.4,1448.3-11898.3,1439.1-11873.8,1436.6z M-11941.9,1514.9c12.9-15.4,59.6-28.8,76.3-28.7c0.7-0.1,1.4-0.1,2,0
							c9,1.8,4,29.5,2.4,30.3c-7.5,2.6-39.7,6.1-53.4,17.2C-11943.8,1555.6-11955.8,1541.6-11941.9,1514.9z M-11925,1601.4
							c-5-1.2-10.8-3.5-12.2-8.6c-5.8-20.5,11.2-40.9,50.1-54.3c8.1-2.8,22.5-4.9,27.4-5.3c13.1,0.3-1.3,20.1,10.1,34.7
							c1.6,7.4-0.9,5-14.5,8.7c-7.5,2-19.2,6.7-31.5,12.6C-11913.6,1597.8-11918.7,1602.6-11925,1601.4z M-11851.3,1646.1
							c-10.9,5.1-52.2-0.3-52.2-11.9c0-7.7,13.9-10,26.7-10l0,0c12.8,0,21.6,0.2,25.7,4.3
							C-11845.9,1633.6-11845.4,1641.9-11851.3,1646.1z M-11660.5,1541.8c-4.3,62.9-59.5,94.3-120.7,107.6c-15,3.4-27.9,3.2-38,2.9
							c-10.9-0.3-17.1-5.5-17.7-14.6c2.9-24.6-22.2-27.6-36.9-26.5c-26,0.5-28.8,3.2-12.3-9.1c18.8-14,61.5-13.3,69.4-4.7
							c17-16.3,34.4-17.9,55.7-19.9c-3-4.7-10.3-23.3-5-35.1c11.4-19.1,30.6-52.9,50.3-65.3c19.7-24.7,3.2-13.7-8.8-13.5
							c-6.8,0.1-6.2-2.1-7.2-6.7c-4.3-19.7-10.4-56.5-10-78.3c0.2-10.5,10.1-12.3,23.9-12.1c13.8,0.1,30.1,3.3,43.2,16.5
							C-11646.3,1411.1-11653.2,1435.3-11660.5,1541.8z"/>
						<path class="st2" d="M-11432.4,528.6c-0.7-3.6-53.3,140.2-53.3,140.2l46.8,34.3l51.1-31.5l-50.5-69.9
							C-11438.3,601.7-11431.7,532.3-11432.4,528.6z"/>
						<path class="st2" d="M-10915.7,259.3c8.4,1.4,21,1.3,35.5-2.6c28.4-7.6,59.9-23.6,61.4-33.3c6.7-44.1-60-5.8-68.8-0.7
							c-21,12.2-43,10.1-53.7-5.1c-24.2-34.3,21.3-72,47.6-30.2c1.7,2.7,4.4,6.5,4.4,6.5s-1.6-16.8-7-25.8
							c-5.1-8.6-14.5-12.7-24.5-13.2c-10-0.5-20.6,2.7-28.2,8.8C-10977.1,187.6-10956,252.7-10915.7,259.3z"/>
						<path class="st2" d="M-11275.3,638.7c-0.7-3.6-53.4,140.2-53.4,140.2l46.8,34.3l51.1-31.5l-50.5-69.9
							C-11281.2,711.7-11274.7,642.3-11275.3,638.7z"/>
						<path class="st2" d="M-9974.8,1840.9c0.7,3.6,53.3-140.2,53.3-140.2l-46.8-34.3l-51.1,31.6l50.5,69.9
							C-9968.9,1767.8-9975.4,1837.2-9974.8,1840.9z"/>
						<path class="st2" d="M-10013.5,1961l50.5,69.8c0,0-6.5,69.4-5.9,73.1c0.7,3.6,53.3-140.2,53.3-140.2l-46.8-34.3L-10013.5,1961
							z"/>
						<path class="st2" d="M-9644.4,1113.8c-5.8-7.2,14.2-13.8,22.2-25.9c-23.6,5.7-35.9-6.4-48.3-22.4
							c-136,3.5-258.2,10.5-257.4,194.8c-21.2,77.8,10.5,148.1,105.8,128.6c21.1-18.1,8-45.3,5.8-58.2c-7.4-35.7,2.5-58.6,5.4-75.2
							c9.1-51.3,47.9-98.4,50.3-17.6c6.8-10,3.7-11.6,14.7-15.5c26.2-8.9,25.7,17.5,20.1,28c-3.5,5.4-8.7,4.8-14,4.1
							c-7.6-1.1-17.4-4.1-17.5-6.9c-2.2,8.3,13.3,24.3,11.5,32.1c-2.2,7.4-3.6,6.8,3.4,2c33.2-22.7,52.6,30,5.4,23
							c23,12.9-12.2,48.6,11.5,67.8c73.2,7.1,128.9-41.6,106.2-77.9C-9590.5,1222.3-9605.7,1146.6-9644.4,1113.8z M-9707.8,1094.9
							c31.7,0,62,15.9,46.6,25.4c-10,6.2-45.6,2.8-55.4-4.4C-9729.3,1106.5-9724.2,1094.9-9707.8,1094.9z M-9758.7,1197
							c-0.5-10.4,9-15.6,14.9-16c6.3-0.3,14.5,5.5,16,13.3C-9727.1,1217.4-9758,1211.6-9758.7,1197z M-9726.7,1157.5
							c-19.9-2.2-18.3-4.2-29.8,2.4c-6.4,3.7-13.5,8.2-18.6,9c-7.7,1.2-21.2,3.9-21.2,3.9c-8.5,38.6-20.5,57.8-36.9,75.9
							c-23.2,25.3-34.9,29.6-7,28.3c10.3,0.8,5.1-4.4,8.7,37.4c1.3,14.7,3.6,31.7,5.7,37.4c6.8,19.2,7.6,28.7-19.9,29.5
							c-68.8,3.8-83.5-63.4-73.6-97.4c4.5-20.4,5.7-40.6,4.8-59.3c2.9-63.7,18.3-80.2,75.7-120.4c17.3-12.1,48-14.1,70.8-13.9
							c6.5-0.2,11.7-0.3,15.8-0.2c12.5,0.3,15.8,2.7,14.7,12.9c4.4,25,10.4,36.8,43,34.8c32.9-3.6,43.3-5.4,9.9,13.7
							C-9701.5,1158.3-9707,1159.7-9726.7,1157.5z M-9720.2,1176.9c0,0,51.5-12.3,62.5-22c7.4-6.4,11.9-14.7,17.6-14.8
							c20.5,4.5,20.9,23.3,15.4,34.7c-12,25.2-89.1,35.9-89.1,35.9C-9714.2,1199.8-9712.5,1189.3-9720.2,1176.9z M-9714.2,1260.7
							c-1.4-1.9,2.5-24.1,4.1-34c26.3,1.3,71.2-21.1,84-28.5c7.4,0.2,11.3,5.7,13.1,16.8c0.8,5.9-1.5,10.8-6.4,17.2
							C-9639.4,1252.9-9694.5,1266.5-9714.2,1260.7z M-9721.7,1354.8c-10.1-6.4-10.5-18.1-4.9-23.2c5.1-4,11.3-5.6,17-5.1
							c9.5,0.8,17.8,7.3,17.8,17.6C-9691.8,1358.9-9708.7,1363.3-9721.7,1354.8z M-9656.5,1349.3c-19.3,4.1-17.5,6.4-26.2-10.9
							c-6.8-13.6-8.7-13.1,2.5-17.1c13.6-4.1,28.1-8.9,43.7-15.1c5.8,0.1,7.2,2.4,8.8,7.8
							C-9623.3,1329.6-9635.6,1344.9-9656.5,1349.3z M-9651.9,1298c-20.3,10.1-37,12.8-44.1,8.8c-3.7-11.8-0.2-22.3,2.4-27
							c13.8-6.7,51.5-18.2,64-21.7C-9607.9,1257.1-9619.6,1281.8-9651.9,1298z"/>
						<path class="st2" d="M-10749.3,2535c5.9,11,24.2,7.5,73.6-11.9c36.9-14.5,48.2-7.6,55.2,15.6c-1.1,34-34,36.8-52.7,32.2
							c-3-0.7-6.4-2.3-6.4-2.3s1.5,7.8,7.9,13.4c36.2,31.7,84.9-26.6,62.5-64c-10.9-21.3-27.1-33.3-47.5-35.1
							c-12.2-1.1-26,1.4-41,7.7C-10744,2507.6-10756.2,2522-10749.3,2535z"/>
						<path class="st2" d="M-10182,2074.8l50.5,69.9c0,0-6.5,69.4-5.9,73.1s53.3-140.2,53.3-140.2l-46.8-34.3L-10182,2074.8z"/>
						<path class="st2" d="M-10832.7,2442.2c-38.4,5.2-40.4,1.3-49-4.3c-6.4-4.2-16.9-12-20.6-11.8c-3.7,0.1-2.7,12.7-0.2,27.9
							c0.2,34.7,5,20.7,17.3,15.4c9.2-0.6,16.7,4.6,33.7,11.2c21.7,8.5,19.7,11.1,35.2,3.9c9.6-4.5,17.1-5.9,21.6-2.1
							c17.6,15,41,7.2,54.2-4.3c10.3-5.1,21.3-2,29.9-1c12.4,1.4,9.3-6.6,11.2-22.3c1.7-13.9-3.7-15.2-18.2-10.8
							c-14.8,4.5-29.5,4.9-42.2,0.7C-10792.4,2434-10816.5,2440-10832.7,2442.2z"/>
						<path class="st2" d="M-10851.9,2422.7c-0.1,2.9,11.2,5.5,29,1.6c19.7-4.3,39.3-3.1,54.3,1.4c16,4.7,17.9-0.4,3.5-7
							c-7-3.2-18.1-10.5-35-10.6S-10851.9,2416.5-10851.9,2422.7z"/>
						<path class="st2" d="M-10494,1476.5l50.4,69.7c-0.2,2.6-5.8,71.7-5.8,71.7l0.1-0.2l-0.2,1.6l38.9-152.6
							c0,0-18.7-13.4-32.3-23.4l-51.1,31.6l0.7,1L-10494,1476.5z"/>
						<path class="st2" d="M-10500.9,1787.5l50.4,69.8c0,0-6.5,69.4-5.9,73.1c0.7,3.6,53.3-140.2,53.3-140.2l-46.8-34.3
							L-10500.9,1787.5z"/>
						<path class="st2" d="M-10339.5,1968.1l50.4,69.9c0,0-6.5,69.4-5.9,73c0.7,3.6,53.3-140.2,53.3-140.2l-46.8-34.3
							L-10339.5,1968.1z"/>
						<path d="M-9758.9,1481.6c-50.2-16.9-49.7-54.2-28.8-81c3.4-4.3-0.9-10.6-4.2-9.2c-44.8,18.7-32.8,88.7,5.2,99.5
							C-9770.8,1495.8-9751,1489.5-9758.9,1481.6z"/>
						<path d="M-10554.4,1840.3c0,0,0-30.5,3.3-105.4c3.6-83.4,4.3-168.6,7.5-252.3c-77-26.3-56.4-88.4-56.4-88.4
							c-46.8,9.2-54,0.1-65.6-8.4l-6.4-79.2c28.4-23.2,45.2-25.1,79.6-16.8c0,0-16-34.7-0.2-62.6c13.3-22.1,47.7-35.5,74.7-19.2
							c33.8,23.2,27.2,67.7,18,80.5c-0.2,0.3-0.5,0.8-0.6,1.2c36.9-15.3,81.3,3.7,91.5,40c7.7-107,19.5-226.7,42.9-319.7
							c43.1-167.8,111.6-343,195.7-480.2c22.2-35.9,44.4-62.9,64.8-98.7c0,0-17.6,9.2-36.1,14c-26.6,6.6-46.7,13-49.7,16
							c-19.7,15.9-45.3,27.4-66.2,36c-73.7,26.9-122-16.5-151-81.9c-18.6,82-95.5,150-205.8,104.5c-62.2-34.6-81.5-56.4-138.4-144.6
							c-4.7-9-17.3-19.5-17.3-19.5c-34.5,122.7-112.2,133.6-206,146.7c-116.2,16.2-190.7-27.6-224.7-92.8c0,0-166.9,59.2-228,94.3
							c124.4,60.2,287.8,191.1,379.2,337.7c32.7,44.8,31.2,34.8,29.2,131.6c-4.5,209.9-5.6,288-5.6,288
							c51.7,8.8,53.8,44.6,50.1,84.5c42-17.5,81.5,5.8,80.6,45.1c-1.8,72.2-72.3,51.1-86.9,42.8c21.8,64.1-5.9,89.9-33.6,92.4
							c-34.1,3.2-72.9-14-60-86.6c-84.8,18.4-87.4-61.6-89.8-131.8c95.4-171-17-313.9-124.3-362.3c0,0,31.9-62.7,71.9-79.7
							c4-1.1-23.1-42.9-70.5-34.9c-21.7,0-16.7,0-36.5-27c-39.3-53.3-58.2-57.2-98.7-2c-17.8,24.3-22,24.9-42.5,24.9
							c-22.6,0-57.5,15.5-65.2,29.8c-1.8,3.3,7,6.8,18.5,20.8c16.5,20.1,42,47.8,37.3,75.3c-89.9,34.4-241.1,190.6-89.8,397.6
							l-112.5-0.9l9.6-725.7l-79.1,41.9l-8.3,568.4l-22.2-7.8c5.5-181.3,6.5-362.5,4.5-543.8l-209.3,146l-8.4,852.4l21.8,5.1
							c13.9,116.5,245.5,40,258.8,50.3l-7,473.6l-10.5,23.3l180.9,103.8l169.7-83.6c0,0,22.7-3.6,31.3-7.9
							c70.4-35.2,122.1-25.9,158.8,28.6c22.7,33.7,26.5,38.7,26.5,38.7c16.1-95.5,101.8-129,183.6-102.3
							c60.2,19.7,141.7,81.7,165.5,156c0,0,4.3,11.2,8.7,16.3l3.4,1.6c-0.2-1.9-3.8-11.2-5.1-15.7
							c-80.9-196.9-319.6-231.7-359.8-73.1l-32.9-48.2l180.5-105.6l240.2,165.3c0,0-12.6,56.1-14.4,80.4l4.2,2
							c2.3-29.4,11.8-63,26.3-87.6c6-10.2,12.8-18.4,20.4-24.5c14.7-8.1,28.2-7,43.2-20.6l-35-27.3l1-85.3l69.4,101.6
							c22.6-4.7,110.7-29.1,162,0.9c5.8,1.9,82.4-18.2,127.6,89c84.5-33.5,178.6-68.6,245.1-100.2
							C-10352.9,2146.8-10576.6,1844.6-10554.4,1840.3z M-10145,452.9l-0.2,26.9l-37.2,56.5l-0.1-60.4L-10145,452.9z
							 M-10611.6,1413.5c-1.8,21.5,10.4,63.6,56.9,78.5c-0.7,60-6.9,336.9-6.9,336.9c-63-110.7-100.5-252.6-105.3-434.7
							C-10658,1401.5-10613.3,1414.9-10611.6,1413.5z M-10661.1,1738.7c17,0.1,30.8,14,30.7,31.1c-0.1,17-14,30.8-31.1,30.7
							c-17-0.1-30.7-14-30.6-31.1C-10692,1752.3-10678.2,1738.6-10661.1,1738.7z M-10671.8,1301.9l-2.9-106.3l67.3,45.7
							c0.7,12.3-3,16.4,3.1,40.8C-10648.7,1277-10671.8,1301.9-10671.8,1301.9z M-10414.5,1301.4l-16.7-14.6l18.1-9.6
							L-10414.5,1301.4z M-10409.9,1256.2l-33.8,24.3l-42.8-3c4.4-20.6-1.3-49.1-0.9-49.4l84.3-52.9L-10409.9,1256.2z
							 M-10398.6,1153.2l-96.4,63.4c-41-39.5-85.7-27.6-107.7,12.4c-24.3-12.9-72.6-47.9-72.6-47.9l-10.5-95.8l134,97.1l166.7-113.3
							L-10398.6,1153.2z M-10379.7,1046.6l-171.1,118.4l-137.2-97.9l-16.5-84.6l151.8,106l194.5-128.7L-10379.7,1046.6z
							 M-10351.4,937.7l-200.8,134.8l-158.8-110.8l-19.6-83.7l182.6,121l223.5-149.3L-10351.4,937.7z M-11012.4,1664.9l149.2,105.3
							c0,0,16.4,53.6,19.6,83.1l-171.8-116l-220.8,139.9l27-88.7L-11012.4,1664.9z M-11204.7,1769.4l17.2-84.2l178.9-111.7
							l126.2,87.2l13.2,90l-147.1-102.2C-11016.3,1648.4-11153.4,1736.6-11204.7,1769.4z M-11014,1753c0,0,122.8,85.8,179.6,125.4
							l30,92.2l-209.2-142.3l-262.9,163.5l33.1-93.5L-11014,1753z M-10769.9,1360.5c-24.7-0.1-44.6-20.3-44.4-45
							c0.2-24.7,20.3-44.7,45-44.5c24.7,0.1,44.6,20.4,44.4,45C-10725.1,1340.8-10745.2,1360.7-10769.9,1360.5z M-10742.3,1449.3
							c-0.1,24.2-19.9,43.7-44.2,43.6s-43.8-19.8-43.6-44.1s20-43.8,44.2-43.6S-10742.2,1425-10742.3,1449.3z M-10315.1,826.7
							l-235.4,154l-189-124l-31-95.5l222.5,150.8l271.7-187L-10315.1,826.7z M-10266.5,702.8l-282.1,194.3l-227.6-154.2l-40.8-98.8
							l265.5,181.2l334.7-223L-10266.5,702.8z M-10720.6,591.2l74.8,49.9l-2.3,99.7l-73.4-46.9L-10720.6,591.2z M-10632.7,650.6
							l73.5,51.6l-1.4,97.3l-73.1-45.4L-10632.7,650.6z M-10541.3,707.5l72.5-45.1l-1.5,89.3l-73,50.8L-10541.3,707.5z
							 M-10195.7,481l-0.5,85.8l-74.1,54.3l-0.2-89.5L-10195.7,481z M-10283.9,537.9l-2.2,90.2l-69.6,49.5l-1.3-89.7L-10283.9,537.9
							z M-10370.7,686.9l-84.1,53.5l-1.2-87.6l81.2-54.1L-10370.7,686.9z M-10768.1,369.1c39.9,83.1,100.9,142.6,161,167.2
							c107.3,37.7,180-30.1,201.4-93.2l20.1,35.7l-166,112.8l-243.6-162.1C-10791,425.9-10767.7,371-10768.1,369.1z M-10821.3,522.7
							l87.6,59.8l-5.8,97l-79.5-53.4l-7.1-20L-10821.3,522.7z M-10872.7,486.6l37,26.7l-3.1,85.1l-54.4-103.9L-10872.7,486.6z
							 M-11138.1,554c7.7-6.8,15.6-9.9,22.6-9.7c10.2,0.3,18.1,7.9,19.8,22c6.3,60.1,52.3,43.8,62.8,62c4,6.2-5.9,11.4-37,8.2
							C-11127.3,631.1-11168,584-11138.1,554z M-11024.2,797.6c-89.4-55.6-25.1-170.6,56.9-170.5c73.9,0.6,129,80.2,147,149.3
							c13.2,45.7,15,62.1,15,134.3c0,73.5,2,86.3,15.6,96.9c8.3,6.6,10.8,4.9,12.2-8.1c3-28.8,37.1-10.3,37.1,20.1
							c0,33.8-37.4,43.9-64.4,17.4c-14.4-14.1-14.5-14-19.7,13.1c-3.4,18.1-27,131.6,26.6,161.1c10.2,1.2,12.8-7,5.4-16.6
							c-14.8-19.4,16-40.8,40.5-28.1c29.6,15.3,25.6,63.4-6.7,79.9c-37,18.9-83.7-4.4-104.8-52.1c-15.5-35-14.4-83.1,3.5-154.1
							c8.2-32.8,12-53.6,14.2-78.8c0.7-8.3,1.9-17.3,2.6-20c1.9-7.7-1.9-8.1-15.1-1.8c-36.1,17.3-74.9,3.7-83.8-29.5
							c-10.7-39.6,34.1-79.4,60.7-54c10.1,9.7,8.7,19-3.8,24.8c-21.5,10.1-14.8,37.8,7.9,32.8c75.2-20.8,11.2-231.8-72.6-248.1
							c-55.4-10.7-100.4,51.7-60.8,86.4c15.5,13.6,31.6,6.8,28.6-12c-4.3-26.3,30.4-22.7,42.7,4.4
							C-10919.5,788.4-10974.2,822.8-11024.2,797.6z M-10903.2,1347.8c-13.7-19.6-60.2-16.2-60.9-16c4.4-21.2-12-64.6-51.4-73.9
							l6.8-352.2c0,0,54.9,112.7,74.2,185.4C-10917.7,1154.3-10896.3,1336.8-10903.2,1347.8z M-10895.5,1015.7
							c-15.7-0.1-28.3-12.8-28.2-28.5s12.8-28.4,28.5-28.3c15.7,0.1,28.3,12.9,28.2,28.6S-10879.8,1015.8-10895.5,1015.7z
							 M-10960.3,1460.6c0,0.1,40.8,4,60.1-21.4l3.8,109.6c-18.4-16.3-65.3-47.1-64.9-47.7L-10960.3,1460.6z M-11135,1452.5
							l-22,14.2l0.5-31.4C-11148.5,1438.9-11141.7,1446.8-11135,1452.5z M-11160.5,1489.3l42.8-26.5l27.2,0l6.7,47.4l-82.1,50.8
							L-11160.5,1489.3z M-11166.7,1579.1l93.5-56.5c0.4,3.5,62.9,46.7,108.5-8.2c0,0,68.8,44,72.3,55c2.2,7,3.8,68.1,3.8,68.1
							l-119.4-78.3l-175.7,103.7C-11180.4,1639.5-11166.7,1579.1-11166.7,1579.1z M-11144.3,1168.6l-194.7-35.5
							c-0.7-67.2,0.7-188.5,0.7-188.5l21.7,8.1l0.9,157.5l168.1,31.5L-11144.3,1168.6z M-11175.8,1196.9
							c-0.1,12.6-10.3,22.6-22.9,22.6c-12.6-0.1-22.6-10.3-22.6-22.9c0.1-12.6,10.3-22.7,22.9-22.6
							C-11185.8,1174.1-11175.7,1184.4-11175.8,1196.9z M-11267.5,1182.9c-0.1,12.6-10.3,22.7-22.9,22.6
							c-12.6-0.1-22.7-10.4-22.6-22.9c0.1-12.6,10.3-22.6,22.9-22.6S-11267.4,1170.3-11267.5,1182.9z M-11286.7,961.9
							c0,0,0.5,119.4,1.1,119.7c42.8,10.4,132.8,29.2,132.8,29.2l4.3,23.7c-37.6-9.7-157.7-31.9-157.7-31.9
							c-2.7-51.9-0.3-147.1-0.3-147.1L-11286.7,961.9z M-11494.8,875.8c-19-21.3-8.1-32.6,35.3-36.4c24.2-2.1,24.7-2.4,36.2-18.5
							c20.1-28.2,33.5-44.9,47-44.7c13.5,0.2,27,17.4,46.3,46.4c11.6,20.7,11.9,17.9,39.4,17.4c28.1,2.6,45,10.4,52.2,19
							c2.7,3.3-4.7,4-22.8,21.6c-18.8,18.3-21.5,25.7-34.2,46.4c-4.6,7.5-14.2,8-18.6,1c-3.5-5.6,6.2-23.6,24.1-44.6
							c25.2-23.3,20-25.8-15.9-22.8c-25.2,2.1-27.9,0.8-37.2-14.7c-27.3-57.3-42.5-55.7-71,0.3c-7.8,15.7-4.8,14.7-37,11.6
							c-25.4-2.5-31.8,3.8-17.8,17.5c22,18.9,29.9,62.5,28.6,61.9l-17.3,1.2c0,0-5.1-9.9-7.3-16.1
							C-11469.2,909.9-11481.4,890.9-11494.8,875.8z M-11379.6,1114.2c-12.6-0.1-22.8-10.3-22.7-22.9s10.4-22.8,23-22.7
							c12.6,0.1,22.6,10.4,22.6,22.9C-11356.8,1104.2-11367,1114.3-11379.6,1114.2z M-11359,1178.6c-0.1,12.6-10.4,22.6-23,22.6
							c-12.6-0.1-22.6-10.3-22.6-22.9c0.1-12.6,10.3-22.8,22.9-22.7C-11369.1,1155.7-11358.9,1166-11359,1178.6z M-11402.3,999.4
							c0.1-12.6,10.3-22.8,22.9-22.7c12.6,0.1,22.8,10.4,22.7,23c-0.1,12.6-10.4,22.6-23,22.6
							C-11392.3,1022.2-11402.4,1012-11402.3,999.4z M-11607.7,1106.1c41.5-8.5,86.7-16.9,132.5-25.5c-0.1-37.5,1.6-119.7,1.6-119.7
							l21.1-6.2c0,0-1.9,95.3-4.5,146.4c0.7-0.4-102.6,14.3-155.1,24L-11607.7,1106.1z M-11613.8,1134.7c0,0,96.9-19,166.9-25.6
							c1.1-51.2,1.8-105,2.7-157.2l20.1-4.4l0.9,183.1c-1.8-0.6-141,16.3-194.4,29.1L-11613.8,1134.7z M-11449.8,1183.5
							c-0.1,12.6-10.3,22.7-22.8,22.6c-12.6-0.1-22.8-10.4-22.7-22.9c0.1-12.6,10.3-22.7,22.9-22.6
							C-11459.8,1160.7-11449.7,1171-11449.8,1183.5z M-11544.7,1193.5c-0.1,12.6-10.3,22.7-22.9,22.6
							c-12.6-0.1-22.8-10.3-22.7-22.9c0.1-12.6,10.4-22.7,23-22.6C-11554.7,1170.7-11544.6,1180.9-11544.7,1193.5z M-11606.6,1247.5
							c145.9-41,300-39.4,444.6,8.8l-5.8,23.9c-133.7-37.4-283.9-42.3-428.2-7.2L-11606.6,1247.5z M-11384.1,1285.7
							c33.5,0,35.8,55.1,5,115.9c-9.3,18.3-13.8,15.9-22.9-12.2C-11424.7,1320.1-11418.8,1285.7-11384.1,1285.7z M-11412.1,1405.6
							c-3.1,8.1-24.2-3.4-39.1-21.5c-30-36.3-41.5-67.5-34.9-84c9.6-13.1,35.8-20.3,44.2-6.7c15.9,25.8,15.2,59.3,24.7,89.5
							C-11413.7,1393.7-11411.5,1403.9-11412.1,1405.6z M-11354.8,1371.9c9.4-25.9,14.9-82.1,47.9-82.9c6.5-0.2,12.7,2.4,17.7,8.3
							c17.5,20.9,3,53.8-45.9,103.8c-11.9,12.2-18,16.8-22.3,16.8C-11369.4,1417.9-11369.3,1415.9-11354.8,1371.9z M-11300.9,1379.6
							c9.2-11.5,21.7-30.3,27.8-41.7c13.5-25.4,27.1-50.8,56.5-33.3c32,19.8-6.2,62.6-79.5,97.2
							C-11327.4,1416.5-11325,1409.6-11300.9,1379.6z M-11565.1,1327.6c-2.2-16.1,10.8-30.2,25.5-29.7c10.3,0.1,20.5,11.3,39.5,39.9
							c13.6,21.4,38.2,43.3,45.1,61.3C-11458.8,1418.9-11558.4,1354.2-11565.1,1327.6z M-11642,1449.1
							c-2.5,39.3,4.9,85.1-14.6,127.5c-30,65.1-122,93.2-170.8,86.4c-10.1-4.4-21.9-8.6-32-4.5c-6.1,2.4-13.6,2-20-1.2
							c-6.2-3-12.3,0.7-18.3-1.7c-7-4.9-18.3-16.1-16.8-24.1c2.5-11.4,1.7-19.8-11.5-23.9c-18.4-5.6-21.9-15.6-15.9-44.8
							c1.3-6.3,2.8-9.1-1.3-12c-13.4-9.4-18.3-26.4-8.9-44c6-10.1,9.9-14,1.6-24.4c-6.4-8-4.4-14.3,4.8-26.1
							c9.7-11.2,11.4-12.4,5.5-22.3c-13.2-22.1,2.6-37.9,21.2-46.5c24.9-9.6,46.6-14.4,72.8-16.9c9.7,0.7,9.1,9.3,14.8,17.6
							c8.3,13.5-4.2,32.6,2.7,39.6c10,4.9,14.4,14.3,13.5,22.2c-0.7,18.5,0.2,24.9,5.1,32.8c5.4,8.7,7.2,24.6,1.7,35.2
							c-4.8,9.5-4.3,8.8,1.7,14.6c5.9,5.7,8.3,33.7,6.2,33.2l25.4-1.8c-2.7,2.8,10.6-52.1,40.4-94.1c-0.9-33.4-13-64.4-11-108.4
							C-11682.7,1340.4-11638.5,1394.6-11642,1449.1z M-11763.1,1471.2c2.4,14,2.2,17.3-1.4,26.6c-2.3,5.9-6.4,19.5-9.6,30.2
							c-9.5,31.5-14.8,40.5-23.3,15.1c-4.3-12.9-8.2-15-4.7-25c4.4-12.5,3.6-22-4.5-34.4c-1.3-2-4.2-6.7-4.5-19.7
							c3.2-29.2-9.9-29.8-12.3-37.4c0.7-11.4-4.1-39.3,3.8-38.4c6.5,0.7,29.9,1.9,41.1-2c4.9-1.7,20.4-4.8,20.4-4.8s2.3,8,4.3,23.5
							c3.3,31.6-1.1,35.8-9,14.1C-11772,1393.6-11772.9,1413.2-11763.1,1471.2z M-11745.2,1265.5c25.9,30.2,12,84.9-25.8,101.6
							c-56.5,25-113.7-32.1-88.7-89.3c10.4-23.7,36.1-36.3,61.3-36.2C-11778.8,1241.7-11758.9,1249.5-11745.2,1265.5z
							 M-11977,1663.3l14.4-832.6l179.9-129.4l-10.8,518.8c-75.3,1.7-120,75.2-65.1,146.6c0,0-9.8,1.1-21.3,2.5
							c-51,5.9-85.7,32.2-79.6,65c1.9,10.1-0.4,20.1-3.4,25.1c-4.8,13.3-3.8,23.6,2,35.3c4.6,9.2,3.7,12.8,0.9,19.5
							c-6.1,14.4-4.9,25.6,1.6,36.8c8.2,8.4,5.8,14.9,4.3,28.1c-1.7,18.5,1.5,26.1,13,33.5c14.9,9.6,20.2,25,3.1,23.4
							C-11946.5,1635.1-11977,1663.3-11977,1663.3z M-11775.5,1736.7c-25.1,3.5-54.6,6.6-79.3,8.1c-63.3,3.8-97.8-16.8-104.9-54.6
							c-4.6-24.1,15.4-41.6,30.4-41.1c9,0.3,17.8,6.5,22.2,20.4c6.2,19.6,18.3,25.5,50.5,25.6c63.4-2.1,130.3-30.4,189.6-6.9
							c28.8,11.3,38.3,54.3,13.7,65c-26.6,11.6-37.7,3.7-46.4-17.2C-11708.1,1727-11718.6,1728.1-11775.5,1736.7z M-11711.6,2134.4
							c130.4-180.6,226.2-403.5,248-716.5l33.1,7c7.4,2.6-7.5,460.9-280.4,786.2L-11711.6,2134.4z M-11452.4,2279.9l-95,49.4
							l-163-93.2c175.6-230.7,283.3-497.1,297.4-808.7c157.7,18.6,241.6-106.2,239.7-106.8
							C-11147.8,1860.1-11432.5,2269-11452.4,2279.9z M-11417.3,2267.5l18.8-44.1l0.3,32L-11417.3,2267.5z M-11383.6,2249.4
							l-0.5-42.7l39.1-65.2l34.5-22.7l2,90.2L-11383.6,2249.4z M-11215.6,2151.1l-74.7,49l-1.6-91.9l78.5-47.9L-11215.6,2151.1z
							 M-11198.6,2142.5l2.2-93.4l78.4-48.9l1.5,87.8L-11198.6,2142.5z M-11100,2075.8l-2.1-86.1l73.8-46.1l-0.5,91.7L-11100,2075.8
							z M-11338.1,2122.5l50.5-104.2l272.8-174c0,0,222.1,152.1,221.6,148.9l42.9,107.3l-260.6-181.2L-11338.1,2122.5z
							 M-10932.8,2087.5l-79-55.5l3.8-90.6l77.4,53.3L-10932.8,2087.5z M-10916.8,2101.2l5.2-95.1l72.8,50.8l1,98.4L-10916.8,2101.2
							z M-10822.7,2166.8l1-98.7l73,52.9l0.6,98.3L-10822.7,2166.8z M-10585.9,2133c-73.4,4.6-122.1-28.3-152-85.6
							c-28-55-29.3-98.4-14-193.6c9.1-56.5,3.6-104.4-12.2-104.4c-8.6,0-15.5,4-17,14.1c-3.2,20.7-5.7,24.5-18.5,16.7
							c-16.3-9.9-24.8-40.9,2.6-61.2c28.1-20.8,63.3,13.3,61.7,19c0.7-1.1,3.6-6.4,7.8-30.6c13.7-78.8-11.4-162.9-44.9-150.2
							c-7.3,2.8-6.5,6.1,2.9,11.7c21.8,12.9,1.7,44.3-26,40.5c-39.2-5.4-47-60.4-11.9-83.9c55.2-28.3,98.6,18.7,109.5,60.4
							c9.8,37.6,5.8,122.1-9.1,179.2c-4.5,17.1-8.2,78.2-8.2,78.2c-2.6,3.2,82.7-67.7,107.7,28c8.6,32.9-29.7,63.2-54.7,53.6
							c-4.9-1.9-3.1-18,1.8-27.5c14.6-28.2-25-43.8-48.2-19c-53.7,57.2-2.7,205.9,79.2,221.9c68,13.3,124.2-53.6,79.5-95
							c-19.6-18.1-52,5.6-37.8,28.5c15.1,24.4-13.8,33.4-35.1,10.7c-37.1-39.7,6.7-97.5,63.6-82.7
							C-10468.1,1984.4-10489.9,2126.9-10585.9,2133z M-10436.9,2193.5c-14.9,14.9-20.3,12.9-32.3-12.5
							c-12.4-26.4-31.7-39-59.9-39.1c-35.6-0.1-11.9-23,25.9-25C-10437.8,2115.5-10405.6,2160-10436.9,2193.5z"/>
						<path d="M-9568.6,1068.1l-14.5,836.3l-203.2,142.1l9.5-521.2c0,0,15.9-2,21.8-2.7c58.8-7,87.5-81.2,49.6-130.8
							c-13.5-17.6-3.7-16.2,25.8-21.2c52.2-3.5,81.8-42.3,67.2-70.6c-6.2-12.2,2.2-10.7,7.9-22c3.8-8.9,3.3-20.1,2-28.9
							c-1.8-11.6,3.1-16.7,6.1-24c4.8-11.5,0.7-24.7-6.8-35.7c-7.9-11.7-5.4-23.9-5.3-31.6c0-17-6.1-19.6-23.8-36.4
							c-13.4-12.7-2.4-15.2,17.9-25.1c31.9-15.6,35.3-73.1-6.2-98.5c-52.2-22.5-134.8-0.9-225.1,6.2c0,0,6.5-328,7.7-497.1
							l-187.2-116.5l-74.2,41.7c0,0-50.3,77.5-67.3,106.8c-88.6,149.3-156.2,312.2-193,474.5c-32.7,134.4-47.2,301.2-46.3,415
							l5.6,6.3c0,0-9.3,15.6-16,28.7c-18.2,35.7-22.9,56.1-22.7,97.9c0.5,96.4,57.1,189.8,139,229c4.6,2.2,10.8,5.1,10.8,5.1
							s-15,38-41.2,64.5c-17.5,17.7-21.2,18.5-15.3,27.4c8.2,12.5,35.2,23.8,69,24c12,0.1,11.9,0,33.5,24.6
							c42.2,48,55.2,47.3,95.7-5.3c12-15.6,18.8-19.3,35.8-19.3c25.1-0.1,71.4-19.4,71.4-28.9c-30.6-14.3-65-85.7-59.3-86.3
							c170.9-86,210.6-270.7,89.9-409.6l118,0.5l-10.9,740c23.4-14.9,76.3-46.8,76.3-46.8l10.2-575.8c8.1,1.7,16.2,7.7,31.9,10.6
							l-6.7,548.3c0,0,153.7-103.7,227-158l12.5-814.1C-9557.9,1083.7-9563.6,1076-9568.6,1068.1z M-9783.4,1008.5
							c127-19.5,161.1-9.8,176.5,29.5c16.4,60.9-49.9,61-61,22.3c-7-25.1-34.3-20.2-125.5-0.5c-78,16.8-126.9,1-125-42.9
							c1.9-45.2,53.5-48.1,62.8-3.4C-9855.6,1013.6-9832.7,1016.2-9783.4,1008.5z M-10098.4,442.2l72.9-40.4
							c0,0,177.6,108.9,176.1,111.8c-62.1,81.5-294.1,406.4-303.9,804.9c-164.7-24.1-235,103.6-243,102.9
							C-10408,933.1-10202.9,588.2-10098.4,442.2z M-10283.2,1402.1c15.2-35.5,52.9-72.1,67.5-73c10-0.6,0.2,22.1-0.9,25.2
							c-10.9,26.3-12.9,60.5-21.2,81.5C-10253.2,1475.1-10300.1,1441.5-10283.2,1402.1z M-10318.4,1436.5
							c-28.5,13-59.8-13.5-42.2-35.6c16.2-20.3,63.1-52.4,92.8-59.9c11.6-2.9,3.3,7-8.4,23.2
							C-10288.9,1381.6-10305.7,1429.1-10318.4,1436.5z M-10215,1393.7c10.3-37.4,20-58.7,28.3-59.3c7.3-0.6,13.1,15.5,22,42.5
							c12,36.5,10.9,64.8-3.1,76.5C-10197.8,1478.6-10227.8,1440.5-10215,1393.7z M-10158.4,1359.6c-6.6-16.8-7.3-27.2-1.6-27.9
							c22.2,4,54.6,35.7,63.7,53.4c17.4,37.8,18.5,61.1,3.3,69.3c-21.6,11.6-48.8-7.3-48.8-34
							C-10141.9,1411.5-10150.4,1380.1-10158.4,1359.6z M-10423.6,1569c62.5,14.4,125.3,29.1,185.3,36.9l-1.4,185l-17.6-1.4
							l0.9-165.3c-58.1-5.4-112.7-19-164-33.4L-10423.6,1569z M-10398.2,1540.4c0.1-13.1,10.7-23.6,23.8-23.6
							c13.1,0.1,23.6,10.8,23.6,23.9c-0.1,13.1-10.8,23.6-23.9,23.6C-10387.8,1564.2-10398.3,1553.5-10398.2,1540.4z M-10307,1556.5
							c0.1-13.1,10.7-23.6,23.8-23.6s23.7,10.7,23.6,23.8c-0.1,13.1-10.9,23.7-24,23.6C-10296.6,1580.3-10307.1,1569.6-10307,1556.5
							z M-10288.1,1653.4c-40.2-4.3-81.3-13-122.7-22.6l-7.5-28.5c51.3,12,102.6,24.4,154,29.8l-0.9,148.8l-23.5-6.8
							L-10288.1,1653.4z M-10064,1878.4c0,0-12.5,22.6-55.5,20.4c-23.5-1.2-24.8,2.4-33.2,18.2c-13.6,19.9-24.6,32.9-33.3,39.3
							c-15.3,11.3-43.2-6.6-65.8-42.4c-8.2-13-11.7-16.1-37.3-16.1c-39.3,0-53.3-11.2-32.5-28.4c18.2-21.3,31.5-44.9,47.9-67.3
							l17.6,2.4c0.7,2.6-14.7,46.1-35.4,63.5c-10.6,11.5,3.8,16,29.2,11.2c16.1-4.5,20.2-2.5,31.6,22.2c23.8,47.3,36.7,45.3,67-1.5
							c10.7-20.9,10.3-23.1,38.4-16.4c30.2,3.7,39.4,0.1,27.2-10.7c-24.7-21.8-37.5-72.4-37.5-72.4l19.9-0.2
							C-10105.1,1830.8-10085.1,1854.4-10064,1878.4z M-10193.9,1628.1c13.1,0.1,23.6,10.8,23.5,23.9c-0.1,13.1-10.7,23.7-23.8,23.6
							c-13.1-0.1-23.6-10.7-23.6-23.8C-10217.7,1638.6-10207,1628-10193.9,1628.1z M-10214.3,1563.8c0.1-13.1,10.7-23.6,23.8-23.6
							c13.1,0.1,23.7,10.8,23.6,23.9c-0.1,13.1-10.8,23.6-23.9,23.6C-10203.8,1587.6-10214.4,1576.9-10214.3,1563.8z
							 M-10197.1,1719.4c13.1,0.1,23.6,10.7,23.6,23.8c-0.1,13.1-10.8,23.7-23.9,23.6c-13.1-0.1-23.6-10.8-23.6-23.9
							S-10210.2,1719.3-10197.1,1719.4z M-9967.4,1636.3c0,0-82.7,10.7-125.4,17.5c-3.8,0.8-5.1,130.9-5.1,130.9l-20.4,2.7
							l0.8-151.9l154.9-19.3L-9967.4,1636.3z M-9960.3,1606.4c0,0-109.1,16.6-166,22.7c-1.7,37.2-4.1,161.6-4.1,161.6l-21.8,3.5
							l3.8-188.3c64.6-5.7,129.1-11.6,191.8-21.2L-9960.3,1606.4z M-10122.4,1560.1c0.1-13.1,10.7-23.7,23.8-23.6
							c13.1,0.1,23.6,10.8,23.6,23.9c-0.1,13.1-10.7,23.7-23.8,23.6C-10111.9,1583.8-10122.4,1573.2-10122.4,1560.1z M-10029.5,1550
							c0.1-13.1,10.7-23.6,23.8-23.6s23.6,10.8,23.6,23.9c-0.1,13.1-10.8,23.6-23.9,23.6
							C-10019.1,1573.8-10029.6,1563.1-10029.5,1550z M-9961.7,1502.6c-152.5,38-303.1,32.5-451.8-18.4l18.5-27.6
							c142.6,45.5,284,47.2,424.3,19L-9961.7,1502.6z M-10015.1,1443.2c-17.9,12.3-36.5,2.1-53.5-31.7c-5.8-11.5-16.3-28.6-23.4-38
							c-12.8-17.1-15.8-25.5-8.4-25.4c4.4,0.1,12.6,3.2,24.5,9.3C-10017.7,1387.3-9989.6,1425.7-10015.1,1443.2z M-10105,1321.7
							l-35-1.9c15.3-291.9,119.1-556.3,293.6-783.3l-1,61.6C-9995.5,798.2-10075.8,1028.5-10105,1321.7z M-9877.6,1382.3
							c-45.7-12.3-58.3-61.6-44.3-121.4c2.3-9.7,1.9-19.1,1.1-26.7c-4.2-41.5,7.4-81,36.8-107.5c49.1-44.3,73.1-50.7,172.5-42.3
							c38.9,3.6,41.8,6.1,41.8,6.1s0.5-18.8,1.8-18.9c13.6,21,25.3,20.7,39.2,18.9c-3.5,1-20,10.3-19.1,13.5
							c0.4,1.6-7.5,27.7,3.7,29c41.9,4.9,19.8,48.1,24.7,54.9c11.1,13.2,19.2,21.6,11.1,37.6c-7.2,14.2-17.1,13.5-9.7,26
							c16.2,25.5-7,30.3-5.3,47.4c1.2,10.4,4.5,24.6,0.6,32.5c-12,24-52.9,37-98.1,38c-6.4,0.2-1.3-10.3-4.2-17
							c-11-7.3-4.7-19-0.8-26.7c3.9-10.3,4-10.3-2.9-15.6c-19-12.4-17.9-17.9-16.2-26.5c4.8-25.5,0.8-28.1-6.8-32
							c-9.8-5.1-8.2-15.8-3.5-29.6c3.2-9.5,1.1-11.9-3.3-20.7c-2.6-5.2-3.4-8-3.4-11.2c1.7-13.2-10.2-13.4-27-0.8
							c-14.5,23.9-20,55.6-29.2,75.5c-7.1,15.3-8.5,31.4-1.2,67.1C-9805,1386.4-9816.7,1395.2-9877.6,1382.3z M-9740,1365.6
							c-2.8-8.1-58.3-8.5-63.2-0.4c-7.9-1.3-16.8-53.7-8.7-60.4c1,0,6.6,9.1,9.5,14.2c7.2,12.8,8.8,12.4,6.8-2.3
							c-8-58.3-1.3-117.4,16-117.4c6.4-0.4,15.7,9.3,10.8,23.5c-6.5,16.1-2.3,21.8,7.8,35.2c8.5,11.3,6.9,12.9,5.5,20
							c-3,46.8,27.6,27.2,13.8,60.9C-9744.7,1346.1-9741.1,1356.8-9740,1365.6z M-9839.6,1441.9c0.2-37.7,31-68,68.7-67.8
							s68.1,30.9,67.8,68.6s-31,68.2-68.7,67.9C-9809.5,1510.5-9839.8,1479.6-9839.6,1441.9z"/>
						<path d="M-11802.5,1272.1c27.8,5.7,35,29.9,32,55.9c-2.8,23.6,5.1,23.4,11.7,14.7c26.8-35.2,5.6-87.7-38.5-91.4
							c-6,0-16.1,2.2-20.7,6.3C-11830.1,1268.3-11818.2,1268.9-11802.5,1272.1z"/>
						<path d="M-10108.4-342.7l59.5-89.1l0.5-14.5l74.6-118.7l-1268.1-27.1c0,0,0,0.1,0,0.1c34.5,62.3,61.5,126.4,92.4,190l5.1,3.4
							l7.4,14.7l0.7,7.1l18.5,31l-0.3,6.6l78,152.5c67.4-23.6,617.7-57.2,819.7,20.5l30.7-49.6l7.1,0.1l54.1-90.6l-0.7-7.7l18-19.7
							L-10108.4-342.7z M-11124.8-381.4l-14-27.7C-11110.8-407-11119.1-383.1-11124.8-381.4z M-10223.4-177.3
							c-329.3-91.7-792.9-27.4-804.4-19.5l-19.6-38.7c291.5-52,580.7-33.7,848.6,15.9C-10198.8-219.6-10217.4-180.5-10223.4-177.3z
							 M-10347.2-361.1c-85.2,110.4-216.7,105.5-273.8-22.2c-56.4,128.3-218.4,128.1-275.2,19.3c-56.2,121.9-180.1,91.4-213.8,13.7
							c113.9,86.1,191.9,0.3,206.4-36.7c0,0-2.6-4.4-6.2-8.1c-14.5-14.8-13.7-31.9,1.7-38.4c19.8-8.3,37.8,11,27.4,29.3
							c-2.9,5.1-5.5,6.2-3.7,10.7c34.2,84.6,211,112.6,249.3-4.3c1.4-6.7,0.8-12.9-2.2-18.1c-8.1-14.2,2.9-29.9,16.8-30.2
							c3.2-0.1,6.6,0.7,10,2.4c10.3,5.5,12,14.8,5.4,28.3c-2.3,4.7-5.7,10.2-5.2,15.3c70.5,136.6,233.2,79.6,249.7,17.1
							c1-4-0.7-8.4-2.7-12.7c-6-10.5-5-18.9,3.2-25.8c17.5-14.7,41.8,3.6,31.4,23.7c-2.7,5.3-5.6,11.1-3.8,18.3
							c39.5,95,121.9,103.8,192,67.9C-10173.7-254.9-10298.1-222.4-10347.2-361.1z M-10153-326.4c-29.9,25.1-57.5-4.5-79.3-24.7
							c-21.9,5-67.5,20-92.2-27.7c0,0,10.6,6,21.2,12.5c60.2,19.7,66.8-62,22-76.4c-5.7-1.6-16.3-2.4-16.3-2.4
							c16.5-62.6-80.4-86.6-83.8-11c0,0-11.5-2.1-20.3-0.7c-51.8,8.3-41.5,84.7,11.3,82.1c7.3-0.3,13.7,1.1,13.7,1.1
							c-1.1,12.2-65.4,34.1-110.5-8.7c-22.2,16.2-57.1,36.3-101.2-6.1c29.6-0.6,58.2-8.4,58.5-42c0.2-21.8-19-41.7-47.3-43.4
							c-1.1-24.4-18.8-48.1-42.4-50.4c-28.8,1.1-44,24-44.8,48.6c-24.5,2-47.9,23.1-43.2,48c6.5,33.9,32.4,38.6,62.3,32.8
							c-37.3,57.4-95.5,25.8-113.3,6.9c-22,19.7-60.2,46.2-105.9,8c24.8-3.7,52.6-17.7,48.7-52.2c-3.1-27.3-33.4-36-46.7-34.8
							c0.3-18-12.6-47.9-44.7-45.5c-35,2.6-33.8,46.8-33.4,47.2c-28.8-3-50.5,30.5-42.7,52.4c9.5,26.6,30.3,35.2,69,28.9
							c-45.8,41.3-74,24.3-98.4,14.9c-22.2,22.3-51.3,29.1-80.7,8.3c66.4,4.5,58.3-113.3-21.5-72.3
							c-54.7-67.2-54.3-37.8-102.6-135.9l1219.3,19.8c0,0-39.1,71.5-59.1,100.4c-15.4-12.7-61.1-5.2-59.3,42.8
							C-10190.2-435.6-10209.9-347.5-10153-326.4z M-10101.1-372.8c0.2,0.5-17.9,30.8-17.9,30.8
							C-10127.9-356.9-10125.1-375.2-10101.1-372.8z"/>
						<path d="M-10384.2,3224.5l-50.1-112.4l-16.6-19.6c0,0-10-20.3-17.3-42.1c-6.8-20-36.3-75.1-36.3-75.1l-4.3,0.3l-28.6-59.1
							c-309.8,59.6-605,30.2-816.3-13.4l-100.4,163.7l-6.7-0.4l-25.9,42.4l2.6,5c0,0-83.8,153-118.7,201
							c396.4,4.4,1266.4,20.4,1266.4,20.4l-50.8-107.7L-10384.2,3224.5z M-10452.5,3127.2l7.5,16.6
							C-10453.4,3140.2-10454.4,3136.6-10452.5,3127.2z M-11368.8,2957l25.8-33.9c4,3.3,393.4,85.1,800.2,17.8l21.4,37.5
							C-10877.7,3052.7-11389.2,2964.2-11368.8,2957z M-11337.7,2996.2c35.8-0.5,71.6,19.4,95.4,52c7.6,10.4,19.7,40.7,19.7,40.7
							s17.7-28,34.8-41.8c25.8-20.9,59.1-38.2,106.7-35.5c43.8,2.5,91.6,27.2,133.8,96.7c11.8-39.4,158.7-171,273.9-0.7
							c14.5-44.3,79.9-132.1,181.4-67.7c6.7,15.2,13.6,31.9,13.6,31.9c-59.8-43.8-160.5-17.3-185.5,48.6c-2.3,8,0.3,12.3,3.3,20.2
							c30.4,45.4-51,42.6-26.2,6.9c4.7-8.1,5.2-14.9-1.8-25.8c-18.5-29-75.2-65.8-117.4-65.8c-48.7,0.1-103.3,31.2-121.9,60.2
							c-6.9,10.7-8.6,21.5-3,31.1c4,9.6,2.4,17.6-4.8,23.3c-17,13.4-37.8-2.9-29.3-23.1c5.5-8.9,4.9-19.9-5.7-35.3
							c-21.2-31.1-71.4-64.4-115.7-64.4c-63.4,0.2-128.4,44.5-125.1,82.2c1.4,16.6-3.2,22.6-16.7,20.4c-16.3-2.6-17.9-18.2-6-30.6
							c1.8-4,4.8-13.8-0.4-21c-65.1-92-165.9-67.6-189.3-47.8C-11400.8,3013.1-11369.3,2996.7-11337.7,2996.2z M-11446.5,3090.3
							c7.6,12.9,0.8,21-12.8,21C-11459.2,3111.4-11450.1,3098.7-11446.5,3090.3z M-10364.2,3317l-1208.8-17l69.1-115.9
							c6.7,2.3,45.2,6.6,54.4-38.5c78.9,26.8,86.1-65.6,27.1-81.4c7.3-4.8,15.5-6.6,23.8-6.4c25.1,0.7,51.8,20.3,60,35.3
							c6.3-6.3,63.7-32.2,90.6,7.1c-72.2-6.9-74.7,69.8-21.4,78.3c-25.9,73.6,83.3,80.3,77.8,10.6c81.4,13.8,73.5-90-3.6-80.7
							c40.9-28.5,68.1-18.5,115.8,16.2c16.7-20.8,83.5-39.3,99-1.9c-76-6.3-64.8,82.1-8,84c-18.1,60.7,93.1,85.5,77.8-6.1
							c70.8,6.4,62.5-89.6-5.6-83.1c5.4-17.3,74.5-23.4,104.3,10.5c28.5-25,59.8-41.9,114.9-4.1c-75.9-14.3-78.9,84.6-8,80.1
							c-8,65.4,92,68.5,76.9-7.5c76.5-19,36.4-101.3-20-80.1c25.5-29.1,67.5-14.2,84.1-7.9c53-58.2,97.2-7.7,97.2-7.7
							c-90-11.3-73,117.7,15.8,72.9c-0.6,26.4,10.2,49.6,46,54.1L-10364.2,3317z"/>
					</g>
				</g>
			</g>
		</g>
		<g id="printing-marks-4-9-1-6">
		</g>
	</g>
</g>
</svg>
