<?xml version="1.0" encoding="utf-8"?>
<!-- Generator: Adobe Illustrator 24.0.3, SVG Export Plug-In . SVG Version: 6.00 Build 0)  -->
<svg version="1.1" id="Layer_1" xmlns="http://www.w3.org/2000/svg" xmlns:xlink="http://www.w3.org/1999/xlink" x="0px" y="0px"
	 viewBox="0 0 452.3 603.2" style="enable-background:new 0 0 452.3 603.2;" xml:space="preserve">
<style type="text/css">
	.st0{display:none;fill:#FFFFFF;}
	.st1{display:none;fill:#004C97;}
	.st2{fill:#FFCD00;}
	.st3{fill:#C8102E;}
</style>
<g id="SPADE-13-KING" transform="matrix(1.07145 0 0 1.07009 -1853.18 1127.62)">
	<path class="st0" d="M2109.8-1145.6h-476c-13.9,0-25.2,11.3-25.2,25.2v685.9c0,13.9,11.3,25.2,25.2,25.2h476
		c13.9,0,25.2-11.3,25.2-25.2v-685.9C2135-1134.3,2123.7-1145.6,2109.8-1145.6z M1700.4-623.9c-17.6-1.3-30.6-13.4-31.4-31.4
		c-0.3-7.8,3.8-16.8,9.2-22.2c0.7-0.7,1.6-1.5,2.4-2.2c-0.9-2.9-1.5-5.9-1.7-9c-0.2-5.6,1.2-10.8,3.8-15.2c-2-1.5-3.8-3.2-5.6-5
		c-9.1-9.5-13.8-20.5-14.2-33.7c-0.2-7.9-0.4-15.7-1.3-23.5c-0.8-6-1.7-11.9-2.4-17.9c-0.9-6.9-1.6-13.8-1.3-20.8
		c0.3-8.5,1.6-17,2.9-25.4c1.8-11.3,4.3-22.5,6.1-33.7c0.3-2.8,0.5-5.5,0.7-8.3c0.8-14.5,9.6-25.9,22.6-29.9
		c-4.8-16,7.9-32.4,22.5-37.1c7.5-2.4,17.5-0.8,24.2,3.2c7.4,4.4,11.5,10.9,14.4,18.8c4.6,12.1,5.7,25.3,10.1,37.4
		c2.6,5.6,5.5,11,8.3,16.5c3.7,7.2,6.8,14.7,9.8,22.1c3.3,7.4,7.1,14.5,10.4,21.9c5.4,12.4,8.7,23.3,10.1,36.8
		c1.2,12.3-0.1,24.2-2.9,35.8c0,0.4,0,0.8,0,1.3c-0.2,20.6-7.2,40.7-20.4,56.4c-0.2,0.4-0.3,0.9-0.5,1.3
		c-5.7,15.7-14.4,30-26.2,41.9C1737.2-633.1,1719.1-622.6,1700.4-623.9z M1985.5-469.2c-5,14.6-16.9,26-32.2,29.1
		c-12.1,2.4-23.8,1.1-35.8-1.5c-13.4-3-26.4-8.7-39.9-11.5c-3.8-0.2-7.7,0-11.5-0.1c-6.4-0.1-12.9-0.3-19.3-0.5
		c-11.7-0.3-23.6-1.1-35.3-0.1c-21.8,3.7-43.8,11-66,8.9c-10.2-0.9-18.3-4.1-24.7-12.4c-6.3-8.2-7.7-17.3-5.6-27.4
		c3.4-16.2,14.9-30.3,25.8-42.3c8.3-9.2,17.7-17.4,25.7-26.9c10.1-12,29.7-11.3,41.2-2.5c0.6,0.5,1.2,1,1.8,1.5
		c32.4-0.3,64.4-5.9,96.4,2.1c16.4,4.1,32.6,11.3,46.7,20.6C1973.4-518.6,1994.7-496,1985.5-469.2z M2110.2-727.6
		c-4.1,10.5-10.5,18.8-21.9,22c-3.4,0.9-7.3,1.3-11.1,1c0.5,1.5,0.9,2.9,1.2,4.5c3.3,15.8-0.1,32.2-11.9,43.8
		c-5.8,5.7-13.6,9.4-21.4,11.6c-2.1,0.6-4.3,1-6.5,1.6c-4.4,2.7-8.5,5.9-13.1,8.3c-14.5,7.7-34.8,4.2-42.9-11.3
		c-5.1-9.6-7.1-19.8-6.3-30.6c0.4-5.1,0.8-10.1,0.6-15.2c-2.2-9.8-6.5-19-8.6-28.9c-2.5-11.8-3.8-24.1-4-36.2
		c-0.3-0.1-0.6-0.1-0.9-0.2c-7.5-1.7-14.9-7.9-18.8-14.5c-4.5-7.7-4.7-15.7-3.2-24.2c2.4-13.3,4.1-26.8,8-39.8
		c4.8-15.8,12.3-29.2,22.3-42.2c17.6-22.8,40.4-45.9,69.6-52.1c17.2-3.6,33.1,4.9,38.6,22c5,15.5-5.8,35.3-21.9,38.7
		c-2.1,0.5-4.2,1-6.2,1.7c-3.3,1.7-6.5,3.7-9.6,5.8c-1.4,1.2-2.7,2.3-4,3.5c3.5-0.2,7.1,0.1,10.2,1c7,1.9,15.5,7.7,18.8,14.5
		c5.6,11.6,9.7,23.6,13,36c0.5,2,1,4,1.6,6c1.4,1.7,2.8,3.4,4.1,5.1c6.9,8.9,12.4,17.9,16.5,28.4c1.2,3.1,2,6.3,2.4,9.4
		C2110.5-748.7,2114.3-738.3,2110.2-727.6z"/>
	<path id="path4096-2-4-0" class="st1" d="M1678.4-1089.1h386.7v623.3h-386.7V-1089.1z M1952.9-469.8
		c-14.4-26.2-37.1-68.9-37.8-69.3c-8.4,4.5-94.1,16-135.3,4.9c-14.1,21.3-27.9,42.4-40.2,63.5L1952.9-469.8z M1821.3-548.2
		c-2.2,0.1-4.6,1.4-4.1,0.2c0.3-0.7,0.9-7.4,1.1-9.8c0.6-1.1,1.6,1.7,1.4,4.3c-0.1,1.5,0.7,0.4,5.5,0.7c5.3,0.3,9.6,1.3,11.4,1.7
		c6.2,1.4,18.3,0.4,23.5-3.4c2.8-2,3.9,0.2,1,2.4c-13,9.9-23.4,6.1-34.7,4.5C1824.2-548.1,1823.3-548.3,1821.3-548.2L1821.3-548.2z
		 M1826.8-557.6c-0.8-0.5-1.3-0.6-2.4-0.1c-4,1.9-3-0.8-0.1-3.5c1.3-1.2,1.3-1.9,0.3-3.2c-0.5-0.7-1.3-0.7-1.2-1.7
		c0.9-4.3,6.8-10.7,13.5-13.6c2.8-1.2,3.2,0.1-0.3,2.2c-5.4,3.2-7.1,5.9-4.1,4.8c5.9-2.1,11.3-0.6,18.8,3.2c2.2,1.1,3.1,1.3,5,1.1
		c1.4-1.1,2.6,0.2,3.4,0.9c0.5,0.4,0.6,0.6,1.2,0.5c4.3-1,1.7,1.7-4.2,6C1846.4-553.6,1834.9-550.1,1826.8-557.6L1826.8-557.6z
		 M1843-555.8c4.3-1.3,9.5-4,12.8-6.8c3.9-3.4,1.7-2.9-2.8-0.8c-6.5,3.1-11,4-18.3,3.9c-6.1-0.1-5.9-0.4-6.2,0.4
		C1827.7-556.4,1836.1-553.7,1843-555.8L1843-555.8z M1831.1-566.3c0.3-1.2,0.6-2.7,0.3-3.2c-0.6-0.9-1.8-0.2-3.3,1.7
		c-1,1.2-0.8,1.4,0.1,2.3c0.5,0.3,0.8,0.6,1.1,0.7C1830.6-564.1,1830.8-565.4,1831.1-566.3L1831.1-566.3z M1833.8-564.7
		c1.9-6.4,6.1-6.3,9.1-0.1l2.1,0c-4.4-12-12.8-5.9-13.1,0C1832.9-564.5,1833.8-564.7,1833.8-564.7L1833.8-564.7z M1849.5-565.8
		c2-1.1,1.7-1.9-0.8-3.2c-1.8-0.9-2.8-1.1-3.1-0.5c0,1.3,0.1,3.2,0.8,4.3C1847.2-564.7,1848.3-565.2,1849.5-565.8z M1821.7-584.1
		c-0.4-0.6-0.3-1.7,1.1-2.3c8.5-4,2.3-12.3-4.3-6c-2.1,1.7-5.2,2.5-7.6,1.5c-2.3-1-2.3-3.8,0.7-4.3c1-0.2,3.5-0.7,4.4-1.4
		c11.4-6.1,17.5,7.2,9.4,11.7C1823.7-584.1,1822-583.5,1821.7-584.1L1821.7-584.1z M1789.6-596.2c-4.7-2.1-5.3-9.5-0.9-12.3
		c2.8-1.9,5.6-2.4,13.2,1.4c5.4,2.7,8.5-0.2,8.3,2.9c-0.1,1.9-0.2,3.8-3.3,4.3c-5.1,0.7-8.6-6.2-15.1-5.5c-4.7,0.5-4.1,6.1-0.7,7.3
		C1795.6-596.7,1792.9-594.9,1789.6-596.2L1789.6-596.2z M1874.6-595.1c-0.6,0-0.9-1.7-0.5-2.5c2.3-5.5,4.5-9.9,6.6-15.1
		c1.7-4.1,2.8-5.9,3.6-5.9c0.8,0,1.1,0.6-0.2,3.2c-1.8,4.6-7.9,17.6-8.9,20C1875.1-595.1,1874.9-595.1,1874.6-595.1L1874.6-595.1z
		 M1836.9-596.6c-2.1-1.5-1.7-3.6,0.6-2c3,2.1,7.9-1.8,6.9-5.4c-1.2-4.4-7.1-5.5-12-1.5c-7.7,6.2-16.2,6.6-16.2,1.7
		c0-1.4-0.2-1.7,3-1.9c3.7-0.2,8-2,10.1-3.3c9.4-5.8,19.4-1.8,17.3,7.8C1845.7-596.7,1840.2-594.5,1836.9-596.6z M1802.3-610.8
		c-0.8,0-2.2,0.8-2.6,0.5c-0.8-0.6-0.7-2.3-1.3-4.1c-1.1-3.2,0-2.2,2-1.3c2.7,1.1,5.3,0.9,7.6,0c2.4-0.8,5.5-0.6,10.5,0
		c4,0.5,6.3,0.4,9.9-0.7c4-1.2,2.9-0.8,2.2,1.7c-0.4,1.6-1,3.8-1.5,4.3c-2.7-1.5-4.8-0.9-6.6,0.1c-2.9,1.3-5.1,1.5-7.5,0.8
		c-2.3-1.3-3.6-1.2-5.4-0.1C1806.6-608.1,1805.2-610.6,1802.3-610.8L1802.3-610.8z M1861.4-617.5c0.6-1,1.4-2.3,2.1-3.8
		c6.1-12.2,6.5-15.6,2.2-19.7c-5.8-5.5-10.7-3.1-16.3,7.9c-1.3,2.7-2.2,4.7-2.7,5.5c-0.6,1-1.4,0.2-1.7-0.2
		c-0.7-0.7,5.5-12.4,7.9-15c6.3-6.7,18.1-1.3,17.3,7.8c-0.4,4.6-1.2,7.1-5.4,15.5c-1,2.1-1.9,3.8-2.5,4.7
		C1860.4-613.5,1860.8-616.5,1861.4-617.5L1861.4-617.5z M1803.7-618c1-4.3,14.8-6.3,18.5-0.7c0.4,0.6,0.2,0.5-1.4,0.1
		c-7.1-2.3-8.4-2.2-15.2,0.5C1804.6-617.7,1803.9-617.5,1803.7-618L1803.7-618z M1856.6-618.8c0-0.4,0.5-2,1.3-3.6
		c4.6-9.2,5.9-11.4,4.5-13.1c-2.8-3.3-6.4-0.4-9.8,9.1c-1.3,3.6-2.1,2.8-2.8,2.2c-1.2-1.1,4.1-12.2,6.6-13.9
		c5.7-3.7,10.2,0.6,7.7,8.1c-2,3.4-3.6,8.6-5.4,11.3C1857.8-617.4,1856.6-617.7,1856.6-618.8L1856.6-618.8z M1835.9-633.7
		c-0.3-0.5,0.3-1.1,2.2-5.4c2.7-5.9,3.6-8,2.5-11.4c-2-6-9.4-7.4-13.9-3.5c-1.5,1.3-2.5,3-3.2,4.6c-1.6,3.6-3,8.3-4,9.3
		c-0.8,0.9-2,1-1.9-0.5c1.1-3.2,1.6-5.6,4.1-10.3c6.3-13.8,24.6-7.4,20.3,7.1c-1.6,5.3-3.4,9.3-4.5,10.6
		C1836.9-632.3,1835.9-633,1835.9-633.7z M1831.7-636.3c0-0.5,0.7-1.8,1.4-3.6c3.1-7.7,3.1-10-1.4-10.1c-2.7,0.3-3.1,1.5-5.5,7.5
		c-0.8,2-1.2,3.4-1.7,4c-0.5,0.6-1.4,0.3-1.8-0.1c-1-1,3.2-10.9,5.5-12.8c5.1-4.5,11.8,1.9,8.7,7.6c-1.5,4-2.7,6.7-3.6,7.9
		C1832.6-634.7,1831.6-634.9,1831.7-636.3L1831.7-636.3z M1722.5-725.8l-15.6-1.1c2.8,16.7,2.9,35.2,0.1,48.2
		c-2.4,11.2-2.4,19.4-1.7,29.1c0.8,11.3,5.6,20.8,6.8,32.8c0.9,8.7-1,17.7-2.8,26.3c-2.8,14.4-2.3,15.9-1.8,32.8
		c0.4,15.7-1.1,15.1-2,14.2c-0.1-0.1-0.3-2.9-0.2-6.2c0-3.3-0.2-11.4-0.4-17c-0.4-11.2,0.9-21,1.8-25.1c1.8-8.3,3.9-16.8,2.6-25.9
		c-2.6-11.6-6.2-23.1-7.4-34.2c-1.6-13.7,2.3-27.5,3.6-37.5c1.2-9.6-0.1-26.3-2.6-33.2c-0.4-2.3-2.5-5.3-2.5-5.3
		c-2.4-0.3-5.8-0.5-8-0.7c-0.2,66.1,0,132.3,0.1,198.5l14.5,13.5l14.9-14.3L1722.5-725.8z M1723.5-649.9c0,0,22.2,12.8,46.6,25.4
		c-2.3-14.4,5.1-16.6,12-18.3c-1.7-27.9,23.7-22.2,27.6,2.1l2.5,0c4.4-12.1,8.8-20.4,18.8-22.4c7.8-1.5,15.4,3.4,17.4,15
		c-0.3-0.8,25.8-15.4,26.5,15.4c11.8-7.4,20.3-1,23.7,8.4c5-7.7,17.5-8,21.5-8.6c-0.2-1.7,14.6-4.6,21.2-2.3
		c8.1-1.1,11.4,5.5,15.4,7.3c8.4-2.4,30.9-10.3,29-14.4c0.2,0.1,1.2,1.4,2.6,2c0.5,0.2,5.3-2.7,5.3-2.7
		c-32.4-37.5-58.9-111.1-41.3-178.9c-2.5-2.2,2.3-0.4,1.2-0.1c0,0-6.2,30.2-5.4,43.2c72.5,34.7,63.6,107.9,45.1,132.1l2.9,3.9
		c1.3,0.9,57.1-31.9,55.3-33.2l10.6-5.3l-1.7-143.1l-41.8-3.2c0,0,0.4-1.2,1-1.5c0.4-8.7-0.4-21.7,0-32.5
		c0.2-30.9,0.5-41.4,0.1-42.3c-12.9-8.5-32.1-21-48.3-27.1c0.7,0.2-0.3,12.8-0.8,13.5c-15.1,4.9-8.1,11.1-13.7,17.7
		c-3.8,4.2-12.6,4.9-16.8,0c-5.1-4.9-7.4-16.3-7.4-16.3c-8,8.6-6.4,19-17.1,22.9c-17.2,8.6-22.7-17.1-21.7-16.5
		c-6.6,6.4-25.1,11.6-27.1-15.4c-8.3,7.7-17.7,3.9-21.6-5.6c-5.1,0.2-10.8,4.2-15.9,6.3c-4.8,2.1-10.9,3.4-15.4,3.3
		c-5.7,0.7-10.3,0.7-15.4-0.9c-2.4,0.8-7.8-1.6-9.5-4.9c-2.6-3-4.8-3.2-7.2-2.7c-8.3,4.4-17.2,5.4-26.9,10c-0.6,0.4,0.9,1.2,0.4,1.1
		c-0.2-0.1-5.1,2.4-5.1,2.4c49.5,65.4,52.2,131.5,41.8,178.3c-0.4,1.6-0.6,2.8,0.4,4.1c-1.6-0.3-1.6,0.2-1.9-0.8
		c1-14.1,5.3-20.3,5.2-43c-17.8-9.7-37.8-24-46.5-41.6c-19-29.7-12.7-65.1,1.5-93.2l-3.5-3.7c-41.5,20.9-66,43.4-66,43.4l0.2,140.4
		l42.6,4.9L1723.5-649.9z M1703-743.6c-1.4-1.5-4.8-1.8-6.3-0.6c-0.3,0.3-1.1,1.8-1.3,1.7c-1-0.9-2-1-3.5-2.5l2.1-3.1
		c1.6-2.5,4-3.3,7.9-4.3c1.4-0.3,3.5-0.6,4.3-1c3-1.3,4-4.1,1-2.8c-2.2,0.6-5.2,0.4-5.7-1.6c-0.3-1.7-1.7-2.3-3.3-2.1
		c-2.9,0.7-5.5,2.2-8.1,3.7c-1.1,0.7-3.3,2.2-3.3,2.2c-0.3,0.5-1.6-3.4-0.4-4.5c1.4,0.2,2.7,0.2,4.1-0.4c3.5-1.4,6.9-3.1,10.5-4.5
		c2.3-0.9,2.5-0.8,1.9-2.4c-0.3-0.6-0.6-2.6-0.2-3.6c0.4-1.1,0.4-1.7-0.3-2.1c-1.6-1.1-5.4-0.1-10.8,2.5c-1.6,0.8-2.7,1.1-3.8,2
		c0.7-1.7,0.3-2,0.3-3.8c2.2,0.3,4.2-0.6,5.9-1.5c1.4-0.8,3.1-1.5,7.1-2c1.1-0.1,0.6-4.2-0.7-5.3c-1.2-1.1-3.6-1.1-6.6-0.2
		c-2.7,0.6-6,1.2-7.8,4.1c1.8-4.9,0.4-3,4.3-6c1.8,0,5.9-0.9,6.9-1.1c1.6-0.4,1.9-4.2-0.5-5.8c-1.5-1.3,5.4-1.3,5.2-0.9
		c-0.1,0.2-0.2,1.9,0.4,2.3c2.9,0.9,2.9,3.3,3.2,4.3c3.4,5.6,5.1,2.1,7.4,0.2c-0.5,12.2,3.8,13.6,4.3,14.4
		c-5.8,10.9-1.4,11.2,4,13.7c0,0-2.1,0.8-3.5,0.8c-2.2-0.1-6.3,2.5-8.2,4c-1,0.8-1,0.1-5.1,0c-3.8-0.1-4.1,0.2-5.8,0.9
		c-3.4,1.5-3.4,3-0.1,2.4c3.5-0.6,7,1.6,7.4,4.5c0.3,0.6,0,0.6,0,0.6c-0.7-0.1-2.4,0.1-2.4-0.2
		C1703.6-742.3,1703.6-742.7,1703-743.6L1703-743.6z M1708.1-758.4c1-0.6,1.1-2.4,0.3-3.1c-0.8-0.7-4-0.3-4.9,0.5
		C1701.5-759.4,1705.2-756.6,1708.1-758.4L1708.1-758.4z M1710.2-765.8c1.2-0.9,1.3-3.2,0.3-4.5c-1.7-2.2-6.3-0.9-6.6,1.9
		C1703.7-765.4,1707.7-763.8,1710.2-765.8L1710.2-765.8z M1708.7-775.8c0.2-2.4-2.2-4-4.4-2.8c-2.7,1.4-1.1,4.5,2.4,4.3
		C1708.6-774.5,1708.6-774.5,1708.7-775.8L1708.7-775.8z M1700.7-785.7c-1.3,0.6-1.3,2.2-0.1,3.1
		C1705.4-779.9,1703.9-787.1,1700.7-785.7z M2036.7-771.2c-2.1-7.8-7.9-0.1-7.9,0c-0.2-8,1.3-11.6-4.7-14.3c6-9.2,4.8-10.4-1.6-13.9
		c0.6,0,8.4-1.7,9.8-6.2c0.3,0.2,12.3,3.2,13.8-3.4c-3.6,1.7-10.8,1.9-10.9-5.2c0.7-0.2,2.4,0.2,2.2,0.4c-0.9,4.6,7.3,5.7,8.6,2.1
		c0,0,2.8,1.9,4,2.2c0.1,0.1-3.8,5.5-7.3,6.3c-6.4,2.1-8.6,2.7-8.6,4c0,0.5,1,0.6,2.9,1c4,0.3,3.9,1.1,4.4,2.5
		c0.5,1.2,0.9,1.4,2.2,1.3c4.5-1.5,6.8-2.3,10-5.5c0.4-0.1,0.8,3.3,1.1,3.5c0-0.5-3.2,0.4-8.2,3.3c-4.1,2.4-5.7,2.7-6.2,3.4
		c-0.4,0.5,0.6,2,0.7,3.6c0.1,1.4-0.8,2-0.2,2.5c0.8,0.5,2,0.4,3.6,0c3.5-0.8,6.1-2.2,9.3-4.2c-0.7,1.3,0.4,4.5,0.4,4.5
		s-1.6-1.1-2.9-0.5c-2.9,1.4-5.8,2.8-9.5,3.6c-0.5,0.4-0.4,1.5-0.4,3c0,1.1-0.3,2,0.4,2.4c5,0.6,8-0.6,11.5-2.8l-0.9,4.5
		c-1.1-1.3-4.5-0.3-6.7,0.5c-1.1,0.3-1.4,1.1-1.7,2c-0.5,1.7,0.6,2.8,1.8,3.4c0.8,0.4,2.1,0.2,2.1,0.2c-3.7,2.3-3.7,3.1-7.9,1.3
		C2038.7-767.5,2037.3-769.1,2036.7-771.2L2036.7-771.2z M2042.7-771.2c-0.9-1.1-2.6-1.7-3.6-1.3c-0.9,0.5-0.6,1.4-0.3,2.2
		C2039.6-768.3,2044.6-768.9,2042.7-771.2L2042.7-771.2z M2039.4-776.8c1.3-1.8-0.1-4.2-2.6-4.2c-1.7,0-2.6,1.1-2.6,2.4
		C2034.1-775.9,2038.2-775.3,2039.4-776.8L2039.4-776.8z M2036.6-783.5c2.5-0.7,3.3-3.1,1.5-4.9c-1.2-1.2-5.1-1.4-6.1-0.3
		C2029.4-785.8,2032.4-782.4,2036.6-783.5L2036.6-783.5z M2038.7-792.4c1.5-0.8,1.7-2,0.4-3.4c-2.4-2-6.4-0.4-5.1,2.5
		C2034.7-791.9,2036.9-791.5,2038.7-792.4L2038.7-792.4z M1738.9-859.9c2.2-0.8,3.8-2.5,6.1-3.8c1.6-0.9,1.1-0.7-0.9-1.9
		c-1.6-0.7-4.7-3.9-5-3.2C1738.3-867.4,1738.4-860,1738.9-859.9z M1794.7-787.1c0.3-3.2-0.3-2.3-2-1.2c-1.3,0.8-3.3,2.1-4.1,2.5
		c-3.2,1.6-2.8,1.7,1.7,3.8c3,1.3,3.9,1.5,4.1,1C1794.7-783,1794.7-785.2,1794.7-787.1L1794.7-787.1z M1790.1-789.1
		c3-1.9,4-2.9,4.2-5.1c0-2.5-0.3-3.4-2.4-1.7c-7.4,5.9-15-5.6-8.2-12c1.4-1.3,3.1-3.3,3.1-3.9c0.1-3.7-4-0.1-7.4,5
		c-3.8,4.6-6.1,10.4-2.8,16C1779.2-786.7,1785.1-785.9,1790.1-789.1L1790.1-789.1z M1773.4-796.6c-0.1-1.8,0.4-3.8,0.6-4.4
		c0.8-2.1,0.8-2.4-3-0.6c-1.5,0.5-3.3,0.9-4,0.9c-3.1,0-2.3,1,2.1,4.6C1773.6-792.4,1773.7-792,1773.4-796.6L1773.4-796.6z
		 M1783.8-814.3c0.5-1.1-0.5-1.5-1.4-1.3c-0.1,0-1.7,1.2-3.6,2.7c-5.7,4.5-9.9,5.1-12.8,1.6c-2.9-3.5-1.7-7.7,4.8-12.4
		c2.8-2.1,3.5-2.2,2.2-3.2c-1-0.7-1.1-0.6-5.2,2.2c-8.2,5.6-10.7,9.4-9.9,15c0.2,2.3,1.4,3.5,2.5,4.4
		C1768.3-798.3,1779.2-808,1783.8-814.3L1783.8-814.3z M1792.2-811l-0.5-7.7c-17.2-15.2-23.9-35.6-19.2-56.7l-4.5-8.6
		c-3.9,9.2-5.7,23.1-1.4,37.3C1770.2-834.7,1777.5-820.1,1792.2-811L1792.2-811z M1756.9-815.5c2.7-5.1,2.7-4.6-2.4-4.6
		c-5.9,0-5.2-0.8-1.9,4.3C1755.2-811.8,1754.8-811.5,1756.9-815.5z M1760.4-822.6c3.4-1.1,2.6-0.8,7.1-3.8c5.2-3.4,5.4-5.2,0.2-2.6
		c-6.6,3.3-12.5,2.5-14.6-1.9c-1.9-3.9,2.1-8.7,8.7-10.6c2.3-0.7,3.5-1.2,3.5-2.2c0-3-11.3,1-15.9,5.6
		C1740.4-829.1,1748.2-818.6,1760.4-822.6L1760.4-822.6z M1745.9-836.4c0.3-0.5,1.1-1.6,1.8-2.7c3.2-3.7,0.5-2.6-2.3-3.6
		c-1.5-0.5-3-1.1-3.9-1c-1.7,0.3,0.6,3.5,1.1,5.7C1744.2-833.3,1744-833.4,1745.9-836.4z M1757.9-844.8c5.7-0.6,6.3-1.1,6.3-2.3
		c0-1.2-0.7-1-3.6-0.5c-7.6,1.1-12.6-0.9-13.7-4.9c-1.1-4.2,4-8.2,10.8-7.9c3.7,0.1,6.2-1.2,3.9-2.4c-1.2-0.6-11.3-0.5-13.7,0.2
		c-6.8,2-9.5,5.8-8.9,11c0.9,6.5,4.4,8.3,13,7.9C1753.8-844,1755.9-844.7,1757.9-844.8L1757.9-844.8z M1762.3-865.9c0-1-1.6-1.2-7-2
		c-7.2-1.1-10.3-7.7-6-11.7c1.6-1.5,5.5-2.2,7.7-1.8c4.7,0.9,7.6,1.8,7.6,0.2c0-1.4-1.4-1.5-10.2-3.4c-13.4-2.8-20.7,10.3-10,16.8
		C1748.5-865.3,1762.3-863.9,1762.3-865.9L1762.3-865.9z M1765.6-884.8c0-0.5-0.4-0.9-1.4-1.3c-6.3-1.7-14.9-10.1-8.6-15
		c2.9-3-2.3-6.6-6.4-3.2c-4.3,3.6-3.9,9.1,1,13.6C1754.7-886.7,1765.6-882.4,1765.6-884.8L1765.6-884.8z M1744-885.6
		c4.6-2.2,8-0.9,4.4-4c-2-1.9-3.7-7.2-5.1-2.7c-1.1,2.7-1.8,7.4-1.9,7.8C1741.7-884,1741.7-884.6,1744-885.6z M1900.7-910.4
		c0.8-3.4,3.9-11.3,4.5-11.8c2.3-1.9,2,0.6-0.1,4.9c-1.9,4.4-3.5,7.9-2.9,10.5c0.9,3.7,2.4,6.6,6.2,7.5c2.7,0.7,5.2-0.5,7-1.7
		c2.3-1.6,4.4-5.8,7-11.5c0.8-1.6,1.9-6.6,3.3-3.6c0.7,1.6-4.8,12-6.9,14.7C1909.8-890.3,1897.9-901,1900.7-910.4z M1940.1-900.5
		c2.6,2.5,6.9,3.7,9.8,2.8c7-2.5,10.1-9.1,7.5-19.8c-1.3-6-2.5-9.7-3.6-10.4c-0.6-0.4-1.2,0.3-1.7,1.1c-0.5,0.7,0.3,1.8,1.1,4.6
		c3.3,11.8,2.5,17.2-1.6,19.5c-5.9,3.3-11-0.5-12.7-9c-0.3-1.3-1.1-4-1.1-4c-0.4-1.2-4.1-0.9-2.8,3
		C1935.4-909.5,1938.2-902.2,1940.1-900.5z M1970.1-931.5c-0.1-4.2-8.8-22.2-9.4-20.3c0,0,0,4.2,0.3,5.9c0.1,0.6,0.6,1.2,0.9,1.9
		c7.6,13.6,6.4,23.2-0.2,25.2c-2.2,1-2.7,2-1.7,3.1c2,2.2,7.1-2.2,8.1-3.8C1970.6-923,1970.3-929.5,1970.1-931.5z M1843.3-934.6
		c13.3-17.3,23.6-56.8,25.4-81.7c-0.5-0.5-3.4-0.2-4.4,0.3c-0.5,0.6-0.2,2-0.3,3.8c-2.7,20.7-7.6,39.5-14.8,58.6
		c-3.2,8.3-6.1,13.8-10,19.6c-0.7,1-1.5,2-1.9,2.6c-1,1.4-0.3,2.3,0.9,1.7C1840.1-930.8,1841.8-933,1843.3-934.6L1843.3-934.6z
		 M1833.5-929.5c14.7-22.1,22.8-46,28.4-85.8c-1.2-0.3-3.5-0.1-4.3,0.5c-0.5,0.7-0.2,2.2-0.6,5.7c-1.2,8.9-2.9,17.8-5.8,29.4
		c-7.8,25.8-14.9,40.3-24.3,52.9c-0.8,1.1-1.4,1.8-1.4,2.2c0.1,0.7,1,0.6,2.5-0.3C1829.9-926.5,1832.2-927.9,1833.5-929.5
		L1833.5-929.5z M1819.7-922.8c4.4-2.5,12.3-13.6,17.8-25.5c6.2-14.1,11.4-30,14.8-43.7c1.5-6,3.6-21.1,3.3-22.1
		c-0.3-0.7-4.7,0.1-4.1,0.6c0,0-4.3,24.2-9,37.6c-8.6,24.8-16.1,41.6-24.2,49.7c-1.1,1.1-3.1,3.1-3.1,3.1s0,0.9,0.7,1.1
		C1817.6-921.8,1818.6-922.3,1819.7-922.8L1819.7-922.8z M1812.8-923.8c10.1-5.7,21.8-32.1,31.4-65.3c1.6-5.7,4.7-24.7,4.7-24.7
		s-4,0.2-4.8,1c-0.8,1.2-0.7,4.1-1.8,11c-4.3,21-10.8,40.2-20.6,59.1c-4.2,8.4-11.3,16.3-15.7,18.5c-2.5,1.3-3.2,2.6-1.4,2.7
		c3.1,0.1,3.3,0.8,5.6-0.5L1812.8-923.8z M1950.6-628.1c-7.5,0-13.9,7.3-19.6,16.4c-12.1,18.8-20.3,50.1-22.3,66.8l4.6-0.9
		c-0.7,0.3,8.6-44.4,22.6-63.5c7.6-12.1,7.3-12.2,11.6-13.4c5.4-1.4,9.7,4.5,7.1,8c-1,1.2-2,0.3-1.7-1.4c1-5.5-6.9-6.5-9.2-1.2
		c-2.5,6.2,4.2,11.7,10.8,9.2c5.9-2.1,8.4-10.4,4.2-16.5C1956.5-626.5,1953.4-628.4,1950.6-628.1L1950.6-628.1z M1910.9-628.9
		c-9,11.4-13.5,23.2-19,39.2c-5.5,16-9.5,31.7-11.2,49.6l4.9-0.6c-0.2-11.5,12.4-66.5,30-87.2c1-1.3,1.8-2.4,1.7-2.7
		C1916.2-633.4,1912.1-630,1910.9-628.9z M1930.8-633.2c-11.7,9.7-21,30.8-27.2,50.3c-6.7,21.1-9.7,40.4-9.2,40.4l4.7-0.7
		c-0.3-1.2,13.1-75.5,37.9-89c2.2-1.1,2.6-2.2,0.8-2.7C1935-635.3,1932.8-634.4,1930.8-633.2L1930.8-633.2z M1943.9-633.1
		c-25.5,3.4-42.2,82.4-42.8,88.9c0,0.1-0.1,0.6-0.1,0.6l5.1-1.1c0,0,0-0.2,0.1-0.4c3.5-20.2,6.9-34.3,14.9-52.6
		c6.2-13.5,14.8-30.8,27.6-32.5c1-0.1,2,0.3,1.7-0.9C1949.5-632.9,1945.7-633.2,1943.9-633.1L1943.9-633.1z M1791.7-658
		c-9.2,2.4-9.5,13.5-3.4,27.8c0.5,1.1,0.4,1.7,0.8,2.1c1.1,0.9,1.9-0.4,2-1.2c0.2-1.3-0.4-3-1.3-5.6c-3.8-9.9-2.9-15.5,0.9-18.1
		c9.7-5,12.2,5.3,13.7,10c0.4,1.2,0.5,2.7,1.1,2.8c1.9,0.3,2.8-0.4,2.8-0.4c0,0-2.6-8.9-4.1-12.2
		C1801.7-658.1,1795.7-659.3,1791.7-658L1791.7-658z M1724.7-647.5l-0.1,117.6l-17.7,16.7c-7.6-6.6-17.6-16.8-17.6-16.8l0.3-198.8
		l-5.7-0.5c-1.4,85.4,0,172.5-0.1,258.1h51.9c14.5-23.2,29.7-46.1,44-69.4c0.5-1.3,0.5-3.3,0.2-10.5c-0.1-2.9,0.2-5.2-0.2-5.9
		c-0.4-0.7-1.4-0.2-2.2,0.2c-0.9,0.4-1.4,0.3-0.9-0.8c0.3-0.6,1.1-1.9,1.9-3.1c2.4-4,3-5.3,2.2-9.8c-0.2-1.1-1.2-2-2.1-3.3
		c-7.3-10.8-10.2-26.9-6.6-38.7c1.2-5.2,0.7-6.3-1.8-10.3L1724.7-647.5z M1953.5-773.9c-4.8-2.5-4.7-2.4-4.7,2.2
		c0,3.5,0.1,4.3,1.4,3.9c1.9-1,4.2-1.8,5.9-2.6C1959.4-771.5,1955.2-773,1953.5-773.9L1953.5-773.9z M1972.3-761.8
		c-3.7-3-2.3-2.6-3.4,4.1c-0.6,4-1.4,4.2,2.7,2.8c2.4-0.8,7.2-0.3,5-3.1C1976.6-757.9,1973-761.1,1972.3-761.8z M1812.7-638.8
		c-19.8,2.4-28,22-28.9,38.4c-0.7,12.9-1.6,28-0.3,29.3c13-5.9,17.9,0.9,19.2-0.9c0.6-0.8-2.9-3.5-7.2-5.8c-1-0.5-2.6-1.5-3.1-2
		c-1.6-1.3,3.1-0.2,6.1,1.9c3.8,2.6,4.4,2.1,2.8-5.6c-1.8-8.3-2.1-9.3,4.2-12.6c2.5-1.3,4-2.4,5.8-4.5c1.4-1.6,1.8-2,1.3,0.4
		c-0.9,4.2-4.6,6-7.9,7.7c-1.7,0.8-2.3,2.6-2.3,4c0,1.5,1.7,9.6,2.5,12.2c0.7,2.5,1,4.9,1.6,7.4c1.5,6.5,1.6,7.8,0.8,12.5
		c-0.4,2.8-0.7,4.4-0.5,6c0.1,1.5,0.3,3.6,0.3,3.6c0-0.1-3.5-3.7-11.3-0.6c-5.6,2.2-10-0.1-13.1-1.7c-0.7,2.6-0.6,5.4-0.5,8.3
		c32.2,5.9,59.7,5.1,82.8,2.7c0.4-5.7,4.2-40.6,18.3-71.4c2.2-4,4.5-6.7,5.3-7.1c0.4-0.2,0.2-0.6,0.3-1c-0.1-1.3-0.4-3.3-1.5-4.2
		c-2.7-2.2-6.9,0.6-8.3,5.4c-1.2,2.9-6.8,15.3-7.2,15.1c-0.3-0.2-1.1-0.2-0.8-1.2c2.1-5,5.1-10.4,6.8-14.9c2.3-6.5,7.3-10,11-5.8
		c1.3,1.4,1.8,2.7,2.4,3.2c0.4,0.3,1,0.1,1.4-0.5c1.4-2.1-1.8-7-5.3-8c-5-1.4-8.8,2.3-14.5,14.3c-3.3,7-3.9,8.7-4.4,8.2
		c-0.1,0-1,0-0.7-1.3c0.7-2.9,5.1-11.3,8.2-16.6c4.7-7.9,13.4-8.5,17.1-1.7c0.6,0.9,0.6,2.2,1.2,3c1.1,1.5,3,1.2,3.4-1.2
		c-0.5-1.6-3.6-7.4-5.7-8.4c-4.9-3.4-10.8-2.7-15.9,1.8c-1.1,1-2.3,3.1-5.6,9.9c-4.9,10.9-5,11-6.4,9.2c2-5.3,7.1-13.9,9.2-19.2
		c0.4-0.8,0.5-1.6,0.4-2.5c-0.1-3.8,0.5-10.7-7.6-15.5c-6.9-3.7-15.9,0.2-19,7.6c-2.4,5.6-4.1,9.5-5.3,10.3c-1.7,1.1-1.4-0.4-1.2-1
		c2.4-5.1,5.7-10.3,6.3-15.4c0.3-12.5-10.9-17.9-19.8-13.8C1819.6-657.6,1816.1-647.8,1812.7-638.8L1812.7-638.8z M1752.1-919.4
		c10.9-5.1,18.3-7.7,29.4-11c1.5-0.7,1.7-0.8,0.2-4c-7-14,12.3-25.3,18.8-11.5c0.9,1.8,1.1,2.9,1.9,2c8.3-8.8,21.5-42.7,24.7-66.3
		c-14.6-25.7-40.4-72.9-40.4-72.9h-102.8v206.3C1712.6-900.9,1732.1-909.6,1752.1-919.4L1752.1-919.4z M1874.2-939.8
		c0.8-1.7,2.1-4.2,2.6-5.4c0.7-2.2,3.2-3.5,1.9,0.4c-0.3,0.8-0.8,2-1.5,3.5c-1.5,2.7-2.9,6-3.9,8.1c-5.7,11.5-5.4,18.3,0.9,23.3
		c4.8,4.6,14.7,5.1,20.1-2.3c0.8-1.2,1.5-2.7,1.7-3.3c2.3-5.7,4-8.5,4.4-9c2.4-3,2.7,0.7-0.8,6.5c-4.1,6.6-4.1,13.8-0.6,18.9
		c5.2,7.5,15,7.7,21.2,1.7l0,0c3.2-3.8,5.8-8.7,7.8-14.8c0.5-1.4,0.9-2.4,1.3-3.2c0.5-1.2,1.3-1.7,3.2-2.1
		c13.2-2.5,24.2-16.2,25.8-31.1c0.2-2,0.8-5.6,1-7.7c0.4-4.2,0.4-26.1,0-27.4c-0.2-0.7-0.6-1.1-1.5-1.1c-0.7,0-1.6,0.2-2.9,0.7
		c-4.3,1.6-6.4,2-10.5,0.5c-1.4-0.5-2.3-0.7-2.9-0.6c-1.8,0.2,0.6,2.8,6,5.8c2.3,1.3,4.1,3,2.2,2.8c-0.5,0-7-3.4-7.9-4
		c-2.9-1.8-2.2,0.5-0.7,6.5c2,8.1,0.9,10.4-5.5,13.6c-1.2,0.6-2.8,1.8-3.6,2.6c-3.4,5-2.5,1.3-0.8-1.3c2.9-3.1,1.1-4.1-4.8-2
		c-6.8,2.4-9.8,0.7-11.7-3.2c-2.1-4.3,1.9-9.8,5.2-9.7c1.1,0,0.9,0.4-0.7,1.5c-1.9,1.3-2.9,2.6-3.1,4.9c-0.4,4.7,2.9,6.6,7.5,3.5
		c2.2-1.5,3.9-2.5,5.5-2.9c1.6-0.4,4.1,0.2,4.1,1.6c0,0.5-0.1,1.9,0,2.2c0.4,1.5,2.8-0.6,3.8-1.3c3.5-2.6,3.4-3.1,2.4-7.4
		c-1.6-5.9-2.3-11.4-3.8-17.4c-0.8-3.2-0.9-6.7-0.4-9.9c0.2-1.6,0.9-4.9,1-7.2s0-5.5,0.1-5.5c3.4,2.7,4.8,3.1,8.2,1.8
		c5.2-2.2,8.5-1.9,12.9,0.2c1.6,0.8,3.1,1.3,3.1,1.3l0.2-6.8c0,0-4.1-0.8-11.5-1.8c-22.6-3-68.8-3.6-70.5-0.9
		c-3.1,18.2-7.2,40.1-12,54.2c-0.8,2.8-1.6,3.9-1.2,4c0.2,0,1-1,1.4-1.5c2.2-2.6,0.5,3.5-2.8,10.8c-0.3,0.7-0.5,1.4-0.6,1.6
		c0,0.4-2.1,5.5-3.5,8.6c-0.9,1.9-1.6,2.5-1.6,1.3c1-4.2,3.7-9.7,4.1-13.4c-2.3,3.4-5.7,9-8.3,12.4c-0.5,0.9,0,1.2,0.4,2.3
		c1.5,4.2,5.3,4.5,7.4,0.8c1.2-2.1,4.9-10,6.2-13.5c1.3-3.6,2.3-5.5,2.7-5.7c0.9-0.5,1.1,1.6-0.5,4.9c-4.8,10.2-6.9,16-9.2,18.1
		c-1.8,1.6-5,1.5-6.8-1.4c-3-5-5.5-3.3-2.8,1.8c2.8,5.2,9.3,5.7,12.7,1c1.1-1.6,6.4-11.7,8-15.8c0.9-2.3,1.9-4.1,2.2-4.2
		c1.8-0.7-0.2,4.6-5.3,15c-1.6,4-4.3,8.3-7.8,9.6c-8.7,1.9-9.8-2.7-12.8-8c-1.5-1.3-2.8,0.8-2.2,3.1c0.9,3.8,2.8,5.4,5.5,7.2
		c5.4,3.6,12.6,1,14.6-1.7C1868.4-928.4,1869.7-930.6,1874.2-939.8L1874.2-939.8z M1906-905.1c-0.8-1.8-0.7-3.5-0.3-5.2
		c0.9-3.7,2.4-7.4,4.2-10.5c2.8-1.4,0.7,4,0.3,4.8c-3.4,7.2-3.8,10-0.6,10.8c2.7,0.7,4.2-1,6.8-7.5c1.3-3.3,1.9-4.8,2.3-5
		c1-0.4,1.5,0,1.4,1c-1.7,4.2-3.1,8.7-5.9,12.2C1911.6-902,1907.5-902,1906-905.1L1906-905.1z M1880.3-910.6
		c-13.7-4.9-5.5-20-2.7-25.4c0.5-0.9,2.2-4.4,2.8-5.6c1-2.1,2-1.3,2,0.1c0,0.4-1.5,3.6-3,6.6c-6.6,13.1-6.4,18.4,0,21.5
		c6.3,3,9.1,1.3,14.1-8.7c2.9-7.5,4.3-7.6,4.2-4.8c0,1.1-3.5,8.3-5.8,11.6C1888.7-910.5,1885.1-908.9,1880.3-910.6z M1880.8-916.9
		c-2.5-1.5-3.5-5.4-2-8.5c1.3-2.6,4.7-12.5,6.3-13.1c2.6-0.1,1.2,2.1-2,8.2c-3.8,8.1-3.6,10.2-0.7,11.5c2.7,1.2,4-1.2,7.9-10.7
		c0.6-1.5,1.5-3,2-2.7c0.6,0,1.7,0.4-0.4,4.7c-0.5,1-1.3,3.2-2.3,5.2C1887-916.5,1883.9-915,1880.8-916.9L1880.8-916.9z
		 M1925.4-934.1c-1.1-0.6-6.2-2.6-5.4-4.3c0.1-0.2,0.4,0,0.5,0.1c4.7,3.2,10.5,4,16.5-0.4c1-0.9,1.8-0.3,1.2,0.8
		C1936.4-934.2,1928.2-932.7,1925.4-934.1z M1910.4-939.4c0.1-0.3,0.6-1.4,0.9-2.8c0.6-2.1,0.4-3.7,0.9-3.4c2.1,1.2,5.9,1.2,7.7,0
		c2-1.2,6.1-1.6,7.6-0.7c2.1,1.4,3.2,0.8,4.7-0.4c1.7-1.3,1.7-0.8,4.8,0.3c2.3,0.8,3.1,1.3,4.1,1.2c0.4-0.1,1.1-0.9,1.4-0.9
		c0.7,0.1,0.8,2.2,1.5,4.6c0.6,2.1,0.3,2.6-1.6,1.4c-1.4-1-5.4-1.4-9.6-0.1c-3.1,1-3.8,0.6-6.1,0.2c-5.7-1-9.8-1.7-14,0.8
		C1910.4-937.9,1909.6-937.2,1910.4-939.4L1910.4-939.4z M1896.2-949.9c-2.8-5.6,3.6-13,9.2-10.3c1.8,0.9,3.5,4.1,0.8,2.6
		c-12.7-2.6-9.5,16.1,4.1,6.2c9-6.1,15.4-7,16-1.1c-0.2,2.2-2.1,1.8-3.6,2c-3.8,0.5-5.1,1.1-9.5,3
		C1906.6-945.4,1900.1-943.7,1896.2-949.9L1896.2-949.9z M1945.8-947.4c-3.1-0.8-5.8-2-9-2.6c-3.2-0.6-4.6-2.2-4.1-4.5
		c0.6-2.3,3.8-2.6,8.6,0.4c5.3,3.3,9.2,4.1,11.1,2.8c3.9-2.5,1.8-6.6-1.9-7.6c-2.8-0.8-0.8-1.9,2.3-1c4.9,1.9,5,10.8,0,12.7
		C1951.1-946.6,1948.1-946.8,1945.8-947.4L1945.8-947.4z M1902.7-976.9c3.6-2.2,7.1-4.2,8.3-5.6c0.6-0.7,2.4-3.1,1.1-2.3
		c-7.3,4.5-15.8,0.8-22-2.3c-3-1.4-2.2-0.8-4.5-0.6c-1.5,0.1-2.8,0.4-3.1-0.7c-0.1-0.5-1-0.3-1.5-0.3c-2.3-0.2-0.8-3.3,3.9-6.6
		c8.7-6.4,22.3-12.3,29.5-4.4c1.5,1.4,1.3,2.4,2.7,1.5c3-2,3.1,0.7,0.5,3.1c-1.8,1.7-1.1,2.1,1,3.7c1,0.8,0.2,1.5-0.4,2.6
		c-0.2,0.7-0.1,1.4-0.1,1.9c-0.5,2.4-11.2,10.8-15.1,12.2C1900.2-974.2,1901.6-976.3,1902.7-976.9L1902.7-976.9z M1908.3-992.4
		c-2,6.3-5.8,8.4-8.9,0.9l-1.4,0.1c-0.1,6.3,10.7,10.3,12.1-1C1909.3-992.3,1908.8-992.4,1908.3-992.4L1908.3-992.4z M1898.4-986.5
		c-0.7-1.2-1.6-4.1-2.3-4.2c-2.1-0.1-5,0.3-4.3,1.6C1892.8-987,1899.2-985.1,1898.4-986.5z M1912.8-987.6c1.9-1.2,2.3-2,1.1-3.3
		c-1.6-1.7-2.5-0.8-3,1.8C1910.4-986.8,1910.7-986.4,1912.8-987.6z M1886.6-992c12.9-5.9,17.8-6.7,23.1-5.2c1.2,0.3,2.3,1,3,1
		c2.5-0.2,0.9-3-3.6-4.6c-5.2-1.9-8.4-1-18.4,4.2C1884.9-993.6,1880.2-989.1,1886.6-992L1886.6-992z M1924.1-999.2
		c-0.2-0.3-1-2.7-1.2-3.6s-0.4-1.7-0.7-1.8c-6,1-11.3-0.2-12.7-0.5c-9.1-2.2-17.9-1.7-24.4,0.8c-1.6,0.6-3.6,1.7-3.8,1.8
		c-0.5,0.5-1.3-0.1-1.3-0.7c0-0.7,4-3.9,6.6-5.2c7.7-3.8,15.8-4.5,24.8-2.1c5.8,2.2,9.6,1.9,13.3,0.2c1.8-0.8,0.5,1.2-0.1,3.8
		c-0.4,1.8,0,3.4,0.1,4.4C1925-999.3,1924.7-998,1924.1-999.2L1924.1-999.2z M2059.3-471.1V-678c-51.6,35.9-74.2,43-98.4,51.8
		c9.3,16.1-11.2,31.5-20,14c-10.6,12-25.1,53.8-25.6,67.7c0,0,28.1,49,41.7,73.4L2059.3-471.1z M1871.8-538.9
		c0.9-10.4,3.1-28,10-48.6c2.9-8.6,6.4-18.5,11.3-27.3c2-3.1,2.1-4.3,0-3.2c-1.3,0.7-7.3,7.5-8.1,9.2c-8.2,22.7-14.5,39.5-17.8,70.2
		L1871.8-538.9z M1878.6-539.8c2.2-25.3,11.4-59.4,25.3-81.7c1.3-2.1,2.9-4,2.8-4.7c-0.2-2.2-5.5,1.6-9.7,8
		c-4.6,9.2-9.2,19.1-12.8,30c-5,15.4-8.7,29.6-10.1,49L1878.6-539.8z M1891.9-541.9c1.4-14.6,5.9-27.9,9.6-41.3
		c4.6-16.4,10.7-28.4,17.9-39.3c2.3-3.5,5-6.7,7.6-10.1c0.3-0.4,0.7-1.1,0.6-1.4c-1.6-0.3-3,0.2-4.2,1c-1.8,1-4.3,3.5-5.8,5.4
		c-10.2,13.1-15.7,28.4-20.7,43.8c-4.9,14.8-8.4,29.1-9.1,42.5L1891.9-541.9z M1800.4-553.1c2.1-0.2,3.4,0.2,4-0.3s0.4-2,0.6-3.9
		c0.4-4,0-3.8-2.5-1.2c-4.1,4.3-11.6,5.9-16.1,3.3c-2.2-1.3-3.8-2.2-4-1.1c-0.2,1.3,0.1,2.2,1.1,2.9
		C1788.8-550.8,1794-552.6,1800.4-553.1z M1795.6-556.1c2.8-1,5.7-2.5,7.4-4.8c1.6-2.2,1.5-2.5,0.3-2.1c-5.8,2.9-9.6,4.3-14.8,3.5
		c-7-1.1-7.3-0.2-2.7,2.8C1788.9-554.9,1791.4-554.8,1795.6-556.1z M1785.3-565.1c1.1-0.8,1.4-4.1,0.5-4.3c-0.9-0.2-2.2,1.4-2.5,2.8
		C1783-564.8,1784.3-564.4,1785.3-565.1L1785.3-565.1z M1796.2-565.2l1.9-0.2c-0.9-8.2-9.8-8.6-11.5,0.8l1.4,0.2
		C1789.8-571.7,1794.8-571.6,1796.2-565.2L1796.2-565.2z M1802.3-566.8c2.3-1.5,1.3-3.2-2.2-3.9c-2.4-0.6-2.3,1.4-1,4.1
		c0.5,1.2,0.9,1.1,2.3,0.4C1801.7-566.4,1802.1-566.6,1802.3-566.8z M1781.1-576.7c0-0.9-0.4-2.4-0.8-3.3
		c-3.1-6.5-4.8-14.1-4.5-23.6c0.2-6.8,0.3-8.9-1.1-8.9c-2,1-3.1,13.6-0.6,24.1C1775.9-580.9,1781.3-571.7,1781.1-576.7L1781.1-576.7
		z M1781-587c-0.2-3.5,0.6-11.5,0.2-13.2c-0.5-2.3-1.8-4.3-2.6-4.9c-1.2-0.9-1.5,0.8-1.1,5C1778.5-590.1,1780.1-582.5,1781-587
		L1781-587z M1782-605.2c0.8-1.4,0.5-2.9-1.2-6.2c-6.7-13.2-7.6-22.2-0.6-25.5c0.8-0.4,1.3-0.4,1.8-0.7c2.2-1.2,1.4-3.5-1.9-2.5
		c-9.1,2.6-10.9,11.2-3.2,27.1C1780.8-605.1,1781.4-604,1782-605.2L1782-605.2z M1784.1-615.8c0.1-0.4-0.8-1.7-1.8-4.3
		c-2.6-6.6-2.6-9.4,0.2-11.3c0.9-0.5,1.8-0.6,2-1.2c0.2-1,0.2-2.5-0.4-3c-4,0-5.9,2.4-6.6,4.7c-0.7,8.2,2.7,13.9,5.7,19.4
		C1783.8-612.9,1784-614.7,1784.1-615.8L1784.1-615.8z M1786.8-621.3c2.2-4.4,0.1-10.1-2.8-8.1c-1.9,1.3-2,2.6-0.8,6.2
		C1784.5-618.7,1785.4-618.4,1786.8-621.3L1786.8-621.3z M1794.6-633.5c0.2-0.9-0.5-2.5-1.8-6.4c-1.4-4.2-0.7-7,1.9-7.8
		c3.7-0.9,5,5.2,5.8,7.8c0.4,2,1.7,2.5,2.9,1.2c0.3-0.4,0.4-0.7-0.1-2.9c-2.4-9.5-5.6-12.6-10.6-10.2c-4.7,2.2-4.1,7.1-0.7,17.5
		c0.5,1.4,0.8,2.4,1.1,2.6C1793.8-632.1,1794.3-632.7,1794.6-633.5L1794.6-633.5z M1798.5-636.2c1.1-1.1,1.1-0.6-0.2-4.6
		c-1.4-4.5-2.2-5.5-3.8-3.9c-1,1-0.5,2,0.6,5.7C1796.4-634.7,1796.7-634.5,1798.5-636.2L1798.5-636.2z M1993.1-651.7
		c7.4-5.2,4.4-14.4-5.4-17.8c-1.1-0.4-2.4-0.9-2.8-1.1c-4.5-2.2-8-2.8-8-1.2c0,1,1.3,1.5,5.6,3.6c6.4,3.1,7.8,6.7,4.6,11.3
		C1985-653.6,1989.2-649.9,1993.1-651.7L1993.1-651.7z M1999.8-663c0.6-2.6,1.6-4.9,2.1-6.5c0.6-2.4-0.2-1.8-1.8-1.5
		c-4.1,2.1-7,1-5,3.9C1997.3-663.1,1999.1-660.1,1999.8-663z M1999.3-672.2c5.1-3.1,6.2-11.1,1.5-14.9c-1.1-0.9-3.1-2.1-5.5-2.8
		c-4.8-1.5-11.8-2.2-14.3-1.4c-0.6,0.7-0.6,1.7,0,2c0.7,0.3,2,0.4,3.9,0.6c17.9,3.1,10.6,16.4-1.7,13.5c-4-0.9-5.9-0.5-4.3,0.5
		c1.9,1.1,6,2.6,10.1,3.4C1992.4-670.7,1996.4-670.5,1999.3-672.2L1999.3-672.2z M1974.9-673.6c5.7-13,8.8-47-24-71.5l1.1,6.8
		c19.3,17,23.9,38.7,19.9,58.6L1974.9-673.6z M2004.1-696.8c-2.1,1.3-3.8,2.7-6.4,3.9c-1.6,0.7-1.6,0.9,0.5,2.1
		c1,0.6,2.7,1.6,3.4,2.3c1.1,1.2,2.5,1.7,3,1.3C2004.6-689.2,2005.2-695.5,2004.1-696.8z M1994.4-694.3c6.6-2.1,10.2-5.3,9.4-10.7
		c-1.1-7.9-7.7-9.6-19.9-6.5c-5.9,1.5-6.4,4.3-0.8,2.8c7.1-1.8,12.6,0.9,11.9,6.1c-0.4,4.5-4,7.1-10.3,7.1c-3.3,0-4.4,0.3-3.9,1.5
		C1981.1-693.1,1991.7-693.5,1994.4-694.3z M1983.5-713.1c10.8-3.7,15.9-9.6,13.4-16.1c-2.9-7.7-12.4-7.8-21.9-0.6
		c-4.4,3.3-3.8,4.5,0.5,2.8c5.6-2.6,9.2-3,11.4-0.9c4.1,3.7,1.3,10.2-4.9,12.5c-3,1.3-4,2-4,2.9
		C1978.1-711.1,1978.6-711.4,1983.5-713.1L1983.5-713.1z M2001.8-713.2c0.3-2.3-2.3-10.2-3.4-8.3c-0.3,0.5-1.3,2.7-2.6,3.9
		c-3.7,3.4-3,2.1,0.7,3.1C1998.6-714,2001.5-712.5,2001.8-713.2z M1973.1-730c11-6.4,15.1-15.5,9.5-21.6c-5.1-5.5-13.6-2.3-21.4,7.6
		c-3.6,4.5-0.9,4,4-0.3c5.7-5,12.9-2.6,12.8,3.7c0,2.7-3.8,7.2-7.4,9.3c-1.1,0.7-1.3,1.7-0.9,2.3
		C1970.1-728.4,1971-728.8,1973.1-730L1973.1-730z M1992.3-736.7c-0.6-1.7-4.7-9.1-5.6-8.8c-0.9,1.9-1,4.4-2.1,6.4
		c-1.5,3-1.3,2.5,3.5,2.5C1991.8-736.7,1992.2-736.1,1992.3-736.7L1992.3-736.7z M1960.1-745.1c9.2-9.6,10-20.9,1.4-23.5
		c-4.8-1.4-12.4,2-12.4,5.6c0,2.2,0.4,2.6,2.3,1.8c8.1-3,14.6,4.8,7.1,13.9c-1.8,2.6-2.1,3.3-1.5,3.8
		C1957.6-742.7,1958.1-743,1960.1-745.1L1960.1-745.1z M2059.3-825.9v-257.1h-53.9l-42.8,67.9l-0.1,16.7c0,0.6,1,0.9,1.6,0.2
		c2.4-1.9,1.5,0.1-1.3,4.4c-2.8,4.3-2,7.9,1.1,12.5c6.6,9.8,10,27.8,7.2,37.3c-1.1,3.6-1.3,5-0.6,7.1c0.8,2.3,1.3,3.5,3.5,5
		c2,1.4,18.2,7.8,44.5,24.8l-0.1-119.9l16.5-16l17.4,16.8l0.6,199.6L2059.3-825.9z M2049.8-1025.6l-14.6-13.7l-14.4,13.5
		c-0.1,64.5,0.4,196.7,0.4,196.7l14.4,1c0,0,1.1-3-0.3-10.8c-2-11.7-1.9-26,1.4-47.8c2-13.3,0-24.9-3.1-37.1
		c-2.7-8.1-2.8-15.6-2.3-22.9c1-11.6,4.2-20.3,4.6-37c0.2-9.5-0.2-18.8,0.1-30.5c0.1-1.6,0.8-1.4,0.9,0.2c0.4,10.6,0.9,20.7,0.9,31
		c-0.3,13.5-3.6,27.3-3.9,39.6c-0.3,8.5-0.4,11.5,3.2,21.9c5.6,16.3,1.9,41.4,1.9,41.9c-2.4,16.1-4.1,36.7,3.9,52l7.8,0.7
		L2049.8-1025.6z M1949.3-904c4.3-2,5.2-5.5,2.8-14c-0.4-1.5-0.9-3.3-1.1-4c-0.5-2.1-1.4-2.3-2.7-0.7c-0.7,1-0.1,1.2,1.1,5.9
		c1.7,7,0.7,9.4-1.9,9.4c-2.3,0-4.1-1.9-4.8-6.5c-0.2-1.6-0.6-2.6-0.9-3.2c-0.6-1-1.4-0.9-2,0.3c-0.8,1.5,0.7,7.7,2.7,10.7
		C1944.7-903.2,1946.2-902.5,1949.3-904L1949.3-904z M1948.1-910.3c0.9-1.7-0.2-6-0.8-8.8c-0.6-1.6-1.2-1.9-2.2-1.7
		c-1.5,0.4-1.4,2.1-0.9,4.8C1945.3-910.3,1945.9-909.6,1948.1-910.3z M1961.2-920.5c4.9-2.8,5.4-7.7,2.1-16.6
		c-1.4-3.6-3.1-6.2-4-6.2c-0.4,2.3-0.7,3.5-0.3,4.5c2.9,4.5,5.1,11.6,0.8,15.6C1957.3-921.4,1958.9-919.7,1961.2-920.5L1961.2-920.5
		z M1799.8-923.9c11.6-2.4,22-21.2,28.6-37.9c6-16.8,12.3-35.3,13.4-50.8c0,0-4.4,0.2-4.9,1.1c-0.5,0.9-0.7,2.8-1.2,5.6
		c-3,14.2-5.4,25-10.7,38.3c-3.7,9.3-7.6,19.7-17.5,33.8c-3.2,3.9-7,6.4-11.6,7c-1.2,0.2-3.2-0.1-3.7,0.3c-0.9,0.6-0.1,2.1,2.2,2.6
		C1796.5-923.3,1797.8-923.5,1799.8-923.9L1799.8-923.9z M1959.2-926.1c1.8-1.9,1.9-4.1,0-8.9c-0.6-1.3-0.8-2.1-1.5-1.9
		c-1.4,0.4-3,4.1-2.1,7.2C1956.9-925.6,1957.6-924.4,1959.2-926.1L1959.2-926.1z M1795.7-929.1c3.4-0.5,7.9-3,10.8-7.4
		c19-29.7,22.2-46.3,28.1-74.5c0,0-4.3-0.2-5.2,0.8c-1.6,11.4-5.4,22.9-8.2,32.4c-4.7,16.2-17.9,42.1-25.2,43.3
		c-3.9,0.7-8.3-2.8-7.6-6.2c0.4-2.2,0.7-3,1.8-3.5c2.5-0.9,4,0.8,1.2,2c-3.2,2.8,2.6,7.1,6.1,4.1c6-5.1-2.8-14.8-10-10.3
		c-8,5-5.9,13.5-0.9,17.6C1789.2-928.9,1792.1-928.6,1795.7-929.1L1795.7-929.1z M1852.4-940.7c4.9-5.1,8.7-11.7,11.4-20
		c5.8-18.6,10.7-39.9,12.5-56.6c0,0-4.2-0.4-5.2,0.5c-1.5,18.1-8.9,55.2-20.8,74.3C1847.7-938,1848.7-936.8,1852.4-940.7
		L1852.4-940.7z M1962.1-979.4c-0.5-0.2-0.4-0.1-0.6,0c-0.7,0.5-0.2,2.8,1.3,6.5c4,6.5,4.5,19.3,4.2,24c-0.1,1.4-0.2,2.3,0.2,3.5
		c0.4,1.2,1.2,2.7,2.4,0.3c1.3-9.4,0.3-19.3-3.3-27.3C1965.1-975.1,1963.8-977.9,1962.1-979.4L1962.1-979.4z M1965.2-951.7
		c0.7-2.5-0.6-12.6-2.2-16.1c-0.6-1.4-1.8-1.5-1.7,0.1c0,3.5-0.4,10.1,0,12.1C1963.1-951.5,1964.4-948.9,1965.2-951.7L1965.2-951.7z
		 M1956.1-992.2h-1.9c0.1,6.6-5.7,8.4-7.9,0.5l-1.7,0.4C1946.9-980.2,1957.2-985.3,1956.1-992.2L1956.1-992.2z M1944.5-987.3
		c-1-2.9-0.6-4-3.1-2.7c-1.9,1-3.1,2.1-0.4,3.4C1943.5-985.6,1945.1-985.5,1944.5-987.3L1944.5-987.3z M1959-989
		c0.8-1.6,0.7-3.1-0.5-3.1c-0.9,0-1.2,0.7-1.4,2.3C1956.6-987,1957.8-986.4,1959-989L1959-989z M1960-999.9c0.7-0.2,0.5-1.3,0.3-2.6
		c-3.1-4.4-10.9-3-13.7-2.2c-3.2,1-4,0.7-6.2-0.3c-1.8-0.3-2.1,0.1-2.5,1c-0.4,0.8-0.5,2.2-0.6,4.8c-0.1,2.1,0,3.1,0.7,2.5
		C1944.7-1003.4,1949.7-1005,1960-999.9L1960-999.9z M1938.7-993.9c0,0.9,0.7,0.3,2.7-0.9c7-4.2,11-3.6,16.9-1.6
		c1.3,0.4,2.1-1,0.7-2.2C1951.9-1004.4,1943.2-1000.7,1938.7-993.9z M1963.9-1020.9l37.8-62.9l-210.4-0.2l35.7,66.8
		C1856.1-1024,1904.1-1032.7,1963.9-1020.9L1963.9-1020.9z"/>
	<g>
		<path class="st2" d="M1779.7-486.2h218.7c-84-155.5-114.6-335.7,16.3-568.5h-80c-8.6,2.8-17.8,7.3-25.3,3.4
			c-2.5-1.1-5-2.2-7.5-3.4h-172.4V-501c3.2-0.5,6.4-0.8,9.3-1.1C1754.8-496.6,1768.2-491.2,1779.7-486.2z"/>
		<path class="st2" d="M2039.9-979.9c-12,19.6-21.1,37.5-23.8,50.5C2022.5-947.3,2030.5-963.9,2039.9-979.9z"/>
		<path class="st2" d="M2092.6-1054.7c-11.9,15.5-24.9,32.9-36.7,50.2c3-4.2,6-8.3,9.2-12.4c9.8-12.8,20.4-25.5,31.6-37.9H2092.6z"
			/>
		<path class="st3" d="M1859.9-747h59.5l1.5-61.9h-62.4C1866.7-787.7,1863.8-767.1,1859.9-747z"/>
		<path class="st3" d="M1941.5-1054.7c-33.2,69.6-49,142.9-56,187.1l24.3,0.7c14.4-65.9,37.6-130.5,74.6-187.7H1941.5z"/>
		<path class="st3" d="M1729.6-553.2c16.8-43.2,31.8-92.4,34.7-132.9l-24.5-0.2c-2.9,13.7-6.4,27.2-10.3,40.4V-553.2z"/>
		<path class="st3" d="M1729.6-747h57.8c-6.5-20.8-5-41.1-0.1-61.9h-57.7v0l-0.1,3.6V-747z"/>
		<path class="st3" d="M1729.6-1054.7v120.8c5.6,21.7,9.7,43.7,11.6,65.2c2.8,0.4,29.2,0.7,30.2-0.3c-0.8-65.7-19.6-136-36.9-185.7
			H1729.6z"/>
		<path class="st3" d="M1974.4-486.2c-25.4-53.9-59.6-137.7-63.6-200.7l-34.2,0.7c1.7,70.8,22.5,136,45.9,200H1974.4z"/>
		<path d="M1814.5-553.2c-6.3,0-11.4,5.2-11.4,11.5s5.1,11.5,11.4,11.5s11.4-5.2,11.4-11.5S1820.8-553.2,1814.5-553.2z
			 M1814.5-533.5c-4.4,0-7.9-3.6-7.9-8s3.6-8,7.9-8s7.9,3.6,7.9,8S1818.8-533.5,1814.5-533.5z"/>
		<path d="M1737.8-689.7c-2.5,10.9-5.2,21.7-8.2,32.4v20c5.2-17,9.4-33.3,12.2-48h19.6c-3.7,39.6-17,85.1-31.8,125.5v14.7
			c18-47.3,30.5-93.9,37.2-144.6H1737.8z"/>
		<path d="M1732.2-1054.7c21.3,60.2,35.2,124.8,38.2,185.3l-28.3,0.2c-2.7-22.6-7-45.3-12.5-67.6v17c3.6,17.6,6.4,36,8.2,55.1
			l36.8,0.2c-4.2-87-20.2-146.7-36.1-190.1H1732.2z"/>
		<path d="M1874.3-689.7c3.4,76.1,20.2,141.6,44.2,203.5h5.2c-29.7-76.8-39.6-140.6-44.2-199.1h29.6c7.6,60.3,24.1,124.7,61.3,199.1
			h4.5c-33.6-65.5-55.8-141.9-62.2-203.5H1874.3z"/>
		<path d="M1760.9-486.2h70.4c11.1-8.4,7-23.7,6.1-34.7c3.4-0.3,12.2,14.9,14.4,27.6c0.4,2.5,0.9,4.8,1.5,7h44.8
			c-20.4-52.2-38.2-113.2-42.6-218.2h64.7c8.7,88.4,32.7,156.2,68.4,218.2h36.1c0.4-2.3,0.8-3.9,0.8-3.9c3.5,1.6,6.6,2.9,9.7,3.9
			h37.3c-70.3-100.4-87.9-215.2-81.9-305.5c-0.8-9.3,0-18.8,1.7-28.5c5.7-31.9,9.8-64.3,19.2-95.4c11.4-37.9,29.5-70.1,53.5-101.2
			c9.8-12.7,20.3-25.5,31.6-37.8h-48.8c1.4,10.4,5.3,21.7,4.1,31.4c-1.8,12.7-12.5,20.2-20.9,12c-1-1-2.9-3.1-2.9-3.1
			c-3.8,4.8-6.1,18.5-6.1,18.5l-14.8-9.2c0,0,10.3-7.3,13.1-11.5c0.8-1.2,1.2-3.3,1.2-3.3c-8.2,2.6-15.2-5.9-13-13.4
			c4.2-11.7,24.5-16.4,37.3-21.3h-40.6c-29.3,48.1-59.3,97-81.2,205.2h-60.1c8.4-67.7,25.5-134.3,55.9-199.1
			c4.4-0.8,14.7-2.8,18.5-5.9c0,0-49.7,115-55.5,188.9l29.1,0.6c14.7-68.1,41.4-138.5,75.2-189.8h-5.9
			c-16.2,24.4-54.1,89.9-73,185.1l-20.8,0.1c10.7-64.1,29.7-125.4,58.3-185.2h-13.8c-0.6,0.3-1.3,0.6-2,0.9
			c-5.8,2.9-18,2.5-25.6-0.9h-13.1c1.1,2.4,1.7,5.3,1.6,8.7c-0.1,9.3-0.9,10.7-7.5,6.9c-8.6-4.9-15.3-5-23,0.6
			c-4.2,3.1-8.4,5.6-8.4,5.6s3.7-16.2,9.4-21.3c0.2-0.2,0.4-0.3,0.5-0.5h-26.6c6.7,2.6,11.9,9.7,11.1,17c-0.6,5.5-2.2,8-3.6,12.7
			c0,0,4.7-1.9,7-2.9c10.7-5,21.8,4.3,21.7,15.2c0.5,7.3-7.4,16-16.7,16.1c-3.3,0.1-6.7-1-10-3.5c2.4,13.4,2.9,19.5-6.8,26.2
			c-8.1,5.4-25.1-0.8-24.2-15.7l0.6-9.2l-8.2,1.1c-22.9,0.9-23.3-27.5-4.8-31.9c7.4-1.8,15.4,4.3,15.4,4.3c-3.5-7-3.6-19,1.1-24.5
			c2-2.3,4.2-3.9,6.4-4.8h-18.2c-0.1,8.9,2.1,18.2,1.3,19.6c-4.1,0.7-10.5-9.9-14.4-19.6h-41.8c19.8,59.5,36.1,135.1,35.3,204.1
			h-58.6v145.2l51.6,0.6c-7.9,55.7-22.9,128.8-51.6,191v13.4C1745-501.3,1755-495.3,1760.9-486.2z M1960.6-647.5
			c0,0-2.4,2.7-4.3,3.6c-9.4,4-17.3-4.3-16.2-14.1c1.6-13.2,16.2-31.5,16.2-31.5c5.3,4.2,11.1,8.3,16.5,12.2
			c14.6,10.3,14.4,29.9,0.2,29.8c-1.5,0-5-0.2-5-0.2s5.8,12.8,9.4,19.3c-5.9,1.6-18.2,3.9-18.2,3.9S1961-637.1,1960.6-647.5z
			 M2020.8-513.7c-0.6,0-4.4-0.6-4.4-0.6c3,4.6,13,15.8,13,15.8l-16.3,6.7c0,0-2.6-12.7-4.6-19.8c-5.7,13.2-19.7,4.6-20.6-3.6
			c-2.3-12.1,2.8-23.9,6.5-35.3c0,0,21.1,8,30.5,16.8C2033.7-526.3,2029.6-514,2020.8-513.7z M1992.6-600.8
			c12.7,9.9,14.8,21.4,2.2,25.9c-1.5,0.5-5.6,0.3-5.6,0.3c3.5,6.1,11.8,15.3,11.8,15.3c-4.2,2.9-10,5.2-16.5,7.3
			c0,0-1.6-15.3-3.1-21.2c0,0-1.7,3.3-3.7,4.6c-12.2,7.7-21.8-6.8-15.2-25.1c4-11.1,10.1-20.2,10.1-20.2
			C1972.4-613.8,1982.9-608.3,1992.6-600.8z M1977.5-969.5c8.4-7.3,29.7-18.2,29.7-18.2v0c0,0,1.5,15.2,3.7,22
			c6.8,19-1.9,30.5-14.4,24.1c-1.8-0.9-5-5-5-5l-1.2,21.8l-17.9-5.3c3.9-6.3,9.4-10.8,13.6-17.9c0,0-2.7-0.1-5-0.1
			C1970.2-947.6,1966.3-959.6,1977.5-969.5z M1963-906.6c3.1-1.8,13.7-8.7,13.7-8.7s4.8,6.4,10.4,23.4c5.3,16.2-2.8,28.4-14,22.3
			c-2-1.1-4.1-3.5-4.1-3.5c-0.8,7.8,0.6,22,0.8,22.1l-17.9-3.2c0,0,9.8-15.8,10.5-19.7c0,0-1.1,0.9-6,0.9
			C1938.5-873,1942.2-894.6,1963-906.6z M1932.2-804.9c3.2-14.2,14.8-23.8,26.6-32.3c7,10.8,15.8,22,16.8,35.1
			c-0.5,13-9.2,15.4-18.2,7.8c-1.1,6.8,2.7,20.1,2.7,20.1l-16.3-1.7c0,0,6.4-11.2,6.6-18.3C1939.3-786.2,1930.7-796.6,1932.2-804.9z
			 M1935.4-746.3c8.8-12.3,16.8-19.9,16.8-19.9s6.2,6.5,10,10.6c13.1,14.5,15.4,28.1,8.7,32.2c-5.7,2.6-9.3,0.8-13.9-2.9
			c1,9,8,22.3,7.8,22.3l-19.6,3.2c0,0,4.8-18,4.4-24.8c0,0-4,3.1-5.8,3.9C1931.3-717,1924.9-731.7,1935.4-746.3z M1829.5-528.6
			c1.2,0.5,3,17.4-4.1,23.8c-11.1,12.5-31.7-0.3-26.5-18.6c1.1-3.8,1.3-6.2,1.3-6.2s-7.4,2.7-10,2.6c-22.4-1-20.7-33,1.8-29.3
			c4.6,0.8,7.7,1.9,7.7,1.9s-0.5-2-1.2-4.9c-3.3-12.3,3.6-23.6,16-23.4c8.9,0.1,14.3,9.6,13.9,18.3l-0.4,8.4
			c11.4-4.4,25.6-0.1,26.3,11.2C1855.3-525.6,1841.3-527.8,1829.5-528.6z M1796.8-711.8c-2.9-4.6-0.8-6.9,2.6-7.1h0
			c2.6-0.2,5.9,0.9,8,3.1c6.5,4.5,7.7,10.2,8.2,31.9c0.4,19.1,0,19.6,3.1,21.9c7.6,5.7,12.2-3,10.1-22.3
			c-2.1-18.6,4.5-32.2,15.7-32.1c5.5,0.1,6.5,3.3,2.3,7.4c-4.4,4.4-5.4,9.7-4.1,20.5c3.5,27.6,0.5,41.2-11,46.8
			c-12,5.8-27.4-0.9-30.1-16.2c-1.7-10.2-1.7-22.3-0.5-33.7C1801.2-703.6,1801-705,1796.8-711.8z M1819.5-682.8
			c0-7.7,1.2-13.9,2.8-13.9s2.8,6.2,2.8,13.9c0,7.7-1.2,13.9-2.8,13.9C1820.7-668.8,1819.5-675,1819.5-682.8z M1835.7-564.8
			c-0.3-0.5,12.6-29.8-4.7-34.5c-7.9-2.1-1.1-12,7.3-11.9C1868.8-612,1851-561.6,1835.7-564.8z M1917.8-807.2v57.4l-55.4-1.1
			c0,0,12-25.6-1.7-57.5L1917.8-807.2z M1849.8-959.7c5.5,0,9.8-10.7,8.1-22c-0.6-4.5-2.2-10.1-2.2-10.1s7,5.1,8.4,6.5
			c12.8,12.4,13,30.3,1.3,36.5c-7.7,4.1-16.5,0.8-19.5-5.2C1844.6-956.8,1846.9-959.7,1849.8-959.7z M1824.5-912.2
			c14.1,0.1,24.5,14.2,22.4,34.1c-3.6,34.3-1.5,32.2,2.2,35.6c6.7,6.2-2.4,10-10.4,4c-5.6-4.1-7.4-8.2-7.1-27.2
			c0.3-21.8-0.9-27.3-8.6-25.4c-4.8,1.2-6.3,5.3-5.8,20c0.7,20.6-0.6,25.8-8.4,32.4c-8.3,6.5-17.3,0.7-9.7-3.6c3.5-4,4.1-9,2.8-21.5
			C1800.5-874.2,1794.3-912.4,1824.5-912.2z M1827.2-868.9c0,7.7-1.2,13.9-2.8,13.9c-1.5,0-2.8-6.2-2.8-13.9
			c0-7.7,1.2-13.9,2.8-13.9C1825.9-882.8,1827.2-876.6,1827.2-868.9z M1791.7-970.9c3.2-10,12.5-21.5,16.3-21.6
			c5,7.1-12.6,27.9,10.4,36.3c0,0,0.6,4.8-4.2,7.7C1802.9-940.2,1786.7-955.3,1791.7-970.9z M1808.3-831.3
			c5.9-6.7,10.2-10.3,14.7-10.4c5.8-0.2,12,5.3,22.1,17.2c28.3,33.2,20.8,84.5-16.3,111.3c-5.4,3.9-7.6,3.6-14.2-2.2
			C1776.6-748.4,1774.4-792.5,1808.3-831.3z M1730.4-750.8V-807l56,0.7c-9.1,21.6-5.7,43.8-2.4,56.4L1730.4-750.8z M1788.4-607.7
			c9.5-0.1,16.3,6.7,7.3,10.9c-14.2,6.7-5.8,22.7-5.4,31.8c0.2,5.5-12.7-4.8-15.4-16.1C1771.3-595.6,1772.9-606.4,1788.4-607.7z
			 M1763.8-515.3c9.1,6.8,18-1.1,25.8-5.3c2,12.7-20.7,34.6-33.5,19.3C1749.6-509.1,1755.5-525.2,1763.8-515.3z"/>
		<path d="M1831.6-1002.5c6.6,0,11.9-5.4,11.9-12.1c0-6.7-5.3-12-11.9-12c-6.6,0-11.9,5.4-11.9,12
			C1819.7-1007.9,1825-1002.5,1831.6-1002.5z M1831.5-1022.8c4.5,0,8.2,3.7,8.2,8.3c0,4.6-3.7,8.3-8.2,8.3c-4.5,0-8.2-3.7-8.2-8.3
			S1827-1022.8,1831.5-1022.8z"/>
		<path d="M1814.4-545.4c-2.2,0-3.9,1.8-3.9,3.9c0,2.2,1.8,4,3.9,3.9c2.2,0,3.9-1.8,3.9-3.9S1816.6-545.4,1814.4-545.4z"/>
		<path d="M1831.4-1010.4c2.2,0,3.9-1.8,3.9-3.9c0-2.2-1.8-3.9-3.9-3.9s-3.9,1.8-3.9,3.9C1827.5-1012.1,1829.2-1010.4,1831.4-1010.4
			z"/>
		<path d="M1823.2-812.8c-25,19-21,48.8-2.1,68.9C1841.5-757.5,1848.7-794.4,1823.2-812.8z M1822-758c-12.4-12.8-9.9-34.1,1.1-41.5
			C1832.4-794,1835-768.3,1822-758z"/>
		<path d="M1848.8-800.4c-3.8-9.2-10.6-18.2-18.8-24.7c-3.1-2.5-4.8-3.7-6.5-3.6c-1.3,0.1-2.7,1-4.8,2.8c-9.9,8-17.7,18-21.7,28.4
			c-8.5,21.9-3,46.5,16.3,65.7c9.8,9.7,13.2,9,28.2-11C1853.9-759.8,1856.5-781.5,1848.8-800.4z M1826.7-731.2
			c-5.3,2.9-9.7,0.7-17.2-9.6c-14.9-20.4-17.7-45-6-61.8c9-12.8,15.6-19.7,20.9-19.7c8.7,1.2,19.4,18.2,21.8,24.4
			c4.6,12.2,5,26.3,0.8,37.3C1843.5-751.6,1833.2-735.7,1826.7-731.2z"/>
	</g>
</g>
</svg>
