<?xml version="1.0" encoding="utf-8"?>
<!-- Generator: Adobe Illustrator 24.0.3, SVG Export Plug-In . SVG Version: 6.00 Build 0)  -->
<svg version="1.1" id="Layer_1" xmlns="http://www.w3.org/2000/svg" xmlns:xlink="http://www.w3.org/1999/xlink" x="0px" y="0px"
	 viewBox="0 0 50 50" style="enable-background:new 0 0 50 50;" xml:space="preserve">
<path d="M49.7,24.5c-5.4-2.3-10.3-5.6-14.4-9.8c-4.1-4.1-7.5-9-9.8-14.4c-0.1-0.3-0.4-0.4-0.7-0.3c-0.1,0.1-0.2,0.2-0.3,0.3
	c-2.3,5.4-5.6,10.3-9.8,14.4c-4.1,4.1-9,7.5-14.4,9.8c-0.3,0.1-0.4,0.4-0.3,0.7c0.1,0.1,0.2,0.2,0.3,0.3c5.4,2.3,10.3,5.6,14.4,9.8
	c4.1,4.1,7.5,9,9.8,14.4c0.1,0.3,0.4,0.4,0.7,0.3c0.1-0.1,0.2-0.2,0.3-0.3c4.7-10.9,13.3-19.5,24.2-24.2c0.3-0.1,0.4-0.4,0.3-0.7
	C49.9,24.7,49.8,24.6,49.7,24.5L49.7,24.5z"/>
</svg>
